<svg xmlns="http://www.w3.org/2000/svg" viewBox="0 0 42.5 42.5"><defs><style>.cls-1{fill:#23b180;}.cls-2{fill:#fff;}</style></defs><title>red-wsap</title><g id="Layer_2" data-name="Layer 2"><g id="Layer_2-2" data-name="Layer 2"><circle id="_Path_" data-name="&lt;Path&gt;" class="cls-1" cx="21.25" cy="21.25" r="21.25"/><path class="cls-2" d="M33.83,19.71a12.36,12.36,0,0,0-24.69-.23c0,.18,0,.36,0,.54a12.13,12.13,0,0,0,1.77,6.33L8.66,32.93l6.84-2.17A12.38,12.38,0,0,0,33.84,20C33.84,19.92,33.83,19.81,33.83,19.71ZM21.48,30.33a10.38,10.38,0,0,1-5.72-1.71l-4,1.27,1.3-3.83a10.2,10.2,0,0,1-2-6c0-.34,0-.67,0-1a10.39,10.39,0,0,1,20.69.19c0,.27,0,.53,0,.81A10.36,10.36,0,0,1,21.48,30.33Z"/><path id="_Path_2" data-name="&lt;Path&gt;" class="cls-2" d="M27.14,22.49c-.3-.15-1.79-.88-2.07-1s-.48-.15-.68.15-.78,1-1,1.18-.35.23-.66.08a8.27,8.27,0,0,1-2.44-1.49,9,9,0,0,1-1.68-2.08c-.18-.3,0-.46.13-.61s.3-.35.45-.53l.11-.14a3.22,3.22,0,0,0,.19-.36.55.55,0,0,0,0-.53c-.08-.15-.68-1.63-.93-2.23s-.5-.5-.68-.5l-.58,0a1.12,1.12,0,0,0-.81.38,3.36,3.36,0,0,0-1.06,2.51,3.73,3.73,0,0,0,.16,1,6.8,6.8,0,0,0,1.08,2.09A12.39,12.39,0,0,0,21.86,25c3.08,1.2,3.08.8,3.64.75a3.06,3.06,0,0,0,2-1.43,2.5,2.5,0,0,0,.18-1.43C27.64,22.72,27.44,22.65,27.14,22.49Z"/></g></g></svg>