<svg xmlns="http://www.w3.org/2000/svg" xmlns:xlink="http://www.w3.org/1999/xlink" viewBox="0 0 36.28 36.21"><defs><style>.cls-1{fill:url(#radial-gradient);}.cls-2{fill:#fff;}</style><radialGradient id="radial-gradient" cx="10.54" cy="36.12" r="36.58" gradientUnits="userSpaceOnUse"><stop offset="0" stop-color="#ffd676"/><stop offset="0.25" stop-color="#f2a454"/><stop offset="0.38" stop-color="#f05c3c"/><stop offset="0.7" stop-color="#c22f86"/><stop offset="0.96" stop-color="#6666ad"/><stop offset="0.99" stop-color="#5c6cb2"/></radialGradient></defs><title>logo-insta</title><g id="Layer_2" data-name="Layer 2"><g id="Credits"><path class="cls-1" d="M36.28,28.28a7.91,7.91,0,0,1-7.89,7.93H7.89A7.91,7.91,0,0,1,0,28.28V7.93A7.91,7.91,0,0,1,7.89,0H28.39a7.91,7.91,0,0,1,7.89,7.93Z"/><path class="cls-2" d="M23.58,32.17H12.7a8.24,8.24,0,0,1-8.23-8.23V12.34A8.24,8.24,0,0,1,12.7,4.11H23.58a8.24,8.24,0,0,1,8.23,8.23V23.94A8.24,8.24,0,0,1,23.58,32.17ZM12.7,7.08a5.26,5.26,0,0,0-5.26,5.26V23.94A5.26,5.26,0,0,0,12.7,29.2H23.58a5.26,5.26,0,0,0,5.26-5.26V12.34a5.26,5.26,0,0,0-5.26-5.26Z"/><path class="cls-2" d="M18.14,25.9a7.81,7.81,0,0,1-7.8-7.8,7.71,7.71,0,0,1,7.85-7.8A8,8,0,0,1,24,12.68a7.55,7.55,0,0,1,1.95,5.46,8,8,0,0,1-2.3,5.47A7.68,7.68,0,0,1,18.14,25.9Zm-.17-12a4.09,4.09,0,0,0-4,4.17,4.17,4.17,0,1,0,8.33,0c.06-2.54-1.48-4-4.22-4.13Z"/><circle class="cls-2" cx="25.51" cy="10.71" r="1.68"/></g></g></svg>