<svg xmlns="http://www.w3.org/2000/svg" viewBox="0 0 381.86 390.52"><defs><style>.cls-1{fill:none;}.cls-2{fill:#fff;}</style></defs><title>s-ico-1</title><g id="Layer_2" data-name="Layer 2"><g id="Layer_1-2" data-name="Layer 1"><path class="cls-1" d="M321.41,179.93H59.78a15.14,15.14,0,0,0-15.13,15.14v143A15.14,15.14,0,0,0,59.78,353.2H321.41a15.13,15.13,0,0,0,15.13-15.13v-143A15.14,15.14,0,0,0,321.41,179.93ZM138,323.68a8.86,8.86,0,0,1-8.86,8.86H98.16a8.86,8.86,0,0,1-8.86-8.86V292.76a8.86,8.86,0,0,1,8.86-8.86h30.93a8.86,8.86,0,0,1,8.86,8.86Zm0-77.31a8.86,8.86,0,0,1-8.86,8.86H98.16a8.86,8.86,0,0,1-8.86-8.86V215.45a8.86,8.86,0,0,1,8.86-8.86h30.93a8.86,8.86,0,0,1,8.86,8.86Zm77.3,77.31a8.86,8.86,0,0,1-8.86,8.86H175.46a8.86,8.86,0,0,1-8.86-8.86V292.76a8.86,8.86,0,0,1,8.86-8.86H206.4a8.86,8.86,0,0,1,8.86,8.86Zm0-77.31a8.86,8.86,0,0,1-8.86,8.86H175.46a8.86,8.86,0,0,1-8.86-8.86V215.45a8.86,8.86,0,0,1,8.86-8.86H206.4a8.86,8.86,0,0,1,8.86,8.86Zm77.31,77.31a8.86,8.86,0,0,1-8.86,8.86H252.77a8.86,8.86,0,0,1-8.86-8.86V292.76a8.86,8.86,0,0,1,8.86-8.86h30.94a8.86,8.86,0,0,1,8.86,8.86Zm0-77.31a8.86,8.86,0,0,1-8.86,8.86H252.77a8.86,8.86,0,0,1-8.86-8.86V215.45a8.86,8.86,0,0,1,8.86-8.86h30.93a8.86,8.86,0,0,1,8.86,8.86Z"/><path class="cls-2" d="M129.09,206.59H98.16a8.86,8.86,0,0,0-8.86,8.86v30.92a8.86,8.86,0,0,0,8.86,8.86h30.93a8.86,8.86,0,0,0,8.86-8.86V215.45A8.86,8.86,0,0,0,129.09,206.59Z"/><path class="cls-2" d="M206.4,206.59H175.46a8.86,8.86,0,0,0-8.86,8.86v30.92a8.86,8.86,0,0,0,8.86,8.86H206.4a8.86,8.86,0,0,0,8.86-8.86V215.45A8.86,8.86,0,0,0,206.4,206.59Z"/><path class="cls-2" d="M283.71,206.59H252.77a8.86,8.86,0,0,0-8.86,8.86v30.92a8.86,8.86,0,0,0,8.86,8.86h30.93a8.86,8.86,0,0,0,8.86-8.86V215.45A8.86,8.86,0,0,0,283.71,206.59Z"/><path class="cls-2" d="M129.09,283.9H98.16a8.86,8.86,0,0,0-8.86,8.86v30.92a8.86,8.86,0,0,0,8.86,8.86h30.93a8.86,8.86,0,0,0,8.86-8.86V292.76A8.86,8.86,0,0,0,129.09,283.9Z"/><path class="cls-2" d="M206.4,283.9H175.46a8.86,8.86,0,0,0-8.86,8.86v30.92a8.86,8.86,0,0,0,8.86,8.86H206.4a8.86,8.86,0,0,0,8.86-8.86V292.76A8.86,8.86,0,0,0,206.4,283.9Z"/><path class="cls-2" d="M283.71,283.9H252.77a8.86,8.86,0,0,0-8.86,8.86v30.92a8.86,8.86,0,0,0,8.86,8.86h30.94a8.86,8.86,0,0,0,8.86-8.86V292.76A8.86,8.86,0,0,0,283.71,283.9Z"/><path class="cls-2" d="M347.88,43.48V90.72a38.59,38.59,0,0,1-38.67,38.56H284.81a38.78,38.78,0,0,1-38.9-38.56V43.31H136V90.72a38.78,38.78,0,0,1-38.9,38.56H72.66A38.58,38.58,0,0,1,34,90.72V43.48a35.16,35.16,0,0,0-34,35V355.31a35.18,35.18,0,0,0,35,35.21H346.86a35.22,35.22,0,0,0,35-35.21V78.46A35.16,35.16,0,0,0,347.88,43.48ZM336.54,338.07a15.13,15.13,0,0,1-15.13,15.13H59.78a15.14,15.14,0,0,1-15.13-15.13v-143a15.14,15.14,0,0,1,15.13-15.14H321.41a15.14,15.14,0,0,1,15.13,15.14Z"/><path class="cls-2" d="M72.57,104H96.7A13.25,13.25,0,0,0,110,90.7V13.26A13.26,13.26,0,0,0,96.7,0H72.57A13.26,13.26,0,0,0,59.31,13.26V90.7A13.25,13.25,0,0,0,72.57,104Z"/><path class="cls-2" d="M284.5,104h24.13A13.25,13.25,0,0,0,321.89,90.7V13.26A13.26,13.26,0,0,0,308.63,0H284.5a13.26,13.26,0,0,0-13.26,13.26V90.7A13.25,13.25,0,0,0,284.5,104Z"/></g></g></svg>