<svg xmlns="http://www.w3.org/2000/svg" viewBox="0 0 12.8 12.8"><defs><style>.cls-1{fill:#fff;}</style></defs><title>ico</title><g id="Layer_2" data-name="Layer 2"><g id="Layer_1-2" data-name="Layer 1"><path class="cls-1" d="M6.4,0a6.4,6.4,0,1,0,6.4,6.4A6.42,6.42,0,0,0,6.4,0ZM9.2,3.2a1.23,1.23,0,0,1,1.2,1.2A1.2,1.2,0,0,1,8,4.4,1.23,1.23,0,0,1,9.2,3.2Zm-5.6,0A1.23,1.23,0,0,1,4.8,4.4,1.23,1.23,0,0,1,3.6,5.6,1.23,1.23,0,0,1,2.4,4.4,1.23,1.23,0,0,1,3.6,3.2Zm2.8,8A5,5,0,0,1,1.84,8H11A5,5,0,0,1,6.4,11.2Z"/></g></g></svg>