<svg xmlns="http://www.w3.org/2000/svg" viewBox="0 0 23.12 22.13"><defs><style>.cls-1{fill:#fff;}</style></defs><title>s-ico-3</title><g id="Layer_2" data-name="Layer 2"><g id="Layer_2-2" data-name="Layer 2"><path class="cls-1" d="M18.1,16.54c-3-1.1-4-2-4-4,0-1.2.93-.81,1.33-3,.17-.91,1,0,1.14-2.09,0-.83-.45-1-.45-1s.23-1.23.32-2.17C16.56,3,15.77,0,11.56,0s-5,3-4.89,4.21c.09.94.32,2.17.32,2.17s-.45.21-.45,1c.16,2.08,1,1.18,1.14,2.09C8.09,11.7,9,11.31,9,12.5c0,2-1,2.93-4,4s-5,2.24-5,3v2.59H23.12V19.55C23.12,18.77,21.14,17.65,18.1,16.54Z"/></g></g></svg>