<?xml version="1.0" standalone="no"?>
<!DOCTYPE svg PUBLIC "-//W3C//DTD SVG 1.1//EN" "http://www.w3.org/Graphics/SVG/1.1/DTD/svg11.dtd" >
<svg xmlns="http://www.w3.org/2000/svg" xmlns:xlink="http://www.w3.org/1999/xlink" version="1.1">
<metadata>
Created by FontForge 20180930 at Mon Oct  8 19:17:45 2018
 By root
Sinkin Sans 500 Medium Italic by Keith Bates    (c) 2014   www.k-type.com    Sinkin Sans is a simple, pleasantly proportioned sans serif with tiny, inconspicuous notches that sink into vertical strokes adding highlights to congested corners.
</metadata>
<defs>
<font id="SinkinSans-500MediumItalic" horiz-adv-x="723" >
  <font-face 
    font-family="Sinkin Sans 500 Medium Italic"
    font-weight="500"
    font-style="italic"
    font-stretch="normal"
    units-per-em="1000"
    panose-1="0 0 0 0 0 0 0 0 0 0"
    ascent="810"
    descent="-190"
    x-height="629"
    cap-height="810"
    bbox="-216 -215 1277.08 1130"
    underline-thickness="50"
    underline-position="-100"
    slope="-112"
    unicode-range="U+0020-2122"
  />
    <missing-glyph />
    <glyph glyph-name="space" unicode=" " horiz-adv-x="307" 
 />
    <glyph glyph-name="Eth" unicode="&#xd0;" horiz-adv-x="840" 
d="M816 405q-12 -48 -29.5 -96t-43.5 -93t-62 -84.5t-85 -68.5t-112.5 -46t-143.5 -17h-320l83 338l10 12h-71l27 110h71l-4 13l84 337h87h71h157q81 0 136.5 -17t90.5 -46t52.5 -68.5t21.5 -84.5t-2 -93t-18 -96zM694 405q15 60 18.5 113t-15.5 93.5t-65.5 64t-133.5 23.5
h-199l9 -12l-53 -215l-10 -12h200l-27 -110h-201l5 -13l-53 -214l-15 -12h204q85 0 142.5 23.5t95.5 63.5t60.5 93.5t37.5 113.5z" />
    <glyph glyph-name="eth" unicode="&#xf0;" horiz-adv-x="669" 
d="M618 296q-16 -65 -48 -121t-78 -97t-104.5 -64.5t-127.5 -23.5q-70 0 -117 23t-72.5 64t-29.5 97t12 122q14 58 40.5 108.5t64 90t85 66t104.5 36.5q15 2 31 3.5t30 1.5q26 0 45 -4l-29 73l2 12l-95 -51l-29 76l94 50l-8 5l-33 83h125l11 -27l-1 -11l82 44l30 -76
l-84 -44l9 -5l88 -223q17 -42 18 -93.5t-15 -114.5zM510 293q11 43 10 80.5t-16 65.5t-44.5 43.5t-74.5 15.5t-82 -15.5t-65 -43t-47.5 -65t-30.5 -81.5t-9.5 -80.5t16.5 -62.5t44.5 -41t74.5 -15t82 14.5t64.5 41t47 63t30.5 80.5z" />
    <glyph glyph-name="Scaron" unicode="&#x160;" horiz-adv-x="790" 
d="M778 1061l-232 -186h-2l-140 186l59 47l111 -114l2 1l167 114zM727 225q-11 -44 -39.5 -86.5t-76.5 -75.5t-116 -53t-158 -20q-49 0 -96.5 8t-89.5 24.5t-78 43t-61 62.5l110 86q27 -31 53.5 -52.5t55.5 -35t60.5 -19.5t68.5 -6q55 0 98 9.5t73.5 26t48.5 37.5t24 45
q8 34 -17 66.5t-100 53.5q-6 2 -26 7.5t-43 12t-43 12t-26 7.5q-51 15 -93 33.5t-69.5 43.5t-38 59t1.5 81q11 44 41 85t78 72t114 49.5t149 18.5q99 0 171.5 -33.5t117.5 -96.5l-109 -87q-29 51 -79.5 78.5t-127.5 27.5q-56 0 -97.5 -9.5t-69.5 -25t-44 -35.5t-21 -40
q-5 -19 1 -34t24.5 -28.5t50.5 -26.5t80 -27q6 -2 23 -6.5t36.5 -10.5t37 -11l24.5 -7q113 -31 154 -90t23 -133z" />
    <glyph glyph-name="scaron" unicode="&#x161;" horiz-adv-x="654" 
d="M672 881l-232 -186h-2l-139 186l58 47l112 -114h2l166 114zM574 178q-9 -36 -32 -70.5t-61.5 -60.5t-92 -42t-122.5 -16q-37 0 -73.5 6t-69.5 19.5t-62 34.5t-51 52l100 81q22 -25 42.5 -42t42.5 -27t45 -14.5t49 -4.5q41 0 71 7.5t50 19t31.5 25.5t15.5 28q3 12 1.5 22
t-10 19.5t-26 18.5t-47.5 17q-5 1 -19.5 5.5t-32 9.5t-32.5 9.5t-19 6.5q-38 11 -71 25.5t-55 35.5t-30.5 49t0.5 67q9 37 33.5 69.5t63 57.5t90.5 39.5t116 14.5q75 0 132.5 -26t96.5 -81l-100 -80q-26 42 -63.5 62t-91.5 20q-40 0 -68.5 -7.5t-48 -18.5t-29.5 -23.5
t-13 -23.5q-6 -26 19 -42t91 -35q4 -2 17.5 -6t28.5 -9t28.5 -9t18.5 -5q89 -26 121.5 -69.5t15.5 -108.5z" />
    <glyph glyph-name="Yacute" unicode="&#xdd;" horiz-adv-x="841" 
d="M749 1052l-250 -178l-35 48l227 207zM957 810l-462 -472l-83 -338h-120l83 338l-230 472h150l136 -288l28 -84h2l68 85l280 287h148z" />
    <glyph glyph-name="yacute" unicode="&#xfd;" horiz-adv-x="693" 
d="M635 873l-249 -178l-36 48l228 208zM764 630l-459 -695q-46 -69 -105.5 -109.5t-123.5 -40.5q-36 0 -66.5 6.5t-56.5 22.5l27 112q29 -18 56.5 -25.5t53.5 -7.5q34 0 68 24t72 83l-129 630h129l81 -428l7 -76h2l44 77l271 427h129z" />
    <glyph glyph-name="Thorn" unicode="&#xde;" horiz-adv-x="789" 
d="M775 404q-13 -53 -43 -99.5t-74 -81t-100.5 -54t-123.5 -19.5h-270l9 -12l-34 -138h-119l200 810h118l-35 -139l-15 -12h273q66 0 113 -19t74 -52.5t34 -80.5t-7 -103zM653 404q8 33 5.5 59.5t-16.5 45t-41 29t-67 10.5h-272l9 -12l-65 -263l-15 -13h271q81 0 128.5 40.5
t62.5 103.5z" />
    <glyph glyph-name="thorn" unicode="&#xfe;" horiz-adv-x="746" 
d="M700 314q-18 -71 -50.5 -130.5t-80.5 -102.5t-111 -67t-140 -24q-58 0 -97.5 16.5t-67.5 54.5h-2l-67 -271h-116l259 1050h116l-68 -275h2q42 36 92 55.5t109 19.5q76 0 127 -24.5t78 -68t30.5 -103.5t-13.5 -130zM584 314q12 48 11.5 88.5t-16 70t-47.5 46t-83 16.5
t-91 -16.5t-70 -46t-50.5 -70t-32.5 -88.5t-11.5 -88t16 -69.5t47.5 -46t83 -16.5t91.5 16.5t70.5 46t50 70t32 87.5z" />
    <glyph glyph-name="Zcaron" unicode="&#x17d;" horiz-adv-x="802" 
d="M782 1061l-232 -186h-2l-140 186l58 47l112 -114l2 1l167 114zM673 0h-683l23 94l588 539l82 64l1 2h-511l27 111h668l-23 -93l-579 -534l-88 -71l1 -1h522z" />
    <glyph glyph-name="zcaron" unicode="&#x17e;" horiz-adv-x="676" 
d="M674 881l-232 -186h-2l-139 186l58 47l112 -114h2l166 114zM547 0h-557l21 87l429 381l71 52l1 2h-386l27 107h545l-20 -83l-437 -383l-75 -55l1 -1h406z" />
    <glyph glyph-name="onehalf" unicode="&#xbd;" horiz-adv-x="811" 
d="M767 323q-12 -47 -47.5 -80.5t-101.5 -54.5l-69 -23q-29 -9 -44 -29.5t-29 -43.5l-2 -2l-9 -8h242l-21 -83h-319l21 86q12 49 50 94.5t103 66.5l59 19q46 15 61.5 29t18.5 29q2 8 1.5 16.5t-6.5 15.5t-18.5 11.5t-34.5 4.5q-28 0 -55 -13.5t-62 -48.5l-47 63
q48 44 92.5 63t92.5 19q40 0 66.5 -11t41.5 -29.5t18.5 -42t-2.5 -48.5zM664 820l-493 -830h-90l493 830h90zM238 355h-84l74 300l18 47l-20 -21l-24 -22l-27 -23l-43 58l145 116h73z" />
    <glyph glyph-name="onequarter" unicode="&#xbc;" horiz-adv-x="787" 
d="M687 98h-54l3 -8l-22 -91h-86l22 90l8 9h-235l16 63l313 293h75l-66 -265l-7 -9h54zM663 820l-493 -830h-91l493 830h91zM238 355h-84l74 300l18 47l-20 -21l-24 -22l-27 -23l-43 58l145 116h73zM578 180l-3 8l27 110l9 33l-13 -14l-24 -27l-88 -82l-34 -27l-1 -2z" />
    <glyph glyph-name="onesuperior" unicode="&#xb9;" horiz-adv-x="294" 
d="M238 355h-84l74 300l18 47l-20 -21l-24 -22l-27 -23l-43 58l145 116h73z" />
    <glyph glyph-name="threequarters" unicode="&#xbe;" horiz-adv-x="938" 
d="M838 98h-54l3 -8l-22 -91h-86l22 90l8 9h-235l16 63l313 293h75l-66 -265l-7 -9h54zM814 820l-493 -830h-91l493 830h91zM463 496q-6 -26 -23.5 -51t-44.5 -45t-63.5 -32.5t-81.5 -12.5q-54 0 -91.5 19.5t-65.5 62.5l77 61q19 -32 41 -47t59 -15q27 0 46.5 6t32 15
t19.5 19t9 18q6 23 -8 41t-59 22q-7 1 -19 1t-25 1q-15 0 -31 1l19 76q16 0 31 1q12 0 24.5 0.5t17.5 1.5q25 2 41.5 8.5t27 14.5t15.5 16.5t7 15.5q1 6 0 14t-8.5 14.5t-23 11t-41.5 4.5q-35 0 -63.5 -13.5t-62.5 -44.5l-47 62q48 42 95 60t99 18q43 0 72 -10t45.5 -27.5
t21 -40.5t-1.5 -48q-7 -29 -30 -53.5t-51 -38.5l-1 -2q26 -13 39 -39.5t3 -64.5zM729 180l-3 8l27 110l9 33l-13 -14l-24 -27l-88 -82l-34 -27l-1 -2z" />
    <glyph glyph-name="threesuperior" unicode="&#xb3;" horiz-adv-x="464" 
d="M463 496q-6 -26 -23.5 -51t-44.5 -45t-63.5 -32.5t-81.5 -12.5q-54 0 -91.5 19.5t-65.5 62.5l77 61q19 -32 41 -47t59 -15q27 0 46.5 6t32 15t19.5 19t9 18q6 23 -8 41t-59 22q-7 1 -19 1t-25 1q-15 0 -31 1l19 76q16 0 31 1q12 0 24.5 0.5t17.5 1.5q25 2 41.5 8.5
t27 14.5t15.5 16.5t7 15.5q1 6 0 14t-8.5 14.5t-23 11t-41.5 4.5q-35 0 -63.5 -13.5t-62.5 -44.5l-47 62q48 42 95 60t99 18q43 0 72 -10t45.5 -27.5t21 -40.5t-1.5 -48q-7 -29 -30 -53.5t-51 -38.5l-1 -2q26 -13 39 -39.5t3 -64.5z" />
    <glyph glyph-name="twosuperior" unicode="&#xb2;" horiz-adv-x="430" 
d="M475 685q-11 -47 -46.5 -80.5t-101.5 -55.5l-70 -22q-29 -10 -44 -30t-29 -43l-2 -2l-8 -8h241l-20 -83h-319l21 85q12 49 49.5 94.5t102.5 67.5l59 19q23 7 38 14.5t24 14.5t13 14t6 15t1.5 16.5t-6.5 15t-18.5 11t-34.5 4.5q-29 0 -56 -13t-62 -49l-46 63
q48 45 92 63.5t92 18.5q40 0 67 -11t42 -29t18 -41.5t-3 -48.5z" />
    <glyph glyph-name="brokenbar" unicode="&#xa6;" horiz-adv-x="332" 
d="M260 450h-104l101 410h104zM136 -50h-104l101 410h104z" />
    <glyph glyph-name="multiply" unicode="&#xd7;" horiz-adv-x="619" 
d="M536 244l-95 -77l-114 159l-3 8l-202 -167l-57 77l205 163l-7 4l-118 155l94 77l114 -158l3 -9l203 167l57 -77l-205 -163l6 -4z" />
    <glyph glyph-name="exclam" unicode="!" horiz-adv-x="299" 
d="M350 810l-172 -588h-86l118 588h140zM180 79q-10 -40 -36.5 -64.5t-65.5 -24.5q-40 0 -54.5 24.5t-4.5 64.5q10 39 36.5 63.5t65.5 24.5q40 0 54.5 -24.5t4.5 -63.5z" />
    <glyph glyph-name="quotedbl" unicode="&#x22;" horiz-adv-x="429" 
d="M512 840l-101 -309h-72l51 309h122zM314 840l-101 -309h-72l51 309h122z" />
    <glyph glyph-name="numbersign" unicode="#" horiz-adv-x="737" 
d="M762 505h-131l2 -11l-88 -177l-12 -12h104l-25 -100h-130l1 -11l-97 -194h-98l97 194l13 11h-198l1 -11l-97 -194h-98l96 194l14 11h-105l25 100h129l-1 12l90 177l12 11h-105l25 100h129l-1 11l98 194h98l-97 -194l-12 -11h196v12l97 193h98l-97 -193l-11 -12h103z
M548 505h-199l2 -11l-89 -177l-11 -12h196v12l89 177z" />
    <glyph glyph-name="dollar" unicode="$" horiz-adv-x="744" 
d="M656 202q-9 -37 -31.5 -72.5t-58 -64.5t-85.5 -48.5t-115 -25.5q-3 -1 -7.5 -1h-7.5l3 -12l-21 -88h-102l21 88l10 12q-3 0 -7.5 0.5t-7.5 0.5q-72 9 -132 39.5t-100 89.5l110 82q38 -45 73.5 -68t77.5 -31q3 -1 6.5 -1t6.5 -1l-3 13l50 202l9 11q-3 2 -9 3t-8 2
q-7 2 -13 3.5t-10 3.5q-43 13 -77.5 29.5t-57 39t-30.5 53.5t2 73q9 37 32.5 71t60 61.5t86 46.5t110.5 25q4 1 8 1h8l-4 11l22 89h102l-22 -90l-9 -12q6 0 14 -2q126 -18 193 -120l-109 -83q-21 35 -48 57t-65 33q-3 1 -7 1.5t-6 1.5l3 -14l-45 -181l-9 -10q6 -2 14 -4
t11 -3q21 -6 36 -11q91 -29 122.5 -82t15.5 -118zM419 628h-6t-6 -1q-66 -8 -101.5 -35.5t-42.5 -54.5q-6 -26 15 -47.5t85 -41.5q2 -1 5 -1.5t5 -1.5l-2 14l39 156zM534 197q7 26 -11 54t-76 46q0 1 -3.5 2t-4.5 1t-5 1.5t-5 1.5l2 -13l-43 -176l-9 -13q2 1 6 1h6
q66 10 100.5 36.5t42.5 58.5z" />
    <glyph glyph-name="percent" unicode="%" horiz-adv-x="916" 
d="M870 214q-12 -47 -33 -88t-51 -71.5t-69 -48t-85 -17.5t-76 17.5t-45 48t-16 71.5t11 88t33.5 88.5t52 72.5t69 49t83.5 18q46 0 76 -18t45 -49t16 -72.5t-11 -88.5zM785 820l-492 -830h-98l492 830h98zM471 592q-12 -47 -33 -88t-51 -71t-69 -47.5t-85 -17.5t-76 17.5
t-45 47.5t-16.5 71t10.5 88t33.5 88.5t52 73t69.5 49.5t84 18q46 0 75.5 -18t44.5 -49.5t16.5 -73t-10.5 -88.5zM770 214q16 64 6 99t-55 35q-43 0 -71 -34t-45 -100q-32 -130 50 -130q84 0 115 130zM371 592q16 65 6 99.5t-55 34.5q-43 0 -71 -34t-45 -100
q-32 -129 50 -129q42 0 70 31.5t45 97.5z" />
    <glyph glyph-name="ampersand" unicode="&#x26;" horiz-adv-x="782" 
d="M712 0h-146l-28 44l2 12q-50 -33 -112.5 -50.5t-137.5 -17.5q-65 0 -117.5 15t-87 43.5t-48 70.5t0.5 97q10 40 33 74t56 63t74.5 53.5t86.5 45.5l-12 5l-16 28t-14 28q-9 23 -11 49t6 60q10 41 35 77t59.5 63t75.5 42.5t83 15.5t76 -15.5t55 -42t28 -62.5t-3 -78
q-9 -38 -28.5 -68.5t-46.5 -55t-61 -44t-74 -37.5l11 -6q4 -7 14.5 -22.5t23 -35.5t26.5 -41.5t25 -39.5t18.5 -30t8.5 -13l2 -12q10 14 18 35t9 35h122l-6 -23q-4 -16 -12.5 -34.5t-20 -37t-25.5 -35.5t-29 -31l10 -3zM538 618q9 38 -11.5 64t-58.5 26q-40 0 -73 -26
t-43 -65q-3 -14 -1.5 -26.5t6 -24t10.5 -22.5t11 -21q2 -5 6 -12t7 -12l-1 -8q61 25 98.5 52.5t49.5 74.5zM485 141l-12 5l-136 213v12q-3 -2 -9.5 -5t-14 -7t-14.5 -7.5t-10 -5.5q-16 -8 -31 -17t-29 -19q-25 -19 -43 -42t-26 -54q-14 -57 28.5 -86t128.5 -30q104 0 168 43
z" />
    <glyph glyph-name="quotesingle" unicode="'" horiz-adv-x="231" 
d="M314 840l-101 -309h-72l51 309h122z" />
    <glyph glyph-name="parenleft" unicode="(" horiz-adv-x="295" 
d="M169 -191h-99q-21 72 -32 140t-12 135.5t7 135t26 138.5q35 144 104 278t178 271h99q-98 -134 -161 -265t-98 -271q-36 -146 -41.5 -286.5t29.5 -275.5z" />
    <glyph glyph-name="parenright" unicode=")" horiz-adv-x="295" 
d="M274 358q-17 -71 -42.5 -138.5t-60 -135t-79 -135.5t-100.5 -140h-99q102 135 166 275.5t100 286.5q34 140 36 271t-30 265h98q41 -137 44 -271t-33 -278z" />
    <glyph glyph-name="asterisk" unicode="*" horiz-adv-x="572" 
d="M597 602l-38 -79l-145 46l42 -145l-81 -35l-25 152l-101 -153l-64 36l115 144l-168 -45l2 79l168 29l-109 96l65 63l95 -110l32 165h80l-50 -166l149 111l35 -64l-157 -95z" />
    <glyph glyph-name="plus" unicode="+" horiz-adv-x="678" 
d="M606 350h-202l3 -12l-51 -205h-107l50 205l10 12h-203l27 110h203l-4 12l51 206h108l-51 -206l-9 -12h202z" />
    <glyph glyph-name="comma" unicode="," horiz-adv-x="289" 
d="M170 78q-3 -13 -11.5 -29.5t-17.5 -29.5l-137 -205l-54 25l92 139l17 12q-35 5 -47 27.5t-2 60.5q10 40 36 64.5t66 24.5t54 -24.5t4 -64.5z" />
    <glyph glyph-name="hyphen" unicode="-" horiz-adv-x="401" 
d="M370 275h-342l27 110h342z" />
    <glyph glyph-name="period" unicode="." horiz-adv-x="289" 
d="M170 79q-10 -40 -36.5 -64.5t-65.5 -24.5q-40 0 -54 24.5t-5 64.5q10 39 36.5 63.5t66.5 24.5q39 0 53.5 -24.5t4.5 -63.5z" />
    <glyph glyph-name="slash" unicode="/" horiz-adv-x="251" 
d="M464 860l-512 -910h-103l512 910h103z" />
    <glyph glyph-name="zero" unicode="0" horiz-adv-x="772" 
d="M747 400q-22 -91 -61.5 -166.5t-94.5 -129.5t-124.5 -84t-152.5 -30q-82 0 -136.5 30t-83 84t-31 129.5t20.5 166.5q22 91 63 168t97 133t125.5 87.5t149.5 31.5q81 0 135.5 -31.5t82.5 -87.5t30 -133t-20 -168zM626 400q16 64 19.5 120.5t-11 98.5t-48.5 66t-94 24
q-57 0 -102.5 -23.5t-81 -65t-61 -98t-41.5 -122.5q-16 -65 -18.5 -119.5t12.5 -94.5t49.5 -62.5t91.5 -22.5t102.5 21.5t80.5 61t60 94.5t42 122z" />
    <glyph glyph-name="one" unicode="1" horiz-adv-x="424" 
d="M255 0h-119l143 578l28 84h-2l-64 -64l-85 -68l-56 77l253 203h102z" />
    <glyph glyph-name="two" unicode="2" horiz-adv-x="699" 
d="M721 593q-20 -81 -83.5 -140t-188.5 -99l-138 -44q-70 -22 -113.5 -67t-59.5 -108q-1 -3 -3.5 -8t-3.5 -8l-10 -8h481l-28 -111h-587l33 141q10 43 32.5 85t57.5 79t82.5 66.5t106.5 48.5l117 37q47 15 80 30.5t54 32t33 34.5t17 39t2.5 42t-17.5 37.5t-44.5 26.5
t-77.5 10q-65 0 -121.5 -25.5t-112.5 -80.5l-66 85q147 132 328 132q76 0 125.5 -19.5t76.5 -51.5t33 -72.5t-5 -83.5z" />
    <glyph glyph-name="three" unicode="3" horiz-adv-x="727" 
d="M661 230q-11 -44 -39 -86.5t-74.5 -77t-111.5 -55.5t-149 -21q-96 0 -162 33t-110 99l109 85q30 -51 75.5 -78.5t114.5 -27.5q54 0 94 12.5t67.5 31t43 41.5t20.5 44q13 54 -19.5 91.5t-121.5 45.5q-13 1 -35 1.5t-44 1.5q-26 1 -55 1l26 107q29 0 55 1q22 1 43.5 1.5
t32.5 2.5q49 5 84 18t58 30t35 36.5t17 37.5q4 19 1 37.5t-19.5 33t-48.5 23.5t-84 9q-65 0 -122 -25t-111 -74l-67 86q75 64 155 94.5t172 30.5q80 0 132 -18t81 -48t36 -68.5t-3 -79.5q-15 -60 -61.5 -104.5t-112.5 -73.5v-2q63 -21 89 -73.5t9 -122.5z" />
    <glyph glyph-name="four" unicode="4" horiz-adv-x="738" 
d="M674 184h-110l3 -12l-42 -172h-119l42 173l10 11h-442l21 86l592 540h96l-124 -502l-10 -13h111zM485 295l-3 13l57 231l28 88h-2l-66 -65l-235 -215l-63 -50l-1 -2h285z" />
    <glyph glyph-name="five" unicode="5" horiz-adv-x="741" 
d="M683 268q-13 -54 -44 -104t-80 -89t-115.5 -62.5t-150.5 -23.5q-51 0 -91.5 8t-73 26t-59 47.5t-48.5 72.5l104 83q32 -69 79 -97.5t116 -28.5q54 0 96 14.5t71.5 38.5t47.5 54t26 61q7 30 4 60.5t-19.5 54.5t-49 39t-83.5 15q-67 0 -125.5 -24.5t-117.5 -78.5l-59 75
l148 401h500l-27 -111h-410l8 -12l-42 -111l-34 -74l1 -1q46 26 90.5 36.5t95.5 10.5q79 0 131.5 -23t81.5 -62t35.5 -89.5t-6.5 -105.5z" />
    <glyph glyph-name="six" unicode="6" horiz-adv-x="766" 
d="M708 268q-14 -52 -45.5 -102t-80.5 -89.5t-115.5 -63.5t-148.5 -24q-84 0 -140.5 30t-85 84.5t-30.5 130t22 166.5q26 99 72 177t105.5 132t129 82.5t143.5 28.5q46 0 83.5 -7.5t67.5 -22.5t54.5 -38t44.5 -54l-109 -88q-25 51 -65.5 75t-103.5 24q-50 0 -93.5 -18.5
t-80.5 -52t-65.5 -81t-46.5 -105.5h1q46 43 111 69.5t133 26.5q79 0 132 -23t82.5 -62t36.5 -89.5t-8 -105.5zM589 268q7 28 3.5 58t-21.5 55t-51 40.5t-84 15.5q-49 0 -90.5 -15.5t-73 -40.5t-52 -55t-28.5 -59t-3.5 -58.5t22.5 -53.5t51.5 -39.5t83.5 -15.5q48 0 89 15
t72.5 39t52.5 54t29 60z" />
    <glyph glyph-name="seven" unicode="7" horiz-adv-x="678" 
d="M756 718l-290 -283q-59 -58 -96 -126.5t-60 -160.5l-37 -148h-119l38 154q13 54 30.5 100t40.5 87.5t53 79.5t69 76l137 135l79 65v2h-468l27 111h619z" />
    <glyph glyph-name="eight" unicode="8" horiz-adv-x="769" 
d="M703 234q-11 -44 -41.5 -87.5t-80 -78.5t-117 -56.5t-151.5 -21.5t-140.5 21.5t-89 56.5t-42 78.5t1.5 87.5q17 69 69.5 118.5t128.5 78.5v2q-46 23 -70.5 64.5t-9.5 102.5q10 42 37 82t71 70.5t105.5 49t141.5 18.5t133 -18.5t82 -49t36.5 -70.5t-2.5 -82
q-7 -30 -23 -55t-37.5 -46t-48 -37.5t-55.5 -29.5l-1 -2q61 -23 91 -74t12 -122zM642 594q4 19 0.5 39t-20 36.5t-48 27.5t-83.5 11t-89.5 -11t-62.5 -27.5t-39 -36.5t-18 -39q-5 -18 0.5 -38.5t22.5 -38.5t48 -29.5t79 -11.5t85 12t63.5 29.5t41.5 38t20 38.5zM582 236
q7 27 -0.5 52t-29.5 45t-58 32t-87 12q-50 0 -91.5 -12t-72.5 -32t-51 -45t-27 -52q-5 -21 1 -44.5t26.5 -43.5t56.5 -33.5t91 -13.5t97.5 13.5t73 33.5t48.5 43.5t23 44.5z" />
    <glyph glyph-name="nine" unicode="9" horiz-adv-x="766" 
d="M743 409q-26 -99 -71.5 -177t-104 -132t-128 -82.5t-142.5 -28.5q-94 0 -155 29t-103 95l108 88q26 -53 70.5 -77t107.5 -24q49 0 92.5 18.5t79.5 52t64 81t47 105.5h-2q-46 -43 -111 -69t-133 -26q-78 0 -131.5 23t-83 61.5t-36.5 89t8 106.5q14 52 46 102t81 89t115 63
t149 24q84 0 140 -30t84.5 -84.5t30.5 -130t-22 -166.5zM635 543q7 28 3 57.5t-22 53.5t-51.5 39.5t-83.5 15.5q-48 0 -88.5 -15t-72 -39t-52.5 -54t-29 -60q-8 -28 -4 -58t21.5 -54.5t51 -40.5t84.5 -16q49 0 90 15.5t72.5 40.5t52 55.5t28.5 59.5z" />
    <glyph glyph-name="colon" unicode=":" horiz-adv-x="299" 
d="M289 521q-10 -40 -36.5 -64.5t-65.5 -24.5q-40 0 -54 24.5t-4 64.5t36 64.5t66 24.5t54 -24.5t4 -64.5zM180 79q-10 -40 -36.5 -64.5t-65.5 -24.5q-40 0 -54.5 24.5t-4.5 64.5q10 39 36.5 63.5t65.5 24.5q40 0 54.5 -24.5t4.5 -63.5z" />
    <glyph glyph-name="semicolon" unicode=";" horiz-adv-x="299" 
d="M289 521q-10 -40 -36.5 -64.5t-65.5 -24.5q-40 0 -54 24.5t-4 64.5t36 64.5t66 24.5t54 -24.5t4 -64.5zM180 78q-3 -13 -11.5 -29.5t-17.5 -29.5l-137 -205l-54 25l92 139l17 12q-35 5 -47 27.5t-3 60.5q10 40 36.5 64.5t66.5 24.5q39 0 53.5 -24.5t4.5 -64.5z" />
    <glyph glyph-name="less" unicode="&#x3c;" horiz-adv-x="519" 
d="M406 184l-97 -79l-224 300l372 300l58 -79l-218 -176l-65 -45l21 -23l38 -43z" />
    <glyph glyph-name="equal" unicode="=" horiz-adv-x="678" 
d="M635 465h-500l27 110h500zM578 235h-500l27 110h500z" />
    <glyph glyph-name="greater" unicode="&#x3e;" horiz-adv-x="519" 
d="M495 405l-371 -300l-59 79l219 176l65 44l-22 24l-37 43l-116 155l98 79z" />
    <glyph glyph-name="question" unicode="?" horiz-adv-x="662" 
d="M688 606q-9 -34 -27 -64t-43 -54t-56 -42.5t-64 -30.5l-41 -15q-31 -11 -50.5 -22t-33 -27t-22 -39t-16.5 -56l-8 -34h-119l10 43q11 44 26 80t40 65.5t63.5 53.5t96.5 44l25 8q47 17 68 38t29 52q4 17 -1.5 35.5t-20.5 33.5t-39 25t-57 10q-64 0 -116 -25t-107 -80
l-70 83q74 66 152 99t169 33q62 0 106.5 -19t71 -49.5t35 -69t-0.5 -76.5zM312 79q-10 -40 -36.5 -64.5t-65.5 -24.5q-40 0 -54 24.5t-4 64.5q10 39 36 63.5t66 24.5t54 -24.5t4 -63.5z" />
    <glyph glyph-name="at" unicode="@" horiz-adv-x="980" 
d="M951 444q-12 -48 -40.5 -98.5t-68.5 -92t-89.5 -68t-104.5 -26.5q-37 0 -61 17t-34 46h-2q-38 -31 -81.5 -47.5t-83.5 -16.5q-44 0 -72 17t-42 45.5t-15 64.5t8 74q12 50 43 100t74 90.5t95.5 65.5t107.5 25q29 0 54.5 -14t34.5 -34h2l21 37h99l-132 -258
q-19 -37 -30 -77q-5 -21 8 -35.5t35 -14.5q36 0 67 19t54.5 48t40 64t24.5 67q16 66 5.5 125.5t-42.5 104.5t-83.5 71t-117.5 26q-72 0 -142 -28.5t-129.5 -76.5t-103 -112.5t-61.5 -136.5q-19 -76 -8.5 -142t45 -115.5t92 -78t132.5 -28.5q49 0 101 16t103 46l44 -56
q-63 -40 -131.5 -61.5t-130.5 -21.5q-95 0 -167.5 33t-117 92.5t-58.5 141t10 178.5q22 88 76.5 166t128.5 135.5t160.5 91t173.5 33.5q82 0 148.5 -31t109.5 -85t57.5 -127t-6.5 -158zM609 444q5 22 6.5 42.5t-4 36t-19 25t-37.5 9.5q-32 0 -62.5 -18t-55.5 -45.5
t-43 -60.5t-25 -62q-7 -26 -8.5 -49t4.5 -40t20.5 -26.5t39.5 -9.5q33 0 63 18.5t54 47t41.5 64t25.5 68.5z" />
    <glyph glyph-name="A" unicode="A" horiz-adv-x="872" 
d="M788 0h-130l-37 188l9 11h-428l4 -11l-130 -188h-130l563 810h116zM603 310l-10 12l-55 275l-4 74h-2l-41 -73l-192 -276l-15 -12h319z" />
    <glyph glyph-name="B" unicode="B" horiz-adv-x="804" 
d="M748 235q-27 -109 -115 -172t-225 -63h-388l200 810h379q65 0 108.5 -18.5t67.5 -49t30 -71t-5 -85.5q-14 -54 -43 -92.5t-80 -67.5l-1 -2q53 -22 71 -72t1 -117zM678 587q14 56 -13.5 84t-102.5 28h-263l9 -12l-50 -203l-15 -12h263q41 0 70.5 9t50 24.5t33 36.5
t18.5 45zM626 235q14 58 -15 92t-114 34h-281l9 -12l-56 -226l-15 -12h282q88 0 132 32.5t58 91.5z" />
    <glyph glyph-name="C" unicode="C" horiz-adv-x="802" 
d="M873 692l-108 -86q-27 50 -73.5 76.5t-125.5 26.5q-75 0 -134.5 -24t-104.5 -66t-75 -98.5t-46 -120.5q-16 -63 -13.5 -117.5t26.5 -95t72 -63.5t124 -23q79 0 139 26t112 77l65 -85q-73 -64 -158 -96.5t-186 -32.5q-100 0 -168 29.5t-105.5 83.5t-45 129.5t15.5 167.5
q22 92 68 169t111 133t148.5 87t181.5 31q102 0 170 -32.5t110 -95.5z" />
    <glyph glyph-name="D" unicode="D" horiz-adv-x="840" 
d="M816 405q-12 -48 -29.5 -96t-43.5 -93t-62 -84.5t-85 -68.5t-112.5 -46t-143.5 -17h-320l200 810h315q81 0 136.5 -17t90.5 -46t52.5 -68.5t21.5 -84.5t-2 -93t-18 -96zM694 405q15 60 18.5 113t-15.5 93.5t-65.5 64t-133.5 23.5h-199l9 -12l-139 -564l-15 -12h204
q85 0 142.5 23.5t95.5 63.5t60.5 93.5t37.5 113.5z" />
    <glyph glyph-name="E" unicode="E" horiz-adv-x="772" 
d="M634 0h-614l200 810h614l-28 -111h-507l9 -12l-53 -214l-15 -13h460l-28 -110h-459l9 -12l-53 -215l-15 -12h507z" />
    <glyph glyph-name="F" unicode="F" horiz-adv-x="713" 
d="M786 699h-487l9 -12l-58 -234l-14 -12h439l-27 -111h-440l9 -12l-78 -318h-119l200 810h594z" />
    <glyph glyph-name="G" unicode="G" horiz-adv-x="901" 
d="M742 0h-102l26 104h-1q-53 -52 -126.5 -83t-153.5 -31q-96 0 -164 28.5t-106.5 81.5t-46.5 128.5t15 168.5q24 96 70.5 174t112.5 133.5t149.5 85.5t180.5 30q43 0 84.5 -6.5t79 -20.5t69.5 -38t55 -58l-108 -86q-15 28 -37.5 47t-49.5 30t-57.5 16t-62.5 5
q-73 0 -132.5 -21.5t-105 -62t-77 -98t-49.5 -130.5q-17 -69 -14 -124t28.5 -93.5t73.5 -58.5t120 -20q54 0 103 18t89 50t69 75.5t43 94.5l15 11h-273l27 111h370z" />
    <glyph glyph-name="H" unicode="H" horiz-adv-x="861" 
d="M703 0h-119l83 337l15 12h-469l9 -12l-83 -337h-119l200 810h119l-84 -338l-15 -12h470l-9 12l83 338h119z" />
    <glyph glyph-name="I" unicode="I" horiz-adv-x="307" 
d="M144 0h-119l200 810h118z" />
    <glyph glyph-name="J" unicode="J" horiz-adv-x="630" 
d="M551 300q-21 -87 -60.5 -146t-89.5 -95.5t-108 -52.5t-117 -16q-73 0 -129 33t-88 92l104 85q23 -47 61 -73t80 -26q33 0 67.5 9.5t65 32t55.5 59.5t39 93l127 515h119z" />
    <glyph glyph-name="K" unicode="K" horiz-adv-x="785" 
d="M716 0h-173l-294 409l485 400h169l-496 -399l-1 -2zM139 0h-119l200 810h119z" />
    <glyph glyph-name="L" unicode="L" horiz-adv-x="671" 
d="M587 0h-567l200 810h119l-170 -687l-15 -12h460z" />
    <glyph glyph-name="M" unicode="M" horiz-adv-x="990" 
d="M831 0h-119l136 548h-2l-70 -107l-352 -452h-3l-130 455l-15 103h-2l-135 -547h-119l200 810h102v0l140 -504l15 -96h2l63 96l389 504h100z" />
    <glyph glyph-name="N" unicode="N" horiz-adv-x="861" 
d="M703 0h-105l-273 524l-32 92h-2l-152 -616h-119l200 810h104l274 -525l32 -91h2l152 616h119z" />
    <glyph glyph-name="O" unicode="O" horiz-adv-x="885" 
d="M860 400q-23 -92 -66.5 -167.5t-106.5 -129.5t-143 -83.5t-174 -29.5q-95 0 -160 29.5t-100.5 83.5t-42 129.5t16.5 167.5q22 91 66 168.5t106.5 133t143 87t175.5 31.5q96 0 161 -31t100.5 -87t41 -133t-17.5 -169zM738 400q16 63 15 119t-22.5 98.5t-66 67t-116.5 24.5
q-71 0 -127.5 -24t-99 -65.5t-71 -98t-44.5 -121.5q-16 -63 -14.5 -118t24 -95t67 -63t115.5 -23q72 0 128 23t98 63t70.5 95t43.5 118z" />
    <glyph glyph-name="P" unicode="P" horiz-adv-x="789" 
d="M812 556q-13 -54 -43 -100.5t-73.5 -81t-100 -54t-123.5 -19.5h-271l9 -12l-71 -289h-119l200 810h378q66 0 113 -19t74 -52.5t34 -80.5t-7 -102zM691 556q16 64 -12 103.5t-108 39.5h-272l9 -12l-65 -263l-15 -12h271q81 0 128.5 40.5t63.5 103.5z" />
    <glyph glyph-name="Q" unicode="Q" horiz-adv-x="885" 
d="M788 -1l-94 -75l-91 123q-51 -28 -109 -42.5t-124 -14.5q-95 0 -160 30t-100.5 84.5t-41.5 130.5t17 168q22 91 66 167.5t106.5 132t142.5 86.5t175 31q96 0 161 -31t100.5 -86t41 -132t-16.5 -168q-44 -176 -160 -286zM739 403q16 63 15 118.5t-23 97.5t-66.5 66
t-116.5 24q-71 0 -127 -23.5t-98.5 -65t-71.5 -97.5t-45 -120q-15 -64 -13.5 -119t23.5 -95.5t66.5 -64t115.5 -23.5t129 26l17 -1l-86 116l93 76l91 -122l4 16q34 38 56.5 86.5t36.5 104.5z" />
    <glyph glyph-name="R" unicode="R" horiz-adv-x="811" 
d="M737 0h-134l-50 214q-14 57 -52 83.5t-114 26.5h-180l9 -11l-77 -313h-119l200 810h364q56 0 103.5 -15t78.5 -45.5t42.5 -76.5t-3.5 -107q-9 -37 -29 -69.5t-47.5 -59t-59.5 -46t-65 -29.5l-1 -2q22 -11 42 -35.5t28 -61.5zM683 566q9 36 3.5 61.5t-22.5 41t-44.5 23
t-63.5 7.5h-257l9 -12l-59 -239l-15 -13h246q85 0 137 37t66 94z" />
    <glyph glyph-name="S" unicode="S" horiz-adv-x="790" 
d="M727 225q-11 -44 -39.5 -86.5t-76.5 -75.5t-116 -53t-158 -20q-49 0 -96.5 8t-89.5 24.5t-78 43t-61 62.5l110 86q27 -31 53.5 -52.5t55.5 -35t60.5 -19.5t68.5 -6q55 0 98 9.5t73.5 26t48.5 37.5t24 45q8 34 -17 66.5t-100 53.5q-6 2 -26 7.5t-43 12t-43 12t-26 7.5
q-51 15 -93 33.5t-69.5 43.5t-38 59t1.5 81q11 44 41 85t78 72t114 49.5t149 18.5q99 0 171.5 -33.5t117.5 -96.5l-109 -87q-29 51 -79.5 78.5t-127.5 27.5q-56 0 -97.5 -9.5t-69.5 -25t-44 -35.5t-21 -40q-5 -19 1 -34t24.5 -28.5t50.5 -26.5t80 -27q6 -2 23 -6.5
t36.5 -10.5t37 -11l24.5 -7q113 -31 154 -90t23 -133z" />
    <glyph glyph-name="T" unicode="T" 
d="M806 699h-288l3 -12l-170 -687h-118l169 687l10 12h-289l27 111h684z" />
    <glyph glyph-name="U" unicode="U" horiz-adv-x="873" 
d="M812 372q-46 -185 -156.5 -283.5t-290.5 -98.5t-242.5 98t-15.5 284l108 438h119l-108 -437q-16 -64 -16.5 -114.5t18.5 -85.5t59 -53.5t105 -18.5q64 0 113 18.5t85.5 53.5t61.5 85.5t41 114.5l108 437h119z" />
    <glyph glyph-name="V" unicode="V" horiz-adv-x="840" 
d="M956 810l-547 -810h-116l-148 810h133l102 -593l5 -80h2l44 80l394 593h131z" />
    <glyph glyph-name="W" unicode="W" horiz-adv-x="1066" 
d="M1172 810l-421 -810h-142l-9 490l7 92h-2l-38 -92l-251 -490h-140l-21 810h127l10 -577l-7 -82h2l35 82l296 577h92l13 -577l-7 -81h2l33 81l296 577h125z" />
    <glyph glyph-name="X" unicode="X" horiz-adv-x="796" 
d="M707 0h-150l-118 238l-31 82h-2l-71 -82l-236 -238h-149l405 406l-204 404h151l119 -240l29 -76h2l65 76l240 240h148l-402 -404z" />
    <glyph glyph-name="Y" unicode="Y" horiz-adv-x="831" 
d="M947 810l-457 -472l-83 -338h-120l83 338l-225 472h150l129 -284l30 -87h2l72 88l271 283h148z" />
    <glyph glyph-name="Z" unicode="Z" horiz-adv-x="802" 
d="M673 0h-683l23 94l583 535l87 68v2h-510l27 111h668l-23 -93l-579 -534l-87 -70l-1 -2h523z" />
    <glyph glyph-name="bracketleft" unicode="[" horiz-adv-x="291" 
d="M160 -190h-217l271 1097h217l-23 -93h-120l-225 -910h120z" />
    <glyph glyph-name="backslash" unicode="\" horiz-adv-x="331" 
d="M279 -50h-103l-63 910h103z" />
    <glyph glyph-name="bracketright" unicode="]" horiz-adv-x="292" 
d="M116 -190h-217l23 94h120l225 910h-121l23 93h218z" />
    <glyph glyph-name="asciicircum" unicode="^" horiz-adv-x="679" 
d="M638 415h-122l-63 205l-12 65h-2l-45 -65l-164 -205h-123l320 395h86z" />
    <glyph glyph-name="underscore" unicode="_" horiz-adv-x="666" 
d="M561 -185h-686l25 102h687z" />
    <glyph glyph-name="grave" unicode="`" horiz-adv-x="713" 
d="M592 743l-59 -48l-162 178l96 78z" />
    <glyph glyph-name="a" unicode="a" horiz-adv-x="745" 
d="M587 0h-116l16 62h-2q-83 -72 -206 -72q-74 0 -124 24t-76 67t-30 102t13 129q18 71 51 131t81 104t109.5 68.5t135.5 24.5q58 0 102 -21t67 -56h2l17 67h116zM557 313q12 48 11.5 88.5t-15.5 70t-47 46t-84 16.5q-51 0 -91 -17t-70 -46.5t-50.5 -70t-32.5 -87.5
t-11.5 -87t16.5 -69t48 -45.5t83 -16.5t91 16.5t70 45.5t50 69t32 87z" />
    <glyph glyph-name="b" unicode="b" horiz-adv-x="746" 
d="M699 313q-17 -70 -50 -129.5t-81 -102.5t-109.5 -67t-135.5 -24q-123 0 -170 72h-2l-15 -62h-116l207 840h116l-68 -277h2q42 37 94.5 57t112.5 20q75 0 124.5 -24.5t75.5 -68.5t29.5 -104t-14.5 -130zM583 313q12 47 11.5 87.5t-15.5 70t-47 46.5t-83 17
q-52 0 -92 -16.5t-70 -46t-50 -70t-32 -88.5q-12 -47 -11.5 -87t16 -69t47.5 -45.5t83 -16.5t91 16.5t70 45.5t50 69t32 87z" />
    <glyph glyph-name="c" unicode="c" horiz-adv-x="635" 
d="M557 85q-63 -51 -128.5 -73t-137.5 -22q-78 0 -130 24.5t-79.5 67.5t-32 101.5t12.5 126.5q17 69 52.5 129.5t86 105t114.5 70t138 25.5q77 0 129.5 -22t85.5 -66l-97 -77q-22 30 -58.5 45t-84.5 15q-49 0 -90 -18t-73 -48.5t-54 -71.5t-34 -87q-11 -44 -9.5 -83.5
t17.5 -68.5t48.5 -46t83.5 -17q49 0 93 15t89 52z" />
    <glyph glyph-name="d" unicode="d" horiz-adv-x="746" 
d="M587 0h-116l16 62h-2q-83 -72 -206 -72q-74 0 -124 24t-76 67t-30 102t13 129q18 71 51 131t81 104t109.5 68.5t135.5 24.5q58 0 102 -21t67 -56h2l69 277h116zM557 313q12 48 11.5 88.5t-15.5 70t-47 46t-84 16.5q-51 0 -91 -17t-70 -46.5t-50.5 -70t-32.5 -87.5
t-11.5 -87t16.5 -69t48 -45.5t83 -16.5t91 16.5t70 45.5t50 69t32 87z" />
    <glyph glyph-name="e" unicode="e" 
d="M676 310q-3 -11 -6.5 -22.5t-7.5 -23.5h-503l9 -12q-5 -74 32 -116t122 -42q95 0 187 71l59 -80q-65 -49 -132.5 -72t-139.5 -23q-80 0 -133 24.5t-81 67.5t-32.5 101.5t12.5 126.5q18 72 53.5 132.5t85.5 104.5t113.5 68.5t137.5 24.5q78 0 129 -25t78 -69.5t30.5 -105
t-13.5 -130.5zM580 366l-9 12q4 72 -30 115t-114 43q-83 0 -138.5 -44t-87.5 -114l-16 -12h395z" />
    <glyph glyph-name="f" unicode="f" horiz-adv-x="428" 
d="M171 529h-80l25 101h80l-3 12q0 1 0.5 4t1.5 4q24 94 90 144.5t166 50.5q55 0 92 -16l-25 -104q-17 8 -39.5 12.5t-43.5 4.5q-52 0 -83.5 -26.5t-42.5 -73.5l-9 -12l194 -1l-25 -100h-194l3 -12l-128 -517q-27 -104 -92.5 -159.5t-162.5 -55.5q-31 0 -54 5t-50 16l28 111
q26 -14 48.5 -19.5t42.5 -5.5q51 0 81 26t44 85l127 514z" />
    <glyph glyph-name="g" unicode="g" horiz-adv-x="746" 
d="M743 630l-141 -570q-32 -131 -123 -203t-240 -72q-75 0 -135 21t-111 69l99 80q32 -31 78.5 -48t94.5 -17q91 0 146 44.5t75 125.5l13 52h-2q-86 -70 -205 -70q-74 0 -124.5 21.5t-78 61t-32.5 94t12 120.5q15 61 47.5 116t79.5 96t108.5 65t135.5 24q57 0 102 -19.5
t67 -54.5h2l16 64h116zM563 339q10 43 7 79t-20.5 62t-50 40.5t-79.5 14.5q-48 0 -87 -15t-68.5 -41.5t-49.5 -62t-30 -77.5q-22 -86 12.5 -139t126.5 -53q51 0 91 14.5t69.5 40t49 61t29.5 76.5z" />
    <glyph glyph-name="h" unicode="h" horiz-adv-x="746" 
d="M690 397l-98 -397h-116l94 382q8 32 9 60t-12 48.5t-41.5 32.5t-78.5 12q-38 0 -73.5 -11t-64.5 -32t-50.5 -52t-31.5 -71l-91 -369h-116l207 840h116l-69 -278h2q42 37 98.5 57.5t111.5 20.5q66 0 111.5 -18t70.5 -50t30 -76.5t-8 -98.5z" />
    <glyph glyph-name="i" unicode="i" horiz-adv-x="294" 
d="M338 772q-8 -32 -31.5 -53t-55.5 -21q-33 0 -46 21t-5 53t31.5 53t55.5 21t45.5 -21t5.5 -53zM136 0h-116l155 630h116z" />
    <glyph glyph-name="j" unicode="j" horiz-adv-x="294" 
d="M338 772q-8 -32 -31.5 -53t-55.5 -21q-33 0 -46 21t-5 53t31.5 53t55.5 21t45.5 -21t5.5 -53zM126 -42q-22 -89 -78 -131t-138 -42q-23 0 -45 5t-41 15l27 109q18 -11 39 -15.5t41 -4.5q29 0 50.5 19t31.5 56l163 661h116z" />
    <glyph glyph-name="k" unicode="k" horiz-adv-x="677" 
d="M607 0h-151l-232 318l376 312h152l-385 -309l-1 -2zM136 0h-116l207 840h116z" />
    <glyph glyph-name="l" unicode="l" horiz-adv-x="294" 
d="M136 0h-116l207 840h116z" />
    <glyph glyph-name="m" unicode="m" horiz-adv-x="1019" 
d="M958 372l-92 -372h-117l86 349q10 42 15 76.5t-1 59t-25.5 37.5t-58.5 13q-33 0 -61.5 -13t-50 -34.5t-37 -50.5t-22.5 -60l-93 -377h-117l92 372q9 37 12 67t-4.5 51.5t-27 33t-55.5 11.5q-29 0 -56 -12t-50 -33t-40 -50t-26 -64l-93 -376h-116l155 630h117l-16 -63h2
q34 33 80 53t91 20q60 0 98 -30t49 -75h2q19 22 44 41.5t52 33.5t56 22t58 8q109 0 145.5 -68.5t4.5 -199.5z" />
    <glyph glyph-name="n" unicode="n" horiz-adv-x="746" 
d="M691 398l-99 -398h-116l94 380q9 34 9.5 62.5t-12 49t-41.5 32t-79 11.5q-38 0 -73.5 -10.5t-64.5 -31t-50.5 -51t-31.5 -70.5l-91 -372h-116l155 630h116l-17 -68h2q42 36 98.5 57t112.5 21q61 0 105.5 -16t71.5 -47t34 -76t-7 -103z" />
    <glyph glyph-name="o" unicode="o" 
d="M677 315q-17 -69 -51 -128.5t-83.5 -103t-113.5 -68.5t-140 -25q-77 0 -128.5 24.5t-79 68t-31.5 103t13 129.5t51 129.5t83 103t112 68t140 24.5t129 -24.5t79.5 -67.5t32 -103t-12.5 -130zM561 315q12 47 10.5 87t-17.5 69.5t-48 46.5t-82 17q-51 0 -91 -16.5
t-70.5 -46t-51 -70t-32.5 -87.5t-10.5 -87t17.5 -69.5t48 -46.5t82 -17t90.5 17t71 46.5t51 69.5t32.5 87z" />
    <glyph glyph-name="p" unicode="p" horiz-adv-x="746" 
d="M700 315q-18 -71 -51 -130.5t-80.5 -102.5t-109 -67.5t-136.5 -24.5q-59 0 -102 18.5t-67 56.5h-2l-68 -275h-116l207 840h116l-16 -65h2q40 35 93.5 55t113.5 20q74 0 123.5 -24.5t75.5 -68t30 -103t-13 -129.5zM584 313q12 47 11.5 87.5t-16 70.5t-47.5 47t-83 17
t-91 -17t-70 -47t-50.5 -70.5t-32.5 -87.5q-12 -48 -11.5 -88t16 -69t47.5 -45t83 -16t91 16.5t70 45.5t50.5 69t32.5 87z" />
    <glyph glyph-name="q" unicode="q" horiz-adv-x="746" 
d="M535 -210h-115l67 275h-2q-43 -38 -95 -56.5t-111 -18.5q-75 0 -124.5 24.5t-76 67.5t-30 102.5t14.5 130.5q17 70 50.5 129.5t81 103t109 68t135.5 24.5q60 0 103.5 -20t66.5 -55h2l16 65h116zM557 313q12 47 11.5 87.5t-16 70.5t-47.5 47t-83 17t-91.5 -17t-70.5 -47
t-50 -70.5t-32 -87.5t-11 -87t16.5 -69t47.5 -45.5t83 -16.5t91 16t70 45t50 69t32 88z" />
    <glyph glyph-name="r" unicode="r" horiz-adv-x="445" 
d="M484 518h-36q-39 0 -75.5 -11t-67.5 -36t-55 -64.5t-38 -95.5l-76 -311h-116l155 630h116l-25 -101h2q40 52 98 80t120 28h27z" />
    <glyph glyph-name="s" unicode="s" horiz-adv-x="654" 
d="M574 178q-9 -36 -32 -70.5t-61.5 -60.5t-92 -42t-122.5 -16q-37 0 -73.5 6t-69.5 19.5t-62 34.5t-51 52l100 81q22 -25 42.5 -42t42.5 -27t45 -14.5t49 -4.5q41 0 71 7.5t50 19t31.5 25.5t15.5 28q3 12 1.5 22t-10 19.5t-26 18.5t-47.5 17q-5 1 -19.5 5.5t-32 9.5
t-32.5 9.5t-19 6.5q-38 11 -71 25.5t-55 35.5t-30.5 49t0.5 67q9 37 33.5 69.5t63 57.5t90.5 39.5t116 14.5q75 0 132.5 -26t96.5 -81l-100 -80q-26 42 -63.5 62t-91.5 20q-40 0 -68.5 -7.5t-48 -18.5t-29.5 -23.5t-13 -23.5q-6 -26 19 -42t91 -35q4 -2 17.5 -6t28.5 -9
t28.5 -9t18.5 -5q89 -26 121.5 -69.5t15.5 -108.5z" />
    <glyph glyph-name="t" unicode="t" horiz-adv-x="489" 
d="M426 65q-60 -39 -108.5 -57t-99.5 -18q-90 0 -126 54t-12 151l79 322l10 12h-78l25 101h78l-4 12l23 93l131 63l-38 -156l-9 -12h196l-25 -101h-196l3 -12l-80 -323q-12 -50 3 -74.5t51 -24.5q29 0 55.5 10.5t62.5 37.5z" />
    <glyph glyph-name="u" unicode="u" horiz-adv-x="738" 
d="M579 0h-116l17 68h-2q-44 -38 -97 -58t-109 -20q-68 0 -113 17.5t-68.5 50t-27 79t10.5 104.5l97 389h115l-94 -385q-8 -32 -9.5 -59.5t10.5 -47.5t40.5 -31.5t78.5 -11.5q37 0 72 10.5t63.5 31t49 51t30.5 70.5l92 372h116z" />
    <glyph glyph-name="v" unicode="v" horiz-adv-x="669" 
d="M745 630l-422 -630h-116l-111 630h129l65 -416l6 -82h2l47 82l271 416h129z" />
    <glyph glyph-name="w" unicode="w" horiz-adv-x="906" 
d="M978 630l-341 -630h-126l-25 350l7 84h-2l-37 -84l-199 -350h-126l-28 630h122l15 -410l-7 -79h2l32 79l226 410h97l24 -410l-6 -79h2l32 79l217 410h121z" />
    <glyph glyph-name="x" unicode="x" horiz-adv-x="650" 
d="M561 0h-144l-85 175l-18 56h-2l-46 -56l-172 -175h-144l313 316l-155 314h144l82 -169l20 -59h2l50 59l166 169h142l-309 -314z" />
    <glyph glyph-name="y" unicode="y" horiz-adv-x="693" 
d="M764 630l-460 -695q-46 -69 -105.5 -109.5t-123.5 -40.5q-36 0 -66 6.5t-56 22.5l27 112q29 -18 56.5 -25.5t53.5 -7.5q34 0 68.5 27t72.5 86l-130 624h129l81 -417l7 -85h2l48 85l267 417h129z" />
    <glyph glyph-name="z" unicode="z" horiz-adv-x="671" 
d="M542 0h-552l21 87l421 376l79 58l1 1h-386l27 107h540l-20 -82l-424 -377l-84 -62l1 -1h402z" />
    <glyph glyph-name="braceleft" unicode="{" horiz-adv-x="345" 
d="M218 -196h-47q-19 0 -37 0.5t-25 2.5q-34 4 -52.5 20t-25 39t-4.5 51.5t10 59.5l56 227q5 20 6.5 38t-3 32t-16.5 23.5t-33 13.5l24 96q42 8 64 33t32 65l58 236q8 31 20 59.5t30 51.5t44 38.5t62 20.5q8 1 26.5 2t37.5 1h47l-22 -89h-15.5t-14.5 -1q-32 -1 -52 -6
t-33 -15.5t-21 -27.5t-14 -42l-56 -227q-7 -28 -15 -49.5t-20.5 -38.5t-30.5 -31.5t-45 -27.5q24 -15 35.5 -29t14.5 -30.5t-0.5 -38t-10.5 -51.5l-56 -225q-6 -25 -7 -42t7 -27.5t26 -15.5t49 -6q3 -1 14 -1h15z" />
    <glyph glyph-name="bar" unicode="|" horiz-adv-x="331" 
d="M135 -50h-103l225 910h103z" />
    <glyph glyph-name="braceright" unicode="}" horiz-adv-x="345" 
d="M313 311q-47 -8 -67.5 -37t-31.5 -70l-55 -227q-8 -31 -20 -59.5t-30 -51.5t-44 -39t-62 -20q-8 -2 -26 -2.5t-37 -0.5h-48l22 89h15t15 1q31 1 51.5 6t33.5 15.5t21 27.5t14 42l55 225q7 30 14 51.5t18.5 38t30 30.5t49.5 29q-20 13 -31 27.5t-15 31.5t-2 38.5t9 49.5
l56 227q6 25 7 42t-6.5 27.5t-26 15.5t-49.5 6q-3 1 -13.5 1h-15.5l22 89h47q19 0 36.5 -1t25.5 -2q34 -5 52.5 -20.5t25 -38.5t4 -51.5t-9.5 -59.5l-58 -236q-10 -40 0 -65t48 -33z" />
    <glyph glyph-name="asciitilde" unicode="~" horiz-adv-x="588" 
d="M577 355q-30 -54 -82 -87.5t-111 -33.5q-29 0 -53.5 13t-47 28t-45 28t-47.5 13q-35 0 -63 -25t-46 -60l-49 65q13 24 33.5 46.5t45.5 39t54 26.5t59 10q29 0 54 -13t48.5 -28.5t45 -28.5t44.5 -13q37 0 65.5 26t45.5 60z" />
    <glyph glyph-name="DEL" horiz-adv-x="990" 
 />
    <glyph glyph-name="Adieresis" unicode="&#xc4;" horiz-adv-x="872" 
d="M793 971q-8 -32 -29.5 -51.5t-52.5 -19.5q-32 0 -43.5 19.5t-3.5 51.5t29 51.5t53 19.5t43.5 -19.5t3.5 -51.5zM551 971q-8 -32 -29 -51.5t-53 -19.5t-43.5 19.5t-3.5 51.5t29 51.5t53 19.5t43.5 -19.5t3.5 -51.5zM788 0h-130l-37 188l9 11h-428l4 -11l-130 -188h-130
l563 810h116zM603 310l-10 12l-55 275l-4 74h-2l-41 -73l-192 -276l-15 -12h319z" />
    <glyph glyph-name="Aring" unicode="&#xc5;" horiz-adv-x="872" 
d="M724 992q-12 -51 -48.5 -84t-92.5 -33t-76 33.5t-7 83.5q12 50 48 83t92 33q57 0 77 -32.5t7 -83.5zM788 0h-130l-37 188l9 11h-428l4 -11l-130 -188h-130l563 810h116zM663 992q6 24 -2.5 40t-34.5 16q-27 0 -43 -15.5t-22 -40.5t2.5 -41t34.5 -16t42.5 16t22.5 41z
M603 310l-10 12l-55 275l-4 74h-2l-41 -73l-192 -276l-15 -12h319z" />
    <glyph glyph-name="Ccedilla" unicode="&#xc7;" horiz-adv-x="802" 
d="M873 692l-108 -86q-27 50 -73.5 76.5t-125.5 26.5q-75 0 -134.5 -24t-104.5 -66t-75 -98.5t-46 -120.5q-16 -63 -13.5 -117.5t26.5 -95t72 -63.5t124 -23q79 0 139 26t112 77l65 -85q-67 -59 -144 -91t-168 -37l11 -13q17 -20 11 -46t-35 -50l-112 -90l-41 55l81 66
q26 21 29 33t-5 23l-17 23q-87 7 -146 39t-90.5 85.5t-36.5 125.5t16 158q22 92 68 169t111 133t148.5 87t181.5 31q102 0 170 -32.5t110 -95.5z" />
    <glyph glyph-name="Eacute" unicode="&#xc9;" horiz-adv-x="772" 
d="M747 1052l-250 -178l-35 48l227 207zM634 0h-614l200 810h614l-28 -111h-507l9 -12l-53 -214l-15 -13h460l-28 -110h-459l9 -12l-53 -215l-15 -12h507z" />
    <glyph glyph-name="Ntilde" unicode="&#xd1;" horiz-adv-x="861" 
d="M837 988q-14 -25 -33.5 -45.5t-42.5 -35.5t-48 -23.5t-49 -8.5q-27 0 -49 12.5t-42 26.5q-10 8 -19.5 14t-19.5 11q-20 11 -39 11q-26 0 -52.5 -19t-48.5 -57l-39 52q10 21 28.5 41t41 36t48.5 26t52 10q27 0 50 -12.5t43 -27.5q11 -7 20.5 -13.5t19.5 -11.5
q20 -10 36 -10q29 0 56 20t47 57zM703 0h-105l-273 524l-32 92h-2l-152 -616h-119l200 810h104l274 -525l32 -91h2l152 616h119z" />
    <glyph glyph-name="Odieresis" unicode="&#xd6;" horiz-adv-x="885" 
d="M797 971q-8 -32 -29 -51.5t-53 -19.5t-43 19.5t-3 51.5t28.5 51.5t52.5 19.5t43.5 -19.5t3.5 -51.5zM555 971q-8 -32 -29 -51.5t-52 -19.5q-32 0 -43.5 19.5t-3.5 51.5t29 51.5t53 19.5t43 -19.5t3 -51.5zM860 400q-23 -92 -66.5 -167.5t-106.5 -129.5t-143 -83.5
t-174 -29.5q-95 0 -160 29.5t-100.5 83.5t-42 129.5t16.5 167.5q22 91 66 168.5t106.5 133t143 87t175.5 31.5q96 0 161 -31t100.5 -87t41 -133t-17.5 -169zM738 400q16 63 15 119t-22.5 98.5t-66 67t-116.5 24.5q-71 0 -127.5 -24t-99 -65.5t-71 -98t-44.5 -121.5
q-16 -63 -14.5 -118t24 -95t67 -63t115.5 -23q72 0 128 23t98 63t70.5 95t43.5 118z" />
    <glyph glyph-name="Udieresis" unicode="&#xdc;" horiz-adv-x="873" 
d="M792 971q-8 -32 -29 -51.5t-53 -19.5t-43 19.5t-3 51.5t28.5 51.5t52.5 19.5t43.5 -19.5t3.5 -51.5zM551 971q-8 -32 -29.5 -51.5t-52.5 -19.5q-32 0 -43.5 19.5t-3.5 51.5t29 51.5t53 19.5t43.5 -19.5t3.5 -51.5zM812 372q-46 -185 -156.5 -283.5t-290.5 -98.5
t-242.5 98t-15.5 284l108 438h119l-108 -437q-16 -64 -16.5 -114.5t18.5 -85.5t59 -53.5t105 -18.5q64 0 113 18.5t85.5 53.5t61.5 85.5t41 114.5l108 437h119z" />
    <glyph glyph-name="aacute" unicode="&#xe1;" horiz-adv-x="745" 
d="M659 873l-249 -178l-36 48l227 208zM587 0h-116l16 62h-2q-83 -72 -206 -72q-74 0 -124 24t-76 67t-30 102t13 129q18 71 51 131t81 104t109.5 68.5t135.5 24.5q58 0 102 -21t67 -56h2l17 67h116zM557 313q12 48 11.5 88.5t-15.5 70t-47 46t-84 16.5q-51 0 -91 -17
t-70 -46.5t-50.5 -70t-32.5 -87.5t-11.5 -87t16.5 -69t48 -45.5t83 -16.5t91 16.5t70 45.5t50 69t32 87z" />
    <glyph glyph-name="agrave" unicode="&#xe0;" horiz-adv-x="745" 
d="M605 743l-59 -48l-161 178l96 78zM587 0h-116l16 62h-2q-83 -72 -206 -72q-74 0 -124 24t-76 67t-30 102t13 129q18 71 51 131t81 104t109.5 68.5t135.5 24.5q58 0 102 -21t67 -56h2l17 67h116zM557 313q12 48 11.5 88.5t-15.5 70t-47 46t-84 16.5q-51 0 -91 -17
t-70 -46.5t-50.5 -70t-32.5 -87.5t-11.5 -87t16.5 -69t48 -45.5t83 -16.5t91 16.5t70 45.5t50 69t32 87z" />
    <glyph glyph-name="acircumflex" unicode="&#xe2;" horiz-adv-x="745" 
d="M660 743l-58 -47l-112 115l-2 -1l-167 -114l-34 47l232 187h2zM587 0h-116l16 62h-2q-83 -72 -206 -72q-74 0 -124 24t-76 67t-30 102t13 129q18 71 51 131t81 104t109.5 68.5t135.5 24.5q58 0 102 -21t67 -56h2l17 67h116zM557 313q12 48 11.5 88.5t-15.5 70t-47 46
t-84 16.5q-51 0 -91 -17t-70 -46.5t-50.5 -70t-32.5 -87.5t-11.5 -87t16.5 -69t48 -45.5t83 -16.5t91 16.5t70 45.5t50 69t32 87z" />
    <glyph glyph-name="adieresis" unicode="&#xe4;" horiz-adv-x="745" 
d="M667 778q-8 -32 -29.5 -51.5t-52.5 -19.5q-32 0 -43.5 19.5t-3.5 51.5t29 51.5t53 19.5t43.5 -19.5t3.5 -51.5zM425 778q-8 -32 -29 -51.5t-53 -19.5t-43 19.5t-3 51.5t28.5 51.5t52.5 19.5t43.5 -19.5t3.5 -51.5zM587 0h-116l16 62h-2q-83 -72 -206 -72q-74 0 -124 24
t-76 67t-30 102t13 129q18 71 51 131t81 104t109.5 68.5t135.5 24.5q58 0 102 -21t67 -56h2l17 67h116zM557 313q12 48 11.5 88.5t-15.5 70t-47 46t-84 16.5q-51 0 -91 -17t-70 -46.5t-50.5 -70t-32.5 -87.5t-11.5 -87t16.5 -69t48 -45.5t83 -16.5t91 16.5t70 45.5t50 69
t32 87z" />
    <glyph glyph-name="atilde" unicode="&#xe3;" horiz-adv-x="745" 
d="M726 825q-14 -24 -33.5 -45t-42.5 -36t-48 -23.5t-49 -8.5q-27 0 -49 13t-42 27q-10 7 -19.5 13.5t-19.5 11.5q-22 10 -39 10q-26 0 -52.5 -18.5t-48.5 -57.5l-39 53q10 21 28.5 41t41 36t48.5 26t52 10q27 0 50 -13t43 -27q11 -7 20 -13.5t20 -11.5q19 -11 36 -11
q29 0 56 20.5t47 56.5zM587 0h-116l16 62h-2q-83 -72 -206 -72q-74 0 -124 24t-76 67t-30 102t13 129q18 71 51 131t81 104t109.5 68.5t135.5 24.5q58 0 102 -21t67 -56h2l17 67h116zM557 313q12 48 11.5 88.5t-15.5 70t-47 46t-84 16.5q-51 0 -91 -17t-70 -46.5t-50.5 -70
t-32.5 -87.5t-11.5 -87t16.5 -69t48 -45.5t83 -16.5t91 16.5t70 45.5t50 69t32 87z" />
    <glyph glyph-name="aring" unicode="&#xe5;" horiz-adv-x="745" 
d="M609 812q-12 -50 -48.5 -83.5t-92.5 -33.5t-76 33.5t-8 83.5q13 51 48.5 84t92.5 33q56 0 76 -33.5t8 -83.5zM548 812q6 25 -2.5 40.5t-35.5 15.5q-26 0 -42 -15.5t-23 -40.5q-6 -24 3 -40t35 -16t42.5 15.5t22.5 40.5zM587 0h-116l16 62h-2q-83 -72 -206 -72
q-74 0 -124 24t-76 67t-30 102t13 129q18 71 51 131t81 104t109.5 68.5t135.5 24.5q58 0 102 -21t67 -56h2l17 67h116zM557 313q12 48 11.5 88.5t-15.5 70t-47 46t-84 16.5q-51 0 -91 -17t-70 -46.5t-50.5 -70t-32.5 -87.5t-11.5 -87t16.5 -69t48 -45.5t83 -16.5t91 16.5
t70 45.5t50 69t32 87z" />
    <glyph glyph-name="ccedilla" unicode="&#xe7;" horiz-adv-x="635" 
d="M557 85q-57 -45 -114.5 -67.5t-120.5 -26.5l1 -2l9 -11q17 -20 11 -45.5t-35 -49.5l-112 -91l-41 55l81 66q24 20 28 32.5t-4 23.5l-17 24q-64 7 -106 34.5t-64 69.5t-24 96.5t13 116.5q17 69 52.5 129.5t86 105t114.5 70t138 25.5q77 0 129.5 -22t85.5 -66l-97 -77
q-22 30 -58.5 45t-84.5 15q-49 0 -90 -18t-73 -48.5t-54 -71.5t-34 -87q-11 -44 -9.5 -83.5t17.5 -68.5t48.5 -46t83.5 -17q49 0 93 15t89 52z" />
    <glyph glyph-name="eacute" unicode="&#xe9;" 
d="M649 873l-249 -178l-36 48l227 208zM676 310q-3 -11 -6.5 -22.5t-7.5 -23.5h-503l9 -12q-5 -74 32 -116t122 -42q95 0 187 71l59 -80q-65 -49 -132.5 -72t-139.5 -23q-80 0 -133 24.5t-81 67.5t-32.5 101.5t12.5 126.5q18 72 53.5 132.5t85.5 104.5t113.5 68.5
t137.5 24.5q78 0 129 -25t78 -69.5t30.5 -105t-13.5 -130.5zM580 366l-9 12q4 72 -30 115t-114 43q-83 0 -138.5 -44t-87.5 -114l-16 -12h395z" />
    <glyph glyph-name="egrave" unicode="&#xe8;" 
d="M587 743l-59 -48l-161 178l95 78zM676 310q-3 -11 -6.5 -22.5t-7.5 -23.5h-503l9 -12q-5 -74 32 -116t122 -42q95 0 187 71l59 -80q-65 -49 -132.5 -72t-139.5 -23q-80 0 -133 24.5t-81 67.5t-32.5 101.5t12.5 126.5q18 72 53.5 132.5t85.5 104.5t113.5 68.5t137.5 24.5
q78 0 129 -25t78 -69.5t30.5 -105t-13.5 -130.5zM580 366l-9 12q4 72 -30 115t-114 43q-83 0 -138.5 -44t-87.5 -114l-16 -12h395z" />
    <glyph glyph-name="ecircumflex" unicode="&#xea;" 
d="M664 743l-58 -47l-112 115l-1 -1l-167 -114l-35 47l232 187h2zM676 310q-3 -11 -6.5 -22.5t-7.5 -23.5h-503l9 -12q-5 -74 32 -116t122 -42q95 0 187 71l59 -80q-65 -49 -132.5 -72t-139.5 -23q-80 0 -133 24.5t-81 67.5t-32.5 101.5t12.5 126.5q18 72 53.5 132.5
t85.5 104.5t113.5 68.5t137.5 24.5q78 0 129 -25t78 -69.5t30.5 -105t-13.5 -130.5zM580 366l-9 12q4 72 -30 115t-114 43q-83 0 -138.5 -44t-87.5 -114l-16 -12h395z" />
    <glyph glyph-name="edieresis" unicode="&#xeb;" 
d="M670 778q-8 -32 -29.5 -51.5t-52.5 -19.5q-32 0 -43.5 19.5t-3.5 51.5t29 51.5t53 19.5t43.5 -19.5t3.5 -51.5zM428 778q-8 -32 -29 -51.5t-53 -19.5t-43 19.5t-3 51.5t28.5 51.5t52.5 19.5t43.5 -19.5t3.5 -51.5zM676 310q-3 -11 -6.5 -22.5t-7.5 -23.5h-503l9 -12
q-5 -74 32 -116t122 -42q95 0 187 71l59 -80q-65 -49 -132.5 -72t-139.5 -23q-80 0 -133 24.5t-81 67.5t-32.5 101.5t12.5 126.5q18 72 53.5 132.5t85.5 104.5t113.5 68.5t137.5 24.5q78 0 129 -25t78 -69.5t30.5 -105t-13.5 -130.5zM580 366l-9 12q4 72 -30 115t-114 43
q-83 0 -138.5 -44t-87.5 -114l-16 -12h395z" />
    <glyph glyph-name="iacute" unicode="&#xed;" horiz-adv-x="294" 
d="M425 873l-249 -178l-36 48l228 208zM136 0h-116l155 630h116z" />
    <glyph glyph-name="igrave" unicode="&#xec;" horiz-adv-x="294" 
d="M376 743l-59 -48l-161 178l95 78zM136 0h-116l155 630h116z" />
    <glyph glyph-name="icircumflex" unicode="&#xee;" horiz-adv-x="294" 
d="M449 743l-58 -47l-112 115l-2 -1l-167 -114l-35 47l232 187h2zM136 0h-116l155 630h116z" />
    <glyph glyph-name="idieresis" unicode="&#xef;" horiz-adv-x="294" 
d="M455 778q-8 -32 -29 -51.5t-53 -19.5t-43 19.5t-3 51.5t29 51.5t52 19.5q32 0 43.5 -19.5t3.5 -51.5zM214 778q-8 -32 -29.5 -51.5t-52.5 -19.5q-32 0 -43.5 19.5t-3.5 51.5t29 51.5t53 19.5t43.5 -19.5t3.5 -51.5zM136 0h-116l155 630h116z" />
    <glyph glyph-name="ntilde" unicode="&#xf1;" horiz-adv-x="746" 
d="M748 825q-14 -24 -33.5 -45t-42.5 -36t-48 -23.5t-49 -8.5q-27 0 -49 13t-42 27q-10 7 -19.5 13.5t-19.5 11.5q-22 10 -39 10q-26 0 -52.5 -18.5t-49.5 -57.5l-39 53q11 21 29.5 41t41 36t48.5 26t52 10q27 0 50 -13t43 -27q10 -7 19.5 -13.5t19.5 -11.5q20 -11 37 -11
q29 0 56 20.5t47 56.5zM691 398l-99 -398h-116l94 380q9 34 9.5 62.5t-12 49t-41.5 32t-79 11.5q-38 0 -73.5 -10.5t-64.5 -31t-50.5 -51t-31.5 -70.5l-91 -372h-116l155 630h116l-17 -68h2q42 36 98.5 57t112.5 21q61 0 105.5 -16t71.5 -47t34 -76t-7 -103z" />
    <glyph glyph-name="oacute" unicode="&#xf3;" 
d="M649 873l-249 -178l-36 48l227 208zM677 315q-17 -69 -51 -128.5t-83.5 -103t-113.5 -68.5t-140 -25q-77 0 -128.5 24.5t-79 68t-31.5 103t13 129.5t51 129.5t83 103t112 68t140 24.5t129 -24.5t79.5 -67.5t32 -103t-12.5 -130zM561 315q12 47 10.5 87t-17.5 69.5
t-48 46.5t-82 17q-51 0 -91 -16.5t-70.5 -46t-51 -70t-32.5 -87.5t-10.5 -87t17.5 -69.5t48 -46.5t82 -17t90.5 17t71 46.5t51 69.5t32.5 87z" />
    <glyph glyph-name="ograve" unicode="&#xf2;" 
d="M580 743l-59 -48l-162 178l96 78zM677 315q-17 -69 -51 -128.5t-83.5 -103t-113.5 -68.5t-140 -25q-77 0 -128.5 24.5t-79 68t-31.5 103t13 129.5t51 129.5t83 103t112 68t140 24.5t129 -24.5t79.5 -67.5t32 -103t-12.5 -130zM561 315q12 47 10.5 87t-17.5 69.5t-48 46.5
t-82 17q-51 0 -91 -16.5t-70.5 -46t-51 -70t-32.5 -87.5t-10.5 -87t17.5 -69.5t48 -46.5t82 -17t90.5 17t71 46.5t51 69.5t32.5 87z" />
    <glyph glyph-name="ocircumflex" unicode="&#xf4;" 
d="M663 743l-59 -47l-112 115l-1 -1l-167 -114l-35 47l232 187h2zM677 315q-17 -69 -51 -128.5t-83.5 -103t-113.5 -68.5t-140 -25q-77 0 -128.5 24.5t-79 68t-31.5 103t13 129.5t51 129.5t83 103t112 68t140 24.5t129 -24.5t79.5 -67.5t32 -103t-12.5 -130zM561 315
q12 47 10.5 87t-17.5 69.5t-48 46.5t-82 17q-51 0 -91 -16.5t-70.5 -46t-51 -70t-32.5 -87.5t-10.5 -87t17.5 -69.5t48 -46.5t82 -17t90.5 17t71 46.5t51 69.5t32.5 87z" />
    <glyph glyph-name="odieresis" unicode="&#xf6;" 
d="M669 778q-8 -32 -29 -51.5t-53 -19.5t-43 19.5t-3 51.5t28.5 51.5t52.5 19.5t43.5 -19.5t3.5 -51.5zM428 778q-8 -32 -29.5 -51.5t-52.5 -19.5q-32 0 -43.5 19.5t-3.5 51.5t29 51.5t53 19.5t43.5 -19.5t3.5 -51.5zM677 315q-17 -69 -51 -128.5t-83.5 -103t-113.5 -68.5
t-140 -25q-77 0 -128.5 24.5t-79 68t-31.5 103t13 129.5t51 129.5t83 103t112 68t140 24.5t129 -24.5t79.5 -67.5t32 -103t-12.5 -130zM561 315q12 47 10.5 87t-17.5 69.5t-48 46.5t-82 17q-51 0 -91 -16.5t-70.5 -46t-51 -70t-32.5 -87.5t-10.5 -87t17.5 -69.5t48 -46.5
t82 -17t90.5 17t71 46.5t51 69.5t32.5 87z" />
    <glyph glyph-name="otilde" unicode="&#xf5;" 
d="M724 825q-14 -24 -33.5 -45t-42.5 -36t-48 -23.5t-49 -8.5q-27 0 -49 13t-42 27q-10 7 -19.5 13.5t-19.5 11.5q-22 10 -39 10q-26 0 -52.5 -18.5t-48.5 -57.5l-39 53q10 21 28.5 41t41 36t48.5 26t52 10q27 0 50 -13t43 -27q11 -7 20.5 -13.5t19.5 -11.5q19 -11 36 -11
q29 0 56 20.5t47 56.5zM677 315q-17 -69 -51 -128.5t-83.5 -103t-113.5 -68.5t-140 -25q-77 0 -128.5 24.5t-79 68t-31.5 103t13 129.5t51 129.5t83 103t112 68t140 24.5t129 -24.5t79.5 -67.5t32 -103t-12.5 -130zM561 315q12 47 10.5 87t-17.5 69.5t-48 46.5t-82 17
q-51 0 -91 -16.5t-70.5 -46t-51 -70t-32.5 -87.5t-10.5 -87t17.5 -69.5t48 -46.5t82 -17t90.5 17t71 46.5t51 69.5t32.5 87z" />
    <glyph glyph-name="uacute" unicode="&#xfa;" horiz-adv-x="738" 
d="M657 873l-249 -178l-36 48l227 208zM579 0h-116l17 68h-2q-44 -38 -97 -58t-109 -20q-68 0 -113 17.5t-68.5 50t-27 79t10.5 104.5l97 389h115l-94 -385q-8 -32 -9.5 -59.5t10.5 -47.5t40.5 -31.5t78.5 -11.5q37 0 72 10.5t63.5 31t49 51t30.5 70.5l92 372h116z" />
    <glyph glyph-name="ugrave" unicode="&#xf9;" horiz-adv-x="738" 
d="M587 743l-59 -48l-161 178l95 78zM579 0h-116l17 68h-2q-44 -38 -97 -58t-109 -20q-68 0 -113 17.5t-68.5 50t-27 79t10.5 104.5l97 389h115l-94 -385q-8 -32 -9.5 -59.5t10.5 -47.5t40.5 -31.5t78.5 -11.5q37 0 72 10.5t63.5 31t49 51t30.5 70.5l92 372h116z" />
    <glyph glyph-name="ucircumflex" unicode="&#xfb;" horiz-adv-x="738" 
d="M664 743l-58 -47l-112 115l-1 -1l-167 -114l-35 47l232 187h2zM579 0h-116l17 68h-2q-44 -38 -97 -58t-109 -20q-68 0 -113 17.5t-68.5 50t-27 79t10.5 104.5l97 389h115l-94 -385q-8 -32 -9.5 -59.5t10.5 -47.5t40.5 -31.5t78.5 -11.5q37 0 72 10.5t63.5 31t49 51
t30.5 70.5l92 372h116z" />
    <glyph glyph-name="udieresis" unicode="&#xfc;" horiz-adv-x="738" 
d="M674 778q-8 -32 -29 -51.5t-53 -19.5t-43 19.5t-3 51.5t28.5 51.5t52.5 19.5t43.5 -19.5t3.5 -51.5zM433 778q-8 -32 -29.5 -51.5t-52.5 -19.5q-32 0 -43.5 19.5t-3.5 51.5t29 51.5t53 19.5t43.5 -19.5t3.5 -51.5zM579 0h-116l17 68h-2q-44 -38 -97 -58t-109 -20
q-68 0 -113 17.5t-68.5 50t-27 79t10.5 104.5l97 389h115l-94 -385q-8 -32 -9.5 -59.5t10.5 -47.5t40.5 -31.5t78.5 -11.5q37 0 72 10.5t63.5 31t49 51t30.5 70.5l92 372h116z" />
    <glyph glyph-name="dagger" unicode="&#x2020;" horiz-adv-x="613" 
d="M603 481l-201 11l-155 -672h-110l177 672l-205 -11l27 112l200 -10l46 227h110l-67 -227l205 10z" />
    <glyph glyph-name="degree" unicode="&#xb0;" horiz-adv-x="433" 
d="M464 627q-10 -41 -30 -76t-48 -61t-64.5 -40.5t-79.5 -14.5q-44 0 -73 14.5t-44.5 40.5t-17.5 61t8 76t29.5 76.5t47.5 61.5t64.5 40.5t80.5 14.5q43 0 72.5 -14.5t45 -40.5t17.5 -61t-8 -77zM383 627q12 49 -2.5 80.5t-63.5 31.5q-50 0 -79.5 -31t-41.5 -81
q-12 -48 2.5 -79.5t63.5 -31.5q50 0 79.5 31.5t41.5 79.5z" />
    <glyph glyph-name="cent" unicode="&#xa2;" horiz-adv-x="635" 
d="M579 175q-62 -49 -127.5 -72t-138.5 -23q-8 0 -15.5 -0.5t-16.5 1.5l2 -10l-35 -81h-97l42 97l13 9q-46 15 -76 43.5t-45 68t-15 88t14 104.5q17 70 52.5 129.5t84.5 103.5t109 69.5t126 27.5q6 0 13 0.5t13 -0.5l-2 11l35 79h97l-39 -88l-11 -10q42 -11 72.5 -29.5
t55.5 -50.5l-100 -80q-13 17 -32.5 30.5t-42.5 21.5l2 -12l-177 -403l-11 -11h11q51 -1 94 15.5t85 51.5zM435 621q-2 -1 -4.5 -1h-4.5q-45 -5 -82.5 -24t-66 -48.5t-48 -67.5t-29.5 -80q-8 -30 -9.5 -59.5t4.5 -55t20.5 -45.5t38.5 -33l-1 16l170 388z" />
    <glyph glyph-name="sterling" unicode="&#xa3;" horiz-adv-x="731" 
d="M762 688l-103 -83q-55 104 -170 104q-69 0 -115 -26.5t-62 -89.5q-5 -21 -8.5 -54.5t-4.5 -66.5l-8 -12h238l-27 -110h-210l5 -13q-5 -85 -35.5 -139t-79.5 -85v-2h424l-28 -111h-593l25 102q37 16 66.5 34t50.5 44.5t34 64t16 92.5l8 13h-97l28 110h68l-6 12
q0 30 2.5 62t8.5 55q15 62 48.5 106t78 71.5t97 40.5t107.5 13q44 0 81.5 -10t67.5 -28t53 -42t40 -52z" />
    <glyph glyph-name="section" unicode="&#xa7;" horiz-adv-x="650" 
d="M610 290q-15 -61 -56.5 -105.5t-93.5 -79.5q18 -27 25 -55t-3 -69q-12 -48 -39 -82t-63 -56.5t-77.5 -33t-83.5 -10.5q-68 0 -131 28t-105 82l99 79q29 -41 72.5 -60.5t91.5 -19.5q43 0 72 16.5t39 57.5q3 11 0 23.5t-9 22.5q-11 20 -30 36.5t-42 33.5q-25 17 -51 33.5
t-52 33.5q-26 18 -49.5 38t-39.5 44t-22.5 52.5t2.5 63.5q7 31 23.5 57.5t38.5 49t47.5 41t51.5 35.5q-14 21 -21.5 48t0.5 57q10 42 37 73.5t63.5 52.5t79.5 31.5t87 10.5q69 0 127 -31t99 -84l-100 -79q-28 40 -67.5 63.5t-85.5 23.5t-76.5 -16.5t-38.5 -45.5
q-7 -33 27 -67q10 -10 21.5 -19t25.5 -18q14 -10 28.5 -19t30.5 -19q30 -19 61 -41t53.5 -48t33 -58t0.5 -71zM487 274q5 19 0 35t-15.5 29t-24.5 23.5t-27 19.5l-138 97q-14 -10 -29.5 -22t-29.5 -25.5t-24.5 -28t-14.5 -29.5q-4 -17 -0.5 -32t12.5 -27.5t21.5 -23.5
t26.5 -20l149 -101q14 10 29 22t28 25t23 27.5t14 30.5z" />
    <glyph glyph-name="bullet" unicode="&#x2022;" horiz-adv-x="383" 
d="M325 405q-8 -31 -26 -58t-43 -47.5t-55 -32t-60 -11.5t-54 11.5t-39 32t-20 47.5t3 58q7 31 25.5 58t43 47t54.5 31.5t60 11.5q31 0 55 -11.5t39 -31.5t19.5 -47t-2.5 -58z" />
    <glyph glyph-name="paragraph" unicode="&#xb6;" horiz-adv-x="658" 
d="M694 705h-63l3 -10l-216 -876h-109l216 876l8 10h-77l4 -10l-216 -876h-110l115 470l10 10h-9q-51 3 -91 24t-64.5 55t-32 79.5t4.5 96.5q13 53 45 99.5t76 81.5t96.5 55t106.5 20h329z" />
    <glyph glyph-name="germandbls" unicode="&#xdf;" horiz-adv-x="699" 
d="M636 245q-14 -55 -44.5 -102t-73 -81t-94 -53.5t-106.5 -19.5q-44 0 -76 5t-64 18l28 114q19 -9 34 -14.5t29 -9t30 -4.5t36 -1q33 0 63 10t54.5 29t42 46t25.5 62q17 69 -15 110t-101 41h-129l27 107l91 -1q62 -1 103.5 29t55.5 86q14 59 -20.5 90.5t-96.5 31.5
q-67 0 -99 -29.5t-48 -92.5l-152 -616h-116l158 639q14 58 41.5 97.5t65 63.5t82.5 34.5t95 10.5q57 0 101.5 -16t72 -45.5t37 -70.5t-2.5 -92q-14 -53 -46.5 -93t-79.5 -63v-2q28 -10 50 -30t34.5 -48.5t15 -64t-7.5 -75.5z" />
    <glyph glyph-name="registered" unicode="&#xae;" horiz-adv-x="950" 
d="M920 401q-21 -87 -73 -163.5t-122.5 -134t-154 -90.5t-169.5 -33t-153.5 33t-110 90.5t-56 134t7.5 163.5t72.5 163t122 133t154.5 90t170 33t153.5 -33t110 -90t56 -133t-7.5 -163zM837 400q17 69 6.5 132t-44 110.5t-87 75.5t-122.5 28t-136.5 -28t-124.5 -75.5
t-98.5 -110.5t-58.5 -132t-6.5 -131.5t44 -110t87 -75.5t122.5 -28t136.5 28t124.5 75.5t98.5 110t58.5 131.5zM667 162h-94l-28 126q-6 29 -23 42.5t-55 13.5h-91l7 -11l-42 -171h-84l118 476h206q31 0 58 -9t45 -27t24.5 -46t-2.5 -65q-10 -41 -38.5 -72.5t-62.5 -45.5
q18 -15 26 -49zM621 491q8 34 -8.5 49t-52.5 15h-132l7 -11l-26 -106l-12 -11h126q42 0 66.5 19t31.5 45z" />
    <glyph glyph-name="copyright" unicode="&#xa9;" horiz-adv-x="950" 
d="M920 401q-21 -87 -73 -163.5t-122.5 -134t-154 -90.5t-169.5 -33t-153.5 33t-110 90.5t-56 134t7.5 163.5t72.5 163t122 133t154.5 90t170 33t153.5 -33t110 -90t56 -133t-7.5 -163zM837 401q17 69 6.5 131.5t-44 110t-87 75.5t-122.5 28t-136.5 -28t-124.5 -75.5
t-98.5 -110t-58.5 -131.5t-6.5 -132t44 -110.5t87 -75.5t122.5 -28t136.5 28t124.5 75.5t98.5 110.5t58.5 132zM653 210q-51 -44 -104.5 -63.5t-113.5 -19.5q-63 0 -105 20.5t-63.5 57t-24.5 85.5t11 106q15 58 44 109t70 88t92.5 58.5t111.5 21.5q63 0 105 -18.5t67 -55.5
l-77 -62q-36 51 -115 51q-41 0 -75.5 -15.5t-61 -41.5t-45 -61t-28.5 -74q-9 -38 -8.5 -71.5t14 -58t40 -39t69.5 -14.5q42 0 78 13.5t72 45.5z" />
    <glyph glyph-name="trademark" unicode="&#x2122;" horiz-adv-x="846" 
d="M847 404h-57l68 273l-8 -10l-40 -56l-163 -212h-7l-65 239l-7 39v-1l-67 -272h-57l100 405h51v-3l69 -263l6 -37l10 13l31 43l186 247h50zM491 756h-144l-86 -352h-57l85 347l3 5h-145l13 53h344z" />
    <glyph glyph-name="acute" unicode="&#xb4;" horiz-adv-x="718" 
d="M647 873l-250 -178l-35 48l227 208z" />
    <glyph glyph-name="dieresis" unicode="&#xa8;" horiz-adv-x="713" 
d="M653 778q-8 -32 -29 -51.5t-53 -19.5t-43.5 19.5t-3.5 51.5t29 51.5t53 19.5t43.5 -19.5t3.5 -51.5zM411 778q-8 -32 -29 -51.5t-53 -19.5t-43 19.5t-3 51.5t28.5 51.5t52.5 19.5t43.5 -19.5t3.5 -51.5z" />
    <glyph glyph-name="AE" unicode="&#xc6;" horiz-adv-x="1065" 
d="M927 0h-484l46 187l11 12h-298l4 -12l-130 -187h-130l563 810h618l-28 -111h-372l4 -12l-53 -214l-15 -13h334l-27 -110h-334l9 -12l-53 -215l-15 -12h377zM530 310l-7 12l90 365l9 12h-72l1 -12l-254 -367l-13 -10h246z" />
    <glyph glyph-name="Oslash" unicode="&#xd8;" horiz-adv-x="885" 
d="M860 400q-23 -92 -66.5 -167.5t-106.5 -129.5t-143 -83.5t-174 -29.5q-51 0 -96.5 9.5t-80.5 28.5v-11l-72 -89l-51 36l71 87l10 5q-63 54 -79 142.5t12 201.5q22 91 66.5 168.5t107.5 133t143.5 87t175.5 31.5q50 0 92 -9.5t74 -26.5l3 11l49 60l52 -36l-48 -58l-10 -6
q67 -56 83.5 -147.5t-12.5 -207.5zM738 400q20 77 14.5 143.5t-46.5 110.5l-3 -12l-414 -508l-12 -7q47 -26 121 -26q72 0 128 23t98 63t70.5 95t43.5 118zM663 684q-21 12 -51 18.5t-64 6.5q-71 0 -127.5 -24t-99 -65.5t-71 -98t-44.5 -121.5q-19 -74 -13.5 -136.5
t43.5 -104.5l4 14l412 506z" />
    <glyph glyph-name="plusminus" unicode="&#xb1;" horiz-adv-x="678" 
d="M625 425h-203l3 -12l-50 -205h-108l51 205l10 12h-203l27 110h202l-3 12l51 206h107l-51 -206l-9 -12h203zM532 50h-500l27 110h500z" />
    <glyph glyph-name="yen" unicode="&#xa5;" horiz-adv-x="841" 
d="M947 810l-341 -353l-18 -14l170 4l-25 -101h-243l3 -13l-14 -57l-9 -13h242l-25 -101h-242l3 -11l-37 -151h-11h-98h-10l37 150l9 12h-241l25 101h241l-2 8l4 26l13 43l5 6h-240l25 101h165l-10 11l-168 352h150l129 -284l27 -79h2l65 80l271 283h148z" />
    <glyph glyph-name="mu" unicode="&#xb5;" 
d="M564 -1h-115l14 54h-2q-42 -35 -89 -49.5t-92 -14.5t-76.5 13t-54.5 48l-1 -1l-64 -259h-116l207 840h116l-92 -373q-19 -77 11 -120t94 -43q37 0 71 11.5t61.5 32.5t47.5 52t30 70l91 370h115z" />
    <glyph glyph-name="ordfeminine" unicode="&#xaa;" horiz-adv-x="482" 
d="M464 772l9 38h85l-103 -416h-84l8 34q-53 -41 -128 -41q-49 0 -81.5 16t-50 44.5t-20 67.5t9.5 85q11 46 33 86t53.5 68.5t72 45t89.5 16.5q35 0 63 -11.5t44 -32.5zM344 738q-63 0 -100 -39t-51 -99q-8 -30 -7.5 -54.5t10 -42.5t29 -28t51.5 -10q63 0 99.5 37.5
t51.5 97.5q7 30 7 55.5t-9.5 44t-29 28.5t-51.5 10z" />
    <glyph glyph-name="ordmasculine" unicode="&#xba;" horiz-adv-x="489" 
d="M514 604q-11 -46 -33.5 -85.5t-55.5 -69t-75 -46t-92 -16.5q-51 0 -84.5 16.5t-51.5 45.5t-21 68.5t8 86.5q12 46 34.5 85.5t54.5 68.5t74 45.5t93 16.5t85 -16.5t52 -45t21 -68.5t-9 -86zM433 604q7 30 6.5 55.5t-10.5 44t-30.5 29t-52.5 10.5q-64 0 -102 -39t-53 -100
t4 -100.5t82 -39.5q64 0 102.5 39t53.5 101z" />
    <glyph glyph-name="ae" unicode="&#xe6;" horiz-adv-x="1186" 
d="M1049 366l-11 13q4 70 -29 113t-111 43q-41 0 -74.5 -11.5t-61.5 -32.5t-49.5 -49.5t-36.5 -62.5l-14 -13h387zM587 0h-116l16 62h-2q-83 -72 -206 -72q-74 0 -124 24t-76 67t-30 102t13 129q18 71 51 131t81 104t109.5 68.5t135.5 24.5q58 0 102 -21t67 -56h2l17 67h116
l-14 -55h2q41 29 91 47t101 18q75 0 125 -25t76 -69.5t29 -105t-14 -130.5q-3 -11 -6 -20t-8 -26h-491l9 -13q-4 -73 31.5 -114.5t118.5 -41.5q96 0 186 72l59 -77q-65 -51 -132 -75.5t-139 -24.5q-48 0 -91 12t-76 42h-2zM557 313q12 48 11.5 88.5t-15.5 70t-47 46
t-84 16.5q-51 0 -91 -17t-70 -46.5t-50.5 -70t-32.5 -87.5t-11.5 -87t16.5 -69t48 -45.5t83 -16.5t91 16.5t70 45.5t50 69t32 87z" />
    <glyph glyph-name="oslash" unicode="&#xf8;" horiz-adv-x="698" 
d="M652 315q-17 -70 -50.5 -129.5t-81 -103t-108.5 -68t-134 -24.5q-38 0 -70.5 6t-58.5 20l-2 -11l-56 -69l-52 36l57 69l11 6q-46 45 -55.5 114t11.5 154q17 70 50 129.5t80.5 103t108.5 68t135 24.5q79 0 130 -28l4 10l55 69l51 -36l-57 -69l-9 -4q45 -48 53.5 -115.5
t-12.5 -151.5zM542 315q12 50 10.5 92t-22.5 75l-5 -13l-284 -348l-13 -9q14 -8 34 -11.5t42 -3.5q48 0 87 16.5t68.5 45.5t50 69t32.5 87zM490 517q-14 8 -35 12t-44 4q-49 0 -88 -16.5t-68.5 -45.5t-49.5 -69t-32 -87q-12 -51 -10 -94.5t25 -74.5l6 15l285 349z" />
    <glyph glyph-name="questiondown" unicode="&#xbf;" horiz-adv-x="662" 
d="M572 731q-10 -39 -36.5 -63.5t-66.5 -24.5q-39 0 -53.5 24t-4.5 64t36.5 64.5t65.5 24.5q40 0 54.5 -24.5t4.5 -64.5zM568 122q-74 -66 -151.5 -99t-168.5 -33q-63 0 -107.5 19t-71 49.5t-35 68.5t0.5 76q9 34 27 64t43.5 54.5t56 43t63.5 30.5l41 14q31 11 50.5 22.5
t33 27.5t22 39t16.5 56l9 34h118l-10 -43q-11 -44 -26 -80t-40 -65.5t-63 -53.5t-96 -44l-25 -8q-48 -17 -69 -38t-29 -53q-4 -17 1.5 -35.5t20.5 -33.5t39 -25t57 -10q64 0 116 25.5t107 79.5z" />
    <glyph glyph-name="exclamdown" unicode="&#xa1;" horiz-adv-x="301" 
d="M343 731q-10 -38 -36.5 -63t-66.5 -25q-41 0 -55 25t-4 63q9 38 36 63.5t67 25.5t54 -25.5t5 -63.5zM151 0h-140l172 588h86z" />
    <glyph glyph-name="logicalnot" unicode="&#xac;" horiz-adv-x="577" 
d="M491 50h-110l50 203l7 11h-412l26 106h518z" />
    <glyph glyph-name="florin" unicode="&#x192;" horiz-adv-x="428" 
d="M458 526h-194l3 -12l-110 -449q-14 -54 -36 -104.5t-55.5 -89.5t-80 -62.5t-109.5 -23.5q-25 0 -48 6t-44 14l27 112q17 -9 37.5 -16t42.5 -7q42 0 69 19.5t44 49.5t26.5 65.5t17.5 66.5l104 419l8 12h-80l26 104h80l-3 12q0 1 0.5 4t1.5 4q12 46 37 82.5t59.5 61.5
t76.5 38t87 13q23 0 45.5 -4t42.5 -12l-25 -104q-17 8 -40 12.5t-43 4.5q-49 0 -81.5 -25.5t-44.5 -74.5l-9 -12h194z" />
    <glyph glyph-name="guillemotleft" unicode="&#xab;" horiz-adv-x="666" 
d="M573 123l-96 -78l-158 210l262 210l57 -78l-110 -89l-66 -43v-2q2 -2 9.5 -8t15.5 -14q9 -9 20 -19zM301 123l-95 -78l-158 210l262 210l57 -78l-110 -89l-66 -43v-2q2 -2 9.5 -8t15.5 -14q9 -9 20 -19z" />
    <glyph glyph-name="guillemotright" unicode="&#xbb;" horiz-adv-x="666" 
d="M605 255l-261 -210l-57 78l110 89q16 10 29 19q11 8 22 14.5t14 8.5l-21 20l-35 40l-54 73l95 78zM334 255l-262 -210l-57 78l110 89q17 10 30 19q11 8 21.5 14.5t14.5 8.5l-21 20l-35 40l-54 73l95 78z" />
    <glyph glyph-name="ellipsis" unicode="&#x2026;" horiz-adv-x="846" 
d="M725 74q-9 -38 -34 -61t-63 -23t-51.5 23t-3.5 61q9 38 34 61.5t63 23.5t51.5 -23.5t3.5 -61.5zM443 74q-9 -38 -34.5 -61t-62.5 -23q-38 0 -51.5 23t-3.5 61q9 38 34 61.5t63 23.5t51.5 -23.5t3.5 -61.5zM161 74q-9 -38 -34.5 -61t-62.5 -23q-38 0 -51.5 23t-4.5 61
q10 38 35 61.5t62 23.5q38 0 51.5 -23.5t4.5 -61.5z" />
    <glyph glyph-name="uni00A0" unicode="&#xa0;" horiz-adv-x="307" 
 />
    <glyph glyph-name="Agrave" unicode="&#xc0;" horiz-adv-x="872" 
d="M715 922l-59 -48l-162 178l96 77zM788 0h-130l-37 188l9 11h-428l4 -11l-130 -188h-130l563 810h116zM603 310l-10 12l-55 275l-4 74h-2l-41 -73l-192 -276l-15 -12h319z" />
    <glyph glyph-name="Atilde" unicode="&#xc3;" horiz-adv-x="872" 
d="M845 988q-14 -25 -33 -45.5t-42 -35.5t-48 -23.5t-50 -8.5q-26 0 -48.5 12.5t-42.5 26.5q-10 8 -19.5 14t-19.5 11q-19 11 -39 11q-26 0 -52 -19t-49 -57l-39 52q11 21 29.5 41t41 36t48.5 26t52 10q27 0 49.5 -12.5t43.5 -27.5q10 -7 19.5 -13.5t19.5 -11.5
q20 -10 37 -10q29 0 55.5 20t46.5 57zM788 0h-130l-37 188l9 11h-428l4 -11l-130 -188h-130l563 810h116zM603 310l-10 12l-55 275l-4 74h-2l-41 -73l-192 -276l-15 -12h319z" />
    <glyph glyph-name="Otilde" unicode="&#xd5;" horiz-adv-x="885" 
d="M845 988q-14 -25 -33 -45.5t-42 -35.5t-48 -23.5t-50 -8.5q-26 0 -48.5 12.5t-42.5 26.5q-10 8 -19.5 14t-19.5 11q-19 11 -39 11q-26 0 -52 -19t-49 -57l-39 52q11 21 29.5 41t41 36t48.5 26t52 10q27 0 49.5 -12.5t43.5 -27.5q10 -7 19.5 -13.5t19.5 -11.5
q20 -10 37 -10q29 0 55.5 20t46.5 57zM860 400q-23 -92 -66.5 -167.5t-106.5 -129.5t-143 -83.5t-174 -29.5q-95 0 -160 29.5t-100.5 83.5t-42 129.5t16.5 167.5q22 91 66 168.5t106.5 133t143 87t175.5 31.5q96 0 161 -31t100.5 -87t41 -133t-17.5 -169zM738 400
q16 63 15 119t-22.5 98.5t-66 67t-116.5 24.5q-71 0 -127.5 -24t-99 -65.5t-71 -98t-44.5 -121.5q-16 -63 -14.5 -118t24 -95t67 -63t115.5 -23q72 0 128 23t98 63t70.5 95t43.5 118z" />
    <glyph glyph-name="OE" unicode="&#x152;" horiz-adv-x="1106" 
d="M968 0h-481l15 59q-1 -1 -2 -1q-42 -34 -94.5 -51t-106.5 -17q-79 0 -131 30t-78 84t-27.5 129.5t21.5 166.5q22 90 61 167t92.5 133.5t121 88t145.5 31.5q55 0 98 -17t69 -53h2l15 60h480l-28 -111h-369l5 -12l-53 -215l-11 -11h331l-28 -112h-330l4 -13l-52 -212
l-11 -13h369zM595 400q16 64 18.5 120.5t-11 98.5t-44.5 66t-81 24t-92.5 -23.5t-77 -65t-60 -98t-41.5 -122.5q-16 -65 -18 -120t12.5 -94.5t45.5 -62t81 -22.5t92.5 22.5t76 62t58.5 94.5t41 120z" />
    <glyph glyph-name="oe" unicode="&#x153;" horiz-adv-x="1190" 
d="M1143 310q-3 -11 -6 -20t-8 -26h-492l10 -12q-4 -74 31 -115.5t119 -41.5q49 0 94 16.5t91 53.5l58 -79q-66 -53 -131.5 -74.5t-137.5 -21.5q-88 0 -142.5 30.5t-78.5 87.5l-2 -1q-45 -55 -113 -86t-153 -31q-75 0 -125 24.5t-76.5 68t-30.5 103t13 129.5t50.5 129.5
t81.5 103t110 68t137 24.5q86 0 139.5 -31t76.5 -90q1 1 2 1q49 58 117.5 89t149.5 31q75 0 125 -25t76 -69.5t29 -105t-14 -130.5zM1052 366l-10 13q4 69 -29 112.5t-112 43.5q-40 0 -74 -11.5t-61.5 -32.5t-49 -49.5t-36.5 -62.5l-16 -13h388zM551 315q12 47 11 87.5
t-17 70t-47.5 46t-81.5 16.5t-89.5 -16.5t-69.5 -46t-50.5 -70t-32.5 -87.5t-11 -87t17 -69.5t47.5 -46.5t80.5 -17q50 0 90 16.5t70 46t50.5 70t32.5 87.5z" />
    <glyph glyph-name="endash" unicode="&#x2013;" horiz-adv-x="608" 
d="M577 275h-549l27 110h549z" />
    <glyph glyph-name="emdash" unicode="&#x2014;" horiz-adv-x="880" 
d="M849 275h-821l27 110h821z" />
    <glyph glyph-name="quotedblleft" unicode="&#x201c;" horiz-adv-x="434" 
d="M309 574q3 12 11.5 28t16.5 28l130 195l51 -24l-87 -132l-17 -11q34 -5 45 -27t3 -57q-10 -38 -35 -61.5t-62 -23.5q-38 0 -51.5 23.5t-4.5 61.5zM117 574q3 12 11 28t16 28l131 195l51 -24l-88 -132l-16 -11q34 -5 45 -27t2 -57q-9 -38 -34 -61.5t-63 -23.5t-51.5 23.5
t-3.5 61.5z" />
    <glyph glyph-name="quotedblright" unicode="&#x201d;" horiz-adv-x="434" 
d="M310 736q-4 -13 -12 -28.5t-16 -28.5l-131 -195l-50 24l87 132l16 12q-34 4 -45 26t-2 58q9 38 34 61t63 23t51.5 -23t4.5 -61zM502 736q-3 -13 -11.5 -28.5t-16.5 -28.5l-130 -195l-51 24l87 132l16 12q-34 4 -45 26t-2 58q9 38 34 61t63 23t51.5 -23t4.5 -61z" />
    <glyph glyph-name="quoteleft" unicode="&#x2018;" horiz-adv-x="242" 
d="M117 574q3 12 11 28t16 28l131 195l51 -24l-88 -132l-16 -11q34 -5 45 -27t2 -57q-9 -38 -34 -61.5t-63 -23.5t-51.5 23.5t-3.5 61.5z" />
    <glyph glyph-name="quoteright" unicode="&#x2019;" horiz-adv-x="242" 
d="M310 736q-4 -13 -12 -28.5t-16 -28.5l-131 -195l-50 24l87 132l16 12q-34 4 -45 26t-2 58q9 38 34 61t63 23t51.5 -23t4.5 -61z" />
    <glyph glyph-name="divide" unicode="&#xf7;" horiz-adv-x="668" 
d="M503 634q-10 -40 -37 -64.5t-66 -24.5t-53.5 24.5t-4.5 64.5q10 39 36.5 63.5t65.5 24.5q40 0 54.5 -24t4.5 -64zM601 350h-500l27 110h500zM390 176q-10 -39 -37 -63.5t-66 -24.5t-53.5 24.5t-4.5 63.5q10 40 36.5 64.5t65.5 24.5q40 0 54.5 -24.5t4.5 -64.5z" />
    <glyph glyph-name="ydieresis" unicode="&#xff;" horiz-adv-x="693" 
d="M646 778q-8 -32 -29 -51.5t-52 -19.5q-32 0 -43.5 19.5t-3.5 51.5t29 51.5t53 19.5t43 -19.5t3 -51.5zM405 778q-8 -32 -29 -51.5t-53 -19.5t-43.5 19.5t-3.5 51.5t29 51.5t53 19.5t43.5 -19.5t3.5 -51.5zM764 630l-460 -695q-46 -69 -105.5 -109.5t-123.5 -40.5
q-36 0 -66 6.5t-56 22.5l27 112q29 -18 56.5 -25.5t53.5 -7.5q34 0 68.5 27t72.5 86l-130 624h129l81 -417l7 -85h2l48 85l267 417h129z" />
    <glyph glyph-name="Ydieresis" unicode="&#x178;" horiz-adv-x="831" 
d="M769 971q-8 -32 -29 -51.5t-53 -19.5t-43 19.5t-3 51.5t29 51.5t52 19.5q32 0 43.5 -19.5t3.5 -51.5zM528 971q-8 -32 -29.5 -51.5t-52.5 -19.5q-32 0 -43.5 19.5t-3.5 51.5t29 51.5t53 19.5t43.5 -19.5t3.5 -51.5zM947 810l-457 -472l-83 -338h-120l83 338l-225 472h150
l129 -284l30 -87h2l72 88l271 283h148z" />
    <glyph glyph-name="Euro" unicode="&#x20ac;" horiz-adv-x="738" 
d="M780 693l-101 -84q-14 49 -50.5 75.5t-96.5 26.5q-69 0 -126.5 -43t-96.5 -112l-12 -11h279l-24 -99h-298l4 -11q-3 -8 -5.5 -17t-4.5 -18q-2 -6 -3 -12.5t-3 -12.5l-9 -11h298l-24 -99h-281l6 -11q4 -69 39.5 -112t108.5 -43q60 0 108.5 26t89.5 75l59 -82
q-60 -66 -132.5 -97t-151.5 -31q-61 0 -106.5 18.5t-75.5 53t-45 83.5t-13 109l7 11h-84l24 99h72l-4 11q1 6 2 12.5t3 12.5q2 9 5 18t5 17l10 11h-73l25 99h87l-2 11q30 60 69 109t86 83.5t101 53t113 18.5q81 0 137 -30.5t84 -96.5z" />
    <glyph glyph-name="guilsinglleft" unicode="&#x2039;" horiz-adv-x="395" 
d="M301 123l-95 -78l-158 210l262 210l57 -78l-110 -89l-66 -43v-2q2 -2 9.5 -8t15.5 -14q9 -9 20 -19z" />
    <glyph glyph-name="guilsinglright" unicode="&#x203a;" horiz-adv-x="395" 
d="M334 255l-262 -210l-57 78l110 89q17 10 30 19q11 8 21.5 14.5t14.5 8.5l-21 20l-35 40l-54 73l95 78z" />
    <glyph glyph-name="daggerdbl" unicode="&#x2021;" horiz-adv-x="608" 
d="M603 481l-201 11l-88 -355l206 12l-28 -112l-199 10l-45 -226h-111l67 226l-206 -10l28 112l201 -12l87 355l-205 -11l27 112l200 -10l45 226h111l-67 -226l205 10z" />
    <glyph glyph-name="periodcentered" unicode="&#xb7;" horiz-adv-x="289" 
d="M251 406q-10 -40 -36.5 -64.5t-65.5 -24.5q-40 0 -54.5 24.5t-4.5 64.5q10 39 36.5 63.5t65.5 24.5q40 0 54.5 -24.5t4.5 -63.5z" />
    <glyph glyph-name="quotesinglbase" unicode="&#x201a;" horiz-adv-x="242" 
d="M146 72q-3 -13 -11.5 -28.5t-16.5 -28.5l-130 -195l-51 24l87 132l16 12q-34 4 -45 26t-2 58q9 38 34 61t63 23t51.5 -23t4.5 -61z" />
    <glyph glyph-name="quotedblbase" unicode="&#x201e;" horiz-adv-x="434" 
d="M146 73q-3 -13 -11.5 -28.5t-16.5 -28.5l-130 -195l-51 24l87 132l16 12q-34 4 -44.5 26t-2.5 58q10 38 34.5 61t62.5 23t51.5 -23t4.5 -61zM338 73q-3 -13 -11 -28.5t-16 -28.5l-131 -195l-51 24l88 132l16 12q-34 4 -45 26t-3 58q10 38 35 61t62 23q38 0 51.5 -23
t4.5 -61z" />
    <glyph glyph-name="perthousand" unicode="&#x2030;" horiz-adv-x="1316" 
d="M1266 214q-12 -47 -33 -88t-51 -71.5t-68.5 -48t-84.5 -17.5q-47 0 -77 17.5t-45 48t-16 71.5t11 88t33.5 88.5t52 72.5t69 49t83.5 18q46 0 76 -18t45 -49t16 -72.5t-11 -88.5zM855 214q-12 -47 -33 -88t-51 -71.5t-68.5 -48t-84.5 -17.5t-76 17.5t-45 48t-16.5 71.5
t10.5 88t33.5 88.5t52 72.5t69 49t83.5 18q46 0 76 -18t45 -49t16 -72.5t-11 -88.5zM770 820l-492 -830h-98l492 830h98zM456 592q-12 -47 -33 -88t-51 -71t-69 -47.5t-85 -17.5t-76 17.5t-45 47.5t-16 71t11 88t33.5 88.5t52 73t69 49.5t83.5 18q46 0 76 -18t45 -49.5
t16 -73t-11 -88.5zM1166 214q17 64 6.5 99t-55.5 35q-43 0 -71 -34t-44 -100q-32 -130 50 -130q83 0 114 130zM756 214q16 64 5.5 99t-55.5 35q-43 0 -71 -34t-44 -100q-32 -130 50 -130t115 130zM356 592q16 65 6 99.5t-55 34.5q-43 0 -71 -34t-44 -100q-32 -129 50 -129
q42 0 70 31.5t44 97.5z" />
    <glyph glyph-name="Acircumflex" unicode="&#xc2;" horiz-adv-x="872" 
d="M781 920l-58 -47l-112 114h-2l-167 -114l-35 47l232 186h2zM788 0h-130l-37 188l9 11h-428l4 -11l-130 -188h-130l563 810h116zM603 310l-10 12l-55 275l-4 74h-2l-41 -73l-192 -276l-15 -12h319z" />
    <glyph glyph-name="Ecircumflex" unicode="&#xca;" horiz-adv-x="772" 
d="M747 920l-58 -47l-112 114h-2l-167 -114l-34 47l232 186h2zM634 0h-614l200 810h614l-28 -111h-507l9 -12l-53 -214l-15 -13h460l-28 -110h-459l9 -12l-53 -215l-15 -12h507z" />
    <glyph glyph-name="Aacute" unicode="&#xc1;" horiz-adv-x="872" 
d="M763 1052l-249 -178l-36 48l228 207zM788 0h-130l-37 188l9 11h-428l4 -11l-130 -188h-130l563 810h116zM603 310l-10 12l-55 275l-4 74h-2l-41 -73l-192 -276l-15 -12h319z" />
    <glyph glyph-name="Edieresis" unicode="&#xcb;" horiz-adv-x="772" 
d="M758 971q-8 -32 -29.5 -51t-52.5 -19q-32 0 -43.5 19t-3.5 51t29 51.5t53 19.5t43.5 -19.5t3.5 -51.5zM516 971q-8 -32 -29 -51t-53 -19t-43.5 19t-3.5 51t29 51.5t53 19.5t43.5 -19.5t3.5 -51.5zM634 0h-614l200 810h614l-28 -111h-507l9 -12l-53 -214l-15 -13h460
l-28 -110h-459l9 -12l-53 -215l-15 -12h507z" />
    <glyph glyph-name="Egrave" unicode="&#xc8;" horiz-adv-x="772" 
d="M672 923l-59 -48l-162 178l96 77zM634 0h-614l200 810h614l-28 -111h-507l9 -12l-53 -214l-15 -13h460l-28 -110h-459l9 -12l-53 -215l-15 -12h507z" />
    <glyph glyph-name="Iacute" unicode="&#xcd;" horiz-adv-x="307" 
d="M478 1052l-250 -178l-35 48l227 207zM144 0h-119l200 810h118z" />
    <glyph glyph-name="Icircumflex" unicode="&#xce;" horiz-adv-x="307" 
d="M500 920l-58 -47l-112 114h-2l-167 -114l-34 47l232 186h2zM144 0h-119l200 810h118z" />
    <glyph glyph-name="Idieresis" unicode="&#xcf;" horiz-adv-x="307" 
d="M510 970q-8 -32 -29 -51t-53 -19t-43 19t-3 51t29 51.5t52 19.5q32 0 43.5 -19.5t3.5 -51.5zM269 970q-8 -32 -29.5 -51t-52.5 -19q-32 0 -43.5 19t-3.5 51t29 51.5t53 19.5t43.5 -19.5t3.5 -51.5zM144 0h-119l200 810h118z" />
    <glyph glyph-name="Igrave" unicode="&#xcc;" horiz-adv-x="307" 
d="M424 923l-59 -48l-162 178l96 77zM144 0h-119l200 810h118z" />
    <glyph glyph-name="Oacute" unicode="&#xd3;" horiz-adv-x="885" 
d="M774 1052l-249 -178l-36 48l227 207zM860 400q-23 -92 -66.5 -167.5t-106.5 -129.5t-143 -83.5t-174 -29.5q-95 0 -160 29.5t-100.5 83.5t-42 129.5t16.5 167.5q22 91 66 168.5t106.5 133t143 87t175.5 31.5q96 0 161 -31t100.5 -87t41 -133t-17.5 -169zM738 400
q16 63 15 119t-22.5 98.5t-66 67t-116.5 24.5q-71 0 -127.5 -24t-99 -65.5t-71 -98t-44.5 -121.5q-16 -63 -14.5 -118t24 -95t67 -63t115.5 -23q72 0 128 23t98 63t70.5 95t43.5 118z" />
    <glyph glyph-name="Ocircumflex" unicode="&#xd4;" horiz-adv-x="885" 
d="M789 920l-59 -47l-111 114h-2l-167 -114l-35 47l232 186h2zM860 400q-23 -92 -66.5 -167.5t-106.5 -129.5t-143 -83.5t-174 -29.5q-95 0 -160 29.5t-100.5 83.5t-42 129.5t16.5 167.5q22 91 66 168.5t106.5 133t143 87t175.5 31.5q96 0 161 -31t100.5 -87t41 -133
t-17.5 -169zM738 400q16 63 15 119t-22.5 98.5t-66 67t-116.5 24.5q-71 0 -127.5 -24t-99 -65.5t-71 -98t-44.5 -121.5q-16 -63 -14.5 -118t24 -95t67 -63t115.5 -23q72 0 128 23t98 63t70.5 95t43.5 118z" />
    <glyph glyph-name="Ograve" unicode="&#xd2;" horiz-adv-x="885" 
d="M712 923l-59 -48l-162 178l96 77zM860 400q-23 -92 -66.5 -167.5t-106.5 -129.5t-143 -83.5t-174 -29.5q-95 0 -160 29.5t-100.5 83.5t-42 129.5t16.5 167.5q22 91 66 168.5t106.5 133t143 87t175.5 31.5q96 0 161 -31t100.5 -87t41 -133t-17.5 -169zM738 400
q16 63 15 119t-22.5 98.5t-66 67t-116.5 24.5q-71 0 -127.5 -24t-99 -65.5t-71 -98t-44.5 -121.5q-16 -63 -14.5 -118t24 -95t67 -63t115.5 -23q72 0 128 23t98 63t70.5 95t43.5 118z" />
    <glyph glyph-name="Uacute" unicode="&#xda;" horiz-adv-x="873" 
d="M758 1052l-250 -178l-35 48l227 207zM812 372q-46 -185 -156.5 -283.5t-290.5 -98.5t-242.5 98t-15.5 284l108 438h119l-108 -437q-16 -64 -16.5 -114.5t18.5 -85.5t59 -53.5t105 -18.5q64 0 113 18.5t85.5 53.5t61.5 85.5t41 114.5l108 437h119z" />
    <glyph glyph-name="Ucircumflex" unicode="&#xdb;" horiz-adv-x="873" 
d="M782 920l-58 -47l-112 114h-2l-166 -114l-35 47l232 186h2zM812 372q-46 -185 -156.5 -283.5t-290.5 -98.5t-242.5 98t-15.5 284l108 438h119l-108 -437q-16 -64 -16.5 -114.5t18.5 -85.5t59 -53.5t105 -18.5q64 0 113 18.5t85.5 53.5t61.5 85.5t41 114.5l108 437h119z
" />
    <glyph glyph-name="Ugrave" unicode="&#xd9;" horiz-adv-x="873" 
d="M706 923l-59 -48l-162 178l96 77zM812 372q-46 -185 -156.5 -283.5t-290.5 -98.5t-242.5 98t-15.5 284l108 438h119l-108 -437q-16 -64 -16.5 -114.5t18.5 -85.5t59 -53.5t105 -18.5q64 0 113 18.5t85.5 53.5t61.5 85.5t41 114.5l108 437h119z" />
    <glyph glyph-name="circumflex" unicode="&#x2c6;" horiz-adv-x="718" 
d="M654 743l-59 -47l-111 115l-2 -1l-167 -114l-35 47l232 187h2z" />
    <glyph glyph-name="tilde" unicode="&#x2dc;" horiz-adv-x="713" 
d="M712 825q-14 -24 -33.5 -45t-42.5 -36t-48 -23.5t-49 -8.5q-26 0 -48.5 13t-42.5 27q-10 7 -19.5 13.5t-19.5 11.5q-22 10 -39 10q-26 0 -52 -18.5t-49 -57.5l-39 53q11 21 29 41t41 36t49 26t52 10t49 -13t43 -27q11 -7 20.5 -13.5t19.5 -11.5q19 -11 36 -11
q29 0 56 20.5t47 56.5z" />
    <glyph glyph-name="macron" unicode="&#xaf;" horiz-adv-x="702" 
d="M673 742h-391l20 80h391z" />
    <glyph glyph-name="cedilla" unicode="&#xb8;" horiz-adv-x="635" 
d="M332 -22q17 -20 11 -46t-35 -50l-112 -90l-41 55l81 66q26 21 29 33t-5 23l-26 35h76z" />
    <glyph glyph-name="currency" unicode="&#xa4;" horiz-adv-x="617" 
d="M639 590l-87 -73q19 -57 4 -114q-15 -64 -61 -116l50 -71l-86 -69l-53 69q-59 -31 -120 -31q-66 0 -108 32l-86 -69l-52 69l86 71q-19 53 -4 115q15 61 61 114l-52 73l87 69l53 -69q58 32 122 32q63 0 105 -32l88 69zM457 403q12 50 -13 85q-26 35 -75 35q-51 0 -92 -35
q-43 -36 -55 -85t13 -83q26 -35 75 -35q50 0 93 34q42 34 54 84z" />
    <glyph glyph-name="AEacute" unicode="&#x1fc;" horiz-adv-x="1065" 
d="M890 1052l-249 -178l-36 48l227 207zM927 0h-484l46 187l11 12h-298l4 -12l-130 -187h-130l563 810h618l-28 -111h-372l4 -12l-53 -214l-15 -13h334l-27 -110h-334l9 -12l-53 -215l-15 -12h377zM530 310l-7 12l90 365l9 12h-72l1 -12l-254 -367l-13 -10h246z" />
    <glyph glyph-name="scedilla" unicode="&#x15f;" horiz-adv-x="654" 
d="M574 178q-17 -68 -82.5 -118.5t-187.5 -68.5h-1l11 -13q17 -20 11 -46t-36 -50l-112 -90l-41 55l81 66q26 21 29 33t-5 23l-16 22q-63 5 -120 31t-95 79l100 81q22 -25 42.5 -42t42.5 -27t45 -14.5t49 -4.5q41 0 71 7.5t50 19t31.5 25.5t15.5 28q3 12 1.5 22t-10 19.5
t-26 18.5t-47.5 17q-5 1 -19.5 5.5t-32 9.5t-32.5 9.5t-19 6.5q-38 11 -71 25.5t-55 35.5t-30.5 49t0.5 67q9 37 33.5 69.5t63 57.5t90.5 39.5t116 14.5q75 0 132.5 -26t96.5 -81l-100 -80q-26 42 -63.5 62t-91.5 20q-40 0 -68.5 -7.5t-48 -18.5t-29.5 -23.5t-13 -23.5
q-6 -26 19 -42t91 -35q4 -2 17.5 -6t28.5 -9t28.5 -9t18.5 -5q89 -26 121.5 -69.5t15.5 -108.5z" />
    <glyph glyph-name="Tcedilla" unicode="&#x162;" 
d="M806 699h-288l3 -12l-170 -687h-26l18 -22q17 -20 11.5 -46t-35.5 -50l-112 -90l-41 55l81 66q26 21 29 33t-5 23l-23 31h-15l169 687l10 12h-289l27 111h684z" />
    <glyph glyph-name="wcircumflex" unicode="&#x175;" horiz-adv-x="906" 
d="M754 743l-58 -47l-112 115l-2 -1l-166 -114l-35 47l232 187h2zM978 630l-341 -630h-126l-25 350l7 84h-2l-37 -84l-199 -350h-126l-28 630h122l15 -410l-7 -79h2l32 79l226 410h97l24 -410l-6 -79h2l32 79l217 410h121z" />
    <glyph glyph-name="wgrave" unicode="&#x1e81;" horiz-adv-x="906" 
d="M688 743l-59 -48l-162 178l96 78zM978 630l-341 -630h-126l-25 350l7 84h-2l-37 -84l-199 -350h-126l-28 630h122l15 -410l-7 -79h2l32 79l226 410h97l24 -410l-6 -79h2l32 79l217 410h121z" />
    <glyph glyph-name="softhyphen" unicode="&#xad;" horiz-adv-x="401" 
d="M370 275h-342l27 110h342z" />
  </font>
</defs>
</svg>
