<?xml version="1.0" standalone="no"?>
<!DOCTYPE svg PUBLIC "-//W3C//DTD SVG 1.1//EN" "http://www.w3.org/Graphics/SVG/1.1/DTD/svg11.dtd" >
<svg xmlns="http://www.w3.org/2000/svg" xmlns:xlink="http://www.w3.org/1999/xlink" version="1.1">
<metadata>
Created by FontForge 20180930 at Mon Oct  8 19:17:41 2018
 By root
Sinkin Sans 900 X Black by Keith Bates      (c) 2014   www.k-type.com      Sinkin Sans is a simple, pleasantly proportioned sans serif with tiny, inconspicuous notches that sink into vertical strokes adding highlights to congested corners.
</metadata>
<defs>
<font id="SinkinSans-900XBlack" horiz-adv-x="811" >
  <font-face 
    font-family="Sinkin Sans 900 X Black"
    font-weight="950"
    font-stretch="normal"
    units-per-em="1000"
    panose-1="0 0 0 0 0 0 0 0 0 0"
    ascent="810"
    descent="-190"
    x-height="629"
    cap-height="810"
    bbox="-100 -264 1533 1194"
    underline-thickness="50"
    underline-position="-100"
    unicode-range="U+0020-2122"
  />
    <missing-glyph />
    <glyph glyph-name="space" unicode=" " horiz-adv-x="310" 
 />
    <glyph glyph-name="Eth" unicode="&#xd0;" horiz-adv-x="948" 
d="M893 405q0 -45 -6.5 -92.5t-23.5 -92.5t-47.5 -85t-78.5 -70t-115.5 -47.5t-158.5 -17.5h-374v294l11 20h-75v182h75l-11 20v294h369q92 0 160 -17.5t116.5 -47.5t79.5 -70t48.5 -85t24 -92.5t6.5 -92.5zM669 405q0 48 -7.5 87.5t-30.5 67.5t-67 43.5t-116 15.5h-158
l20 -20v-83l-11 -20h200v-182h-200l11 -20v-83l-20 -20h163q71 0 113.5 15t65.5 43t30 67.5t7 88.5z" />
    <glyph glyph-name="eth" unicode="&#xf0;" horiz-adv-x="736" 
d="M691 303q0 -65 -21 -122t-62 -99.5t-102 -67t-141 -24.5t-140.5 24.5t-101.5 67t-62 99.5t-21 122q0 57 18 108.5t52.5 91.5t84.5 65.5t113 30.5h30l-26 38l-89 -34l-76 121l82 31l-64 92h238l18 -25l77 28l80 -119l-73 -30l120 -172q32 -46 49 -102t17 -124zM488 298
q0 64 -31.5 99.5t-91.5 35.5t-90.5 -35t-30.5 -100q0 -125 122 -125t122 125z" />
    <glyph glyph-name="Scaron" unicode="&#x160;" horiz-adv-x="894" 
d="M672 1089l-222 -214h-2l-224 214l86 85l138 -112l139 112zM844 238q0 -51 -24 -96t-72 -78.5t-120.5 -53.5t-169.5 -20q-118 0 -220.5 35.5t-187.5 111.5l150 150q27 -26 60.5 -45.5t70 -33t73.5 -20.5t71 -7q45 0 73 5t44 13t22 18t6 20q0 5 -2.5 12t-13.5 15.5
t-33 17.5t-61 18q-6 1 -28 6.5t-46.5 11t-46.5 10.5t-29 7q-53 13 -105 30.5t-93.5 45.5t-67.5 67.5t-26 95.5q0 53 26 98t75 78t119 51.5t158 18.5q120 0 215.5 -37.5t169.5 -106.5l-148 -148q-45 47 -110.5 75t-133.5 28q-80 0 -113.5 -16.5t-33.5 -34.5q0 -8 5.5 -14.5
t21.5 -13.5t45 -15t77 -20q6 -2 24.5 -6.5t39.5 -9.5t40 -9.5t26 -5.5q131 -30 202 -95t71 -153z" />
    <glyph glyph-name="scaron" unicode="&#x161;" horiz-adv-x="744" 
d="M596 907l-223 -214h-2l-223 214l85 85l139 -112l138 112zM699 197q0 -44 -21 -82t-61 -66t-99 -44t-135 -16q-102 0 -185 29t-153 87l132 131q44 -41 97 -60.5t107 -19.5q51 0 75 8.5t24 22.5q0 11 -12.5 17.5t-51.5 14.5q-5 1 -21 5t-34.5 8.5t-35 8.5t-21.5 5
q-39 9 -81.5 23t-77.5 36t-57.5 55t-22.5 81q0 45 22 82t62 62.5t97 39.5t126 14q92 0 170.5 -26.5t135.5 -77.5l-126 -125q-35 29 -82 45.5t-98 16.5q-43 0 -65.5 -8t-22.5 -21q0 -11 23.5 -18.5t68.5 -18.5l101 -23q51 -11 92 -26.5t70 -38t44.5 -52t15.5 -69.5z" />
    <glyph glyph-name="Yacute" unicode="&#xdd;" horiz-adv-x="1031" 
d="M696 1071l-234 -198l-89 89l200 232zM1016 810l-389 -480v-330h-222v330l-390 480h277l176 -226l46 -79h2l46 79l178 226h276z" />
    <glyph glyph-name="yacute" unicode="&#xfd;" horiz-adv-x="836" 
d="M583 870l-234 -199l-89 89l199 233zM824 630l-316 -683q-36 -78 -95.5 -120t-144.5 -42q-48 0 -88 6.5t-80 21.5v187q47 -24 80 -33.5t62 -9.5q26 0 47 10.5t35 46.5l-312 616h240l136 -283l36 -109h2l36 109l123 283h239z" />
    <glyph glyph-name="Thorn" unicode="&#xde;" horiz-adv-x="898" 
d="M853 404q0 -58 -23 -108t-66 -86.5t-104.5 -57t-137.5 -20.5h-231l20 -20v-112h-221v810h220v-114l-20 -20h233q76 0 137 -20t104 -56t66 -86t23 -110zM629 404q0 37 -22 59t-84 22h-232l20 -20v-121l-20 -20h231q31 0 51.5 6t33 16.5t17.5 25.5t5 32z" />
    <glyph glyph-name="thorn" unicode="&#xfe;" horiz-adv-x="829" 
d="M784 314q0 -73 -19 -133t-59 -102.5t-101.5 -65.5t-145.5 -23q-40 0 -85 11t-79 30h-2v-241h-218v1050h218v-249h2q15 11 34.5 20t41.5 15t44 9.5t43 3.5q85 0 146.5 -24t101.5 -67t59 -102.5t19 -131.5zM567 311q0 70 -31.5 103.5t-109.5 33.5q-77 0 -109 -33t-32 -104
q0 -73 31 -103.5t109 -30.5t110 31t32 103z" />
    <glyph glyph-name="Zcaron" unicode="&#x17d;" horiz-adv-x="911" 
d="M677 1089l-222 -214h-2l-224 214l86 85l138 -112l139 112zM851 0h-791v147l378 393l99 77v2h-467v191h776v-146l-380 -395l-93 -76v-2h478v-191z" />
    <glyph glyph-name="zcaron" unicode="&#x17e;" horiz-adv-x="753" 
d="M601 907l-223 -214h-2l-223 214l85 85l139 -112l138 112zM703 0h-653v137l258 254l78 54v2h-329v182h642v-133l-259 -250l-83 -62v-2h346v-182z" />
    <glyph glyph-name="onehalf" unicode="&#xbd;" horiz-adv-x="1016" 
d="M961 312q0 -53 -34.5 -88.5t-100.5 -55.5l-65 -20q-26 -8 -31 -23h231v-126h-389v102q0 25 7.5 50.5t23.5 48t41.5 40.5t60.5 29l54 17q18 5 27.5 9t14 7t5.5 5.5t1 4.5q0 3 -6 9.5t-36 6.5q-31 0 -60 -14.5t-54 -45.5l-89 90q45 50 93 73t110 23q98 0 147 -41t49 -101z
M684 820l-303 -830h-161l304 830h160zM302 355h-152v247l6 29h-2l-15 -22l-18 -17l-91 87l143 131h129v-455z" />
    <glyph glyph-name="onequarter" unicode="&#xbc;" horiz-adv-x="993" 
d="M938 86h-50l1 -87h-154v87h-232v93l258 275h128v-242h49v-126zM684 820l-302 -830h-161l303 830h160zM302 355h-152v247l6 29h-2l-15 -22l-18 -17l-91 87l143 131h129v-455zM734 253h-2l-7 -16l-15 -17l-14 -7v-2h38v42z" />
    <glyph glyph-name="onesuperior" unicode="&#xb9;" horiz-adv-x="377" 
d="M302 355h-152v247l6 29h-2l-15 -22l-18 -17l-91 87l143 131h129v-455z" />
    <glyph glyph-name="threequarters" unicode="&#xbe;" horiz-adv-x="1126" 
d="M1071 86h-50l1 -87h-154v87h-232v93l258 275h128v-242h49v-126zM817 820l-302 -830h-161l303 830h160zM485 507q0 -38 -21 -66.5t-53 -47.5t-70.5 -28.5t-74.5 -9.5q-35 0 -63.5 5t-53.5 15.5t-47.5 27.5t-46.5 40l83 83q15 -14 29.5 -23t29.5 -14.5t31.5 -7.5t37.5 -2
q22 0 35 3.5t20 8t9 9.5t2 8t-1.5 7t-7.5 8t-17.5 7.5t-31.5 5.5q-7 0 -21.5 0.5t-29.5 0.5q-18 0 -38 1v117q20 0 38 1q15 0 29 0.5t19 1.5q36 3 44 10t8 12q0 2 -1.5 5.5t-7 6.5t-16 5.5t-28.5 2.5q-41 0 -70.5 -9t-59.5 -36l-83 84q30 24 55 39.5t48.5 24.5t49 13t57.5 4
q47 0 86 -10t66.5 -28.5t42.5 -44t15 -55.5q0 -20 -12 -41.5t-29 -38.5q22 -17 35.5 -40.5t13.5 -54.5zM867 253h-2l-7 -16l-15 -17l-14 -7v-2h38v42z" />
    <glyph glyph-name="threesuperior" unicode="&#xb3;" horiz-adv-x="540" 
d="M485 507q0 -38 -21 -66.5t-53 -47.5t-70.5 -28.5t-74.5 -9.5q-35 0 -63.5 5t-53.5 15.5t-47.5 27.5t-46.5 40l83 83q15 -14 29.5 -23t29.5 -14.5t31.5 -7.5t37.5 -2q22 0 35 3.5t20 8t9 9.5t2 8t-1.5 7t-7.5 8t-17.5 7.5t-31.5 5.5q-7 0 -21.5 0.5t-29.5 0.5q-18 0 -38 1
v117q20 0 38 1q15 0 29 0.5t19 1.5q36 3 44 10t8 12q0 2 -1.5 5.5t-7 6.5t-16 5.5t-28.5 2.5q-41 0 -70.5 -9t-59.5 -36l-83 84q30 24 55 39.5t48.5 24.5t49 13t57.5 4q47 0 86 -10t66.5 -28.5t42.5 -44t15 -55.5q0 -20 -12 -41.5t-29 -38.5q22 -17 35.5 -40.5t13.5 -54.5z
" />
    <glyph glyph-name="twosuperior" unicode="&#xb2;" horiz-adv-x="509" 
d="M454 674q0 -53 -34.5 -88.5t-100.5 -56.5l-65 -20q-26 -8 -31 -22h231v-126h-389v102q0 25 7.5 50t23.5 47.5t41.5 40.5t60.5 29l54 17q18 6 27.5 10t14 7t5.5 5.5t1 4.5q0 1 -1 4t-5 5.5t-12.5 4.5t-23.5 2q-31 0 -60 -14.5t-53 -45.5l-90 89q45 51 93 73.5t110 22.5
q98 0 147 -40.5t49 -100.5z" />
    <glyph glyph-name="brokenbar" unicode="&#xa6;" horiz-adv-x="380" 
d="M287 450h-195v410h195v-410zM287 -50h-195v409h195v-409z" />
    <glyph glyph-name="multiply" unicode="&#xd7;" horiz-adv-x="722" 
d="M647 245l-126 -126l-160 164l-160 -164l-126 126l163 160l-163 160l126 126l160 -164l160 164l126 -126l-164 -160z" />
    <glyph glyph-name="exclam" unicode="!" horiz-adv-x="388" 
d="M318 810l-36 -561h-176l-36 561h248zM307 98q0 -50 -29 -81.5t-83 -31.5t-83 31.5t-29 81.5t29 81.5t83 31.5t83 -31.5t29 -81.5z" />
    <glyph glyph-name="quotedbl" unicode="&#x22;" horiz-adv-x="541" 
d="M486 840l-25 -329h-137l-25 329h187zM242 840l-25 -329h-137l-25 329h187z" />
    <glyph glyph-name="numbersign" unicode="#" horiz-adv-x="850" 
d="M820 456h-143l2 -20l-17 -63l-14 -19h95v-172l-143 1l3 -20l-45 -163h-192l45 163l17 20h-128l3 -20l-45 -163h-193l46 162l17 21l-98 -1v172h143l-4 20l19 63l15 19h-96v171l145 1l-6 20l47 162h192l-46 -162l-15 -21l128 1l-5 22l47 160h191l-46 -162l-15 -20l96 -1
v-171zM520 467h-154l4 -20l-23 -83l-14 -20h153l-5 20l24 83z" />
    <glyph glyph-name="dollar" unicode="$" horiz-adv-x="853" 
d="M783 218q0 -41 -17.5 -79.5t-51 -69.5t-82 -53t-109.5 -31l10 -20v-75h-202v76l13 19q-77 11 -146 44t-143 96l141 141q61 -70 145 -94l-10 23v85l11 17q-51 13 -98 29.5t-83 41.5t-58 61t-22 88q0 42 17.5 79.5t51 67.5t82 51t109.5 29l-10 20v75h202v-77l-10 -22
q73 -11 135 -42t113 -88l-144 -142q-22 29 -48.5 46.5t-58.5 28.5l13 -25v-51l-12 -16q3 -1 7 -2l8 -2q120 -28 183.5 -86t63.5 -143zM342 558q-42 -5 -42 -31q0 -11 12 -18t29 -11l-10 20v19zM566 205q0 14 -10.5 23t-32.5 20l6 -23v-36l-7 -22q23 8 33.5 18t10.5 20z" />
    <glyph glyph-name="percent" unicode="%" horiz-adv-x="1093" 
d="M1063 221q0 -46 -12.5 -87.5t-39 -73.5t-67 -51t-96.5 -19t-96.5 19t-67 51t-39 73.5t-12.5 87.5q0 45 13 87.5t39.5 75t67 52.5t95.5 20q56 0 96.5 -19.5t67 -52.5t39 -75.5t12.5 -87.5zM780 820l-301 -830h-165l300 830h166zM460 586q0 -46 -12.5 -87.5t-39 -73.5
t-67 -51t-96.5 -19t-96.5 19t-67 51t-39 73.5t-12.5 87.5q0 45 13 87.5t39.5 75t67 52.5t95.5 20q56 0 96.5 -20t67 -52.5t39 -75t12.5 -87.5zM900 221q0 28 -4 46t-11 28t-16.5 13.5t-20.5 3.5t-20 -3.5t-16.5 -13.5t-11.5 -28t-4 -46q0 -27 4 -44t11.5 -26.5t16.5 -13
t20 -3.5t20.5 3t16.5 12.5t11 26.5t4 45zM297 586q0 28 -4 46t-11 28t-16.5 13.5t-20.5 3.5t-20.5 -3.5t-16.5 -13.5t-11 -28t-4 -46q0 -27 4 -44.5t11.5 -27t16.5 -13t20 -3.5t20.5 3.5t16.5 13t11 26.5t4 45z" />
    <glyph glyph-name="ampersand" unicode="&#x26;" horiz-adv-x="908" 
d="M908 -1h-253l-23 24v20q-37 -23 -96 -39t-125 -16q-68 0 -132.5 14.5t-114 44.5t-79.5 76.5t-30 109.5q0 37 13.5 69.5t37.5 60.5t56.5 52t70.5 45l-21 9q-28 32 -40.5 62t-12.5 67q0 47 20 87t54.5 69.5t80 46.5t96.5 17t96.5 -16.5t80 -46t55 -70t20.5 -87.5
q0 -36 -10.5 -65.5t-29 -53.5t-44.5 -43.5t-56 -35.5l20 -12l62 -64l11 -22v38h199v-44q0 -49 -13 -88t-40 -66l20 -8zM459 598q0 14 -12 25.5t-35 11.5t-36.5 -11.5t-13.5 -25.5q0 -13 9 -24.5t18 -22.5v-20q38 18 54 34t16 33zM497 178l-22 11l-111 120v20
q-5 -2 -12.5 -6.5t-11.5 -7.5q-5 -2 -10 -5.5t-10 -6.5t-11 -7.5t-11 -7.5q-30 -24 -30 -55q0 -11 6 -22t22 -20.5t44 -15.5t71 -6q26 0 48.5 2.5t37.5 6.5z" />
    <glyph glyph-name="quotesingle" unicode="'" horiz-adv-x="297" 
d="M242 840l-25 -329h-137l-25 329h187z" />
    <glyph glyph-name="parenleft" unicode="(" horiz-adv-x="412" 
d="M402 -191h-203q-43 74 -73 143t-49 136t-28 134t-9 136q0 70 9.5 138t29 135.5t49.5 136t71 139.5h202q-39 -75 -66 -144t-44 -135t-25 -129.5t-8 -128.5q0 -68 7.5 -135.5t24 -137t44 -141t68.5 -147.5z" />
    <glyph glyph-name="parenright" unicode=")" horiz-adv-x="412" 
d="M372 358q0 -69 -9 -136t-28 -134t-49.5 -136t-72.5 -143h-203q40 76 67.5 147.5t44 141t24 137t7.5 135.5q0 65 -7.5 128.5t-24.5 129.5t-44 135t-66 144h202q41 -71 71 -139.5t49.5 -136t29 -135.5t9.5 -138z" />
    <glyph glyph-name="asterisk" unicode="*" horiz-adv-x="603" 
d="M548 624l-28 -122l-113 31l56 -99l-117 -54l-45 104l-45 -105l-117 54l57 100l-112 -31l-29 122l116 20l-96 65l81 98l88 -75l-7 113h129l-6 -114l87 76l81 -98l-96 -66z" />
    <glyph glyph-name="plus" unicode="+" horiz-adv-x="751" 
d="M661 313h-199l5 -13v-200h-183v200l5 13h-199v184h199l-5 13v201h183v-201l-5 -13h199v-184z" />
    <glyph glyph-name="comma" unicode="," horiz-adv-x="343" 
d="M273 104q0 -18 -5.5 -38t-11.5 -34l-102 -223l-94 42l54 119l30 21q-23 3 -39 14t-26 27t-14.5 34.5t-4.5 37.5q0 48 26.5 81t79.5 33t80 -33t27 -81z" />
    <glyph glyph-name="hyphen" unicode="-" horiz-adv-x="455" 
d="M425 244h-395v182h395v-182z" />
    <glyph glyph-name="period" unicode="." horiz-adv-x="343" 
d="M273 104q0 -49 -27.5 -82t-79.5 -33q-53 0 -79.5 33t-26.5 82q0 48 26.5 81t79.5 33q54 0 80.5 -33t26.5 -81z" />
    <glyph glyph-name="slash" unicode="/" horiz-adv-x="367" 
d="M437 860l-306 -910h-201l306 910h201z" />
    <glyph glyph-name="zero" unicode="0" horiz-adv-x="881" 
d="M826 401q0 -87 -23.5 -162t-71.5 -130.5t-120.5 -87t-170.5 -31.5q-97 0 -169.5 31.5t-120.5 87t-71.5 130.5t-23.5 162q0 86 24.5 162t73 133t120.5 90.5t167 33.5q97 0 169.5 -33t120.5 -90t72 -133.5t24 -162.5zM605 401q0 112 -39 169.5t-125 57.5q-81 0 -123 -57
t-42 -170q0 -219 164 -219q82 0 123.5 52.5t41.5 166.5z" />
    <glyph glyph-name="one" unicode="1" horiz-adv-x="536" 
d="M436 0h-221v471l8 58h-2l-30 -47l-35 -36l-136 135l239 229h177v-810z" />
    <glyph glyph-name="two" unicode="2" horiz-adv-x="807" 
d="M752 572q0 -92 -61.5 -152.5t-188.5 -98.5l-129 -38q-53 -17 -73 -35t-20 -38l-17 -20h488v-190h-693q-1 29 -1 60v124q0 98 57.5 172t187.5 113l109 33q39 12 62.5 21.5t36.5 17.5t17 16t4 17q0 18 -24.5 36.5t-82.5 18.5q-62 0 -121 -28.5t-103 -81.5l-145 145
q71 78 162 117t195 39q85 0 148.5 -20t106 -54.5t64 -79.5t21.5 -94z" />
    <glyph glyph-name="three" unicode="3" horiz-adv-x="842" 
d="M787 250q0 -50 -22 -97t-66.5 -83t-112.5 -58t-159 -22q-61 0 -110 8t-92.5 26t-84.5 47t-85 71l141 139q88 -100 231 -100q29 0 54 6t43.5 16.5t29 24t10.5 29.5q0 14 -6.5 27t-21.5 22.5t-40 15.5t-62 6q-13 0 -39.5 0.5t-53.5 1.5q-32 1 -67 2v177q36 1 67 2
q26 1 51 1t35 1q37 1 60.5 6.5t36.5 13t18 17.5t5 21t-6.5 21.5t-21 19t-37 13.5t-55.5 5q-60 0 -115.5 -20.5t-106.5 -71.5l-144 145q39 35 79 60.5t84 42.5t93.5 25.5t108.5 8.5q89 0 154 -17.5t107.5 -48.5t63 -73.5t20.5 -91.5t-27 -91.5t-76 -69.5v-2
q54 -22 86.5 -67.5t32.5 -108.5z" />
    <glyph glyph-name="four" unicode="4" horiz-adv-x="846" 
d="M806 163l-114 1l10 -20l-1 -144h-221v143l11 20h-451v141l491 506h170v-435l-9 -21h114v-191zM490 354l-10 20v127h-2l-22 -41l-69 -79l-35 -25v-2h138z" />
    <glyph glyph-name="five" unicode="5" horiz-adv-x="830" 
d="M775 290q0 -63 -22 -118t-66.5 -95.5t-112 -64t-158.5 -23.5q-60 0 -110 8.5t-94 24.5t-82.5 40t-74.5 56l146 146q38 -38 90 -61t108 -23q42 0 71 9t47 23.5t26 33t8 37.5q0 17 -8.5 35.5t-26.5 33.5t-46.5 25t-68.5 10q-31 0 -57 -4t-49.5 -12.5t-46.5 -22.5t-48 -35
l-134 134l50 363h594v-190h-418l14 -18l-4 -32l-17 -21l1 -1q11 6 27.5 11t35.5 9t38 6.5t36 2.5q89 0 155.5 -20.5t110 -58t65 -90.5t21.5 -118z" />
    <glyph glyph-name="six" unicode="6" horiz-adv-x="871" 
d="M816 282q-1 -56 -24.5 -109t-69.5 -94t-115.5 -65.5t-162.5 -24.5q-94 0 -166.5 32t-122 87.5t-75 131t-25.5 162.5q0 95 32.5 172.5t88.5 132t131.5 84t162.5 29.5q101 0 172.5 -24t129.5 -72l-142 -141q-21 15 -39.5 24.5t-37.5 15t-39 7.5t-45 2q-59 0 -102.5 -23.5
t-66.5 -68.5l1 -1q15 7 34.5 13.5t40.5 11.5t41.5 7.5t37.5 2.5q89 0 157 -23t113.5 -62.5t68.5 -93t22 -113.5zM594 284q0 15 -7 33t-24.5 33.5t-45.5 26t-70 10.5q-40 0 -68.5 -11t-47 -27t-27.5 -34.5t-9 -33.5t7 -32.5t24.5 -32.5t45.5 -25.5t69 -10.5q39 0 68 10.5
t47.5 26t28 34t9.5 33.5z" />
    <glyph glyph-name="seven" unicode="7" horiz-adv-x="786" 
d="M756 665l-234 -263q-34 -38 -54.5 -95.5t-20.5 -129.5v-177h-221v182q0 55 6 99t19.5 82.5t36.5 75t58 76.5l44 52l55 50v2h-415v191h726v-145z" />
    <glyph glyph-name="eight" unicode="8" horiz-adv-x="878" 
d="M823 253q0 -52 -26 -99.5t-75 -84t-120.5 -58t-162.5 -21.5t-162.5 21.5t-120.5 58t-75 84t-26 99.5q0 59 32.5 106.5t89.5 72.5v2q-42 22 -67.5 59.5t-25.5 84.5q0 51 22.5 95t66.5 76.5t110.5 51.5t153.5 19t153.5 -18.5t112 -51.5t69 -77t23.5 -95q0 -45 -26.5 -83
t-68.5 -60v-2q52 -24 87.5 -70.5t35.5 -109.5zM570 568q0 5 -3 15t-16 20.5t-39.5 18.5t-72.5 8q-47 0 -73 -8t-39 -18.5t-16 -20.5t-3 -15q0 -4 4.5 -14t18 -20t39.5 -17.5t68 -7.5q43 0 69 7.5t40 17.5t18.5 19.5t4.5 14.5zM599 260q0 9 -7 22.5t-25 26t-49 21.5t-80 9
q-50 0 -81 -9t-48.5 -21.5t-23.5 -26t-6 -22.5t6.5 -22.5t24 -26.5t48.5 -22t81 -9t81 9.5t48.5 22.5t24 26.5t6.5 21.5z" />
    <glyph glyph-name="nine" unicode="9" horiz-adv-x="871" 
d="M816 408q0 -96 -32.5 -173t-88.5 -132t-132 -84.5t-163 -29.5q-101 0 -172 24t-129 72l142 141q21 -15 39.5 -24.5t37 -15t38.5 -8t44 -2.5q61 0 105.5 25.5t65.5 67.5l-1 1q-15 -8 -35 -14t-41 -11t-41.5 -7.5t-37.5 -2.5q-89 0 -156.5 23t-113 63t-68.5 93t-22 113
q1 56 24.5 109t69.5 94t115.5 65.5t162.5 24.5q94 0 166.5 -32t122 -87.5t75 -130.5t25.5 -162zM576 528q0 15 -7 32.5t-24.5 33t-45.5 26t-69 10.5q-40 0 -68.5 -10.5t-47.5 -26.5t-28 -34t-9 -34q0 -15 7 -33t24 -33.5t45 -26t70 -10.5q40 0 69 11t47.5 27t27.5 34.5
t9 33.5z" />
    <glyph glyph-name="colon" unicode=":" horiz-adv-x="353" 
d="M283 517q0 -49 -27.5 -82t-79.5 -33q-53 0 -79.5 33t-26.5 82q0 48 26.5 81t79.5 33q54 0 80.5 -33t26.5 -81zM283 99q0 -49 -27.5 -82t-79.5 -33q-53 0 -79.5 33t-26.5 82q0 48 26.5 81t79.5 33q54 0 80.5 -33t26.5 -81z" />
    <glyph glyph-name="semicolon" unicode=";" horiz-adv-x="353" 
d="M283 517q0 -49 -27.5 -82t-79.5 -33q-53 0 -79.5 33t-26.5 82q0 48 26.5 81t79.5 33q54 0 80.5 -33t26.5 -81zM283 103q0 -18 -5.5 -38t-11.5 -34l-102 -223l-94 42l54 119l30 21q-23 3 -39 14t-26 27t-14.5 34.5t-4.5 37.5q0 48 26.5 81t79.5 33t80 -33t27 -81z" />
    <glyph glyph-name="less" unicode="&#x3c;" horiz-adv-x="615" 
d="M525 193l-133 -133l-337 339l336 361l134 -134l-166 -180l-52 -42l52 -41z" />
    <glyph glyph-name="equal" unicode="=" horiz-adv-x="751" 
d="M661 440h-571v185h571v-185zM661 185h-571v185h571v-185z" />
    <glyph glyph-name="greater" unicode="&#x3e;" horiz-adv-x="615" 
d="M560 399l-337 -339l-133 133l166 170l52 41l-52 42l-166 180l134 134z" />
    <glyph glyph-name="question" unicode="?" horiz-adv-x="762" 
d="M707 592q0 -48 -17 -81.5t-45.5 -58t-65 -42.5t-76.5 -34q-20 -8 -33.5 -16.5t-22 -19t-12.5 -24.5t-4 -35v-32h-210v45q0 51 12 88t31.5 63.5t44.5 44t51 29.5q24 12 47.5 20.5t42.5 16.5q18 9 25.5 18t7.5 19q0 18 -20 29.5t-65 11.5q-57 0 -107 -24t-91 -70l-145 145
q39 37 77.5 62.5t79 41.5t84 23.5t93.5 7.5q52 0 108 -11.5t102.5 -38.5t77 -70.5t30.5 -107.5zM439 98q0 -50 -29 -81.5t-83 -31.5t-83 31.5t-29 81.5t29 81.5t83 31.5t83 -31.5t29 -81.5z" />
    <glyph glyph-name="at" unicode="@" horiz-adv-x="1007" 
d="M937 443q0 -48 -16 -100t-47 -95t-77 -71t-107 -28q-36 0 -65 15t-48 41q-32 -29 -73 -44t-80 -15q-50 0 -85.5 19t-59 49t-34.5 68.5t-11 77.5q0 51 18.5 102t52 91.5t80 66t102.5 25.5q31 0 57 -10.5t41 -25.5h2l7 25h142l-61 -267q-6 -25 -8 -38.5t-2 -27.5
q0 -17 10 -27.5t31 -10.5q31 0 52 16t34.5 42t19.5 57.5t6 63.5q0 61 -23.5 116.5t-64.5 97.5t-96 66.5t-117 24.5q-68 0 -127.5 -26.5t-104.5 -72t-71 -106t-26 -127.5q0 -71 25 -133.5t69.5 -109t105.5 -73t132 -26.5q46 0 92 16t97 50l81 -78q-67 -49 -134 -72.5
t-131 -23.5q-97 0 -180 34t-144 94t-96 143.5t-35 182.5q0 90 36.5 169.5t98 138.5t142 93t169.5 34q85 0 161 -31.5t134 -87t92 -130.5t34 -162zM541 432q0 33 -11.5 53t-40.5 20q-21 0 -39.5 -12t-31.5 -30.5t-20.5 -41t-7.5 -43.5q0 -40 13 -61.5t44 -21.5
q22 0 39.5 11.5t29.5 31t18.5 44t6.5 50.5z" />
    <glyph glyph-name="A" unicode="A" horiz-adv-x="1041" 
d="M1026 0h-242l-85 167l13 20h-382l13 -20l-84 -167h-244l416 810h181zM612 359l-21 21l-46 91l-22 66h-2l-24 -66l-45 -91l-20 -21h180z" />
    <glyph glyph-name="B" unicode="B" horiz-adv-x="913" 
d="M868 254q0 -61 -24 -108t-68 -79.5t-106 -49.5t-137 -17h-443v810h434q75 0 132.5 -19.5t96.5 -52.5t59.5 -77.5t20.5 -94.5q0 -42 -16.5 -79t-46.5 -62v-2q44 -22 71 -64t27 -105zM609 561q0 11 -3 21.5t-13 18.5t-29 13t-50 5h-223l20 -20v-78l-20 -20h223q31 0 50 5.5
t29 14.5t13 19.5t3 20.5zM644 259q0 13 -4 25.5t-16 22.5t-34 16t-58 6h-241l20 -20v-98l-20 -20h242q36 0 58 6t33.5 15.5t15.5 21.5t4 25z" />
    <glyph glyph-name="C" unicode="C" horiz-adv-x="907" 
d="M877 667l-148 -147q-38 54 -90.5 80.5t-117.5 26.5q-62 0 -107.5 -16.5t-75.5 -46.5t-44.5 -71.5t-14.5 -91.5q0 -49 14 -89.5t43 -69.5t75 -45t109 -16q132 0 214 103l142 -142q-70 -74 -161 -113.5t-201 -39.5q-112 0 -197.5 30.5t-143.5 85t-88 130t-30 166.5
q0 90 30 167t88.5 132.5t144 87t195.5 31.5q117 0 204 -36.5t160 -115.5z" />
    <glyph glyph-name="D" unicode="D" horiz-adv-x="949" 
d="M894 405q0 -45 -6.5 -92.5t-23.5 -92.5t-47.5 -85t-78.5 -70t-115.5 -47.5t-158.5 -17.5h-374v810h369q92 0 160 -17.5t116.5 -47.5t79.5 -70t48.5 -85t24 -92.5t6.5 -92.5zM670 405q0 48 -7.5 87.5t-30.5 67.5t-67 43.5t-116 15.5h-158l20 -20v-388l-20 -20h163
q71 0 113.5 15t65.5 43t30 67.5t7 88.5z" />
    <glyph glyph-name="E" unicode="E" horiz-adv-x="881" 
d="M811 0h-721v810h721v-191h-520l20 -20v-78l-20 -20h472v-192h-472l20 -20v-78l-20 -20h520v-191z" />
    <glyph glyph-name="F" unicode="F" horiz-adv-x="821" 
d="M791 619h-500l20 -20v-95l-20 -21h449v-191h-449l20 -20v-272h-221v810h701v-191z" />
    <glyph glyph-name="G" unicode="G" horiz-adv-x="1011" 
d="M921 -1h-191v58h-2q-13 -12 -36.5 -24t-53 -21.5t-62 -15.5t-64.5 -6q-108 0 -192.5 29t-143.5 82.5t-90 128.5t-31 168q0 94 31.5 172t91.5 133.5t146 86t194 30.5q112 0 201 -35t146 -93l-146 -146q-38 41 -87 62t-113 21q-125 0 -182.5 -59t-57.5 -172
q0 -106 55.5 -161.5t178.5 -55.5q84 0 132.5 31.5t61.5 77.5l18 20h-279v191h475v-502z" />
    <glyph glyph-name="H" unicode="H" horiz-adv-x="971" 
d="M881 0h-221v289l20 20h-389l20 -20v-289h-221v810h221v-289l-20 -20h389l-20 20v289h221v-810z" />
    <glyph glyph-name="I" unicode="I" horiz-adv-x="411" 
d="M316 0h-221v810h221v-810z" />
    <glyph glyph-name="J" unicode="J" horiz-adv-x="739" 
d="M654 311q0 -89 -28.5 -150t-77 -99t-112.5 -55t-134 -17q-93 0 -165.5 35.5t-136.5 109.5l142 142q35 -46 75.5 -70.5t85.5 -25.5q23 0 46.5 6t42 20t30 38.5t11.5 61.5v503h221v-499z" />
    <glyph glyph-name="K" unicode="K" horiz-adv-x="976" 
d="M976 0h-295l-359 408l350 401h292l-369 -401zM311 0h-221v810h221v-810z" />
    <glyph glyph-name="L" unicode="L" horiz-adv-x="779" 
d="M764 0h-674v810h221v-599l-20 -20h473v-191z" />
    <glyph glyph-name="M" unicode="M" horiz-adv-x="1101" 
d="M1011 -2h-221v389h-2l-36 -80l-201 -318h-1l-202 318l-35 81h-2v-390h-221v812h181l241 -396l37 -87h2l34 87l244 396h182v-812z" />
    <glyph glyph-name="N" unicode="N" horiz-adv-x="971" 
d="M881 0h-181l-314 360l-73 106h-2v-466h-221v810h180l318 -360l70 -100h2v460h221v-810z" />
    <glyph glyph-name="O" unicode="O" horiz-adv-x="995" 
d="M940 401q0 -90 -29.5 -165.5t-85.5 -130t-139 -85t-189 -30.5q-108 0 -190.5 30.5t-138.5 85t-84.5 130t-28.5 165.5q0 89 28.5 165.5t84 133t138.5 88.5t191 32q109 0 192 -32t138.5 -88t84 -132.5t28.5 -166.5zM716 401q0 50 -12.5 92t-38.5 72t-67.5 46.5t-99.5 16.5
t-99.5 -16t-68 -46t-39 -72t-12.5 -93q0 -50 12.5 -90.5t38.5 -69t67.5 -44t100.5 -15.5q58 0 99.5 15.5t68 44t38.5 69t12 90.5z" />
    <glyph glyph-name="P" unicode="P" horiz-adv-x="898" 
d="M853 538q0 -58 -22 -108t-64.5 -86.5t-104 -57t-140.5 -20.5h-231l20 -20v-246h-221v810h433q78 0 139.5 -20t104 -56t64.5 -86t22 -110zM629 538q0 37 -22 59t-84 22h-232l20 -20v-121l-20 -20h231q62 0 84.5 22.5t22.5 57.5z" />
    <glyph glyph-name="Q" unicode="Q" horiz-adv-x="995" 
d="M951 25l-133 -136l-130 130q-40 -15 -87 -23.5t-104 -8.5q-108 0 -190.5 30t-138.5 84.5t-84.5 130t-28.5 165.5t28.5 167.5t84 134t138.5 89t191 32.5q109 0 192 -32t138.5 -89t84 -134.5t28.5 -167.5q0 -76 -22 -147.5t-69 -122.5zM716 397q0 51 -12.5 93t-38.5 72.5
t-67.5 47.5t-99.5 17t-99.5 -16.5t-68 -46.5t-39 -72.5t-12.5 -94.5q0 -50 12.5 -90.5t39.5 -69t69 -44t101 -15.5h28l-69 68l137 133l104 -105v23q8 26 11.5 50t3.5 50z" />
    <glyph glyph-name="R" unicode="R" horiz-adv-x="952" 
d="M947 0h-248l-118 215q-20 37 -53 54.5t-98 17.5h-139l20 -20v-267h-221v810h418q163 0 249 -65.5t86 -186.5q0 -30 -10 -59.5t-28 -55t-43 -46.5t-54 -34v-2q23 -9 44.5 -29t35.5 -47zM619 541q0 33 -25 55.5t-86 22.5h-217l20 -20v-115l-20 -20h206q70 0 96 21.5
t26 55.5z" />
    <glyph glyph-name="S" unicode="S" horiz-adv-x="894" 
d="M844 238q0 -51 -24 -96t-72 -78.5t-120.5 -53.5t-169.5 -20q-118 0 -220.5 35.5t-187.5 111.5l150 150q27 -26 60.5 -45.5t70 -33t73.5 -20.5t71 -7q45 0 73 5t44 13t22 18t6 20q0 5 -2.5 12t-13.5 15.5t-33 17.5t-61 18q-6 1 -28 6.5t-46.5 11t-46.5 10.5t-29 7
q-53 13 -105 30.5t-93.5 45.5t-67.5 67.5t-26 95.5q0 53 26 98t75 78t119 51.5t158 18.5q120 0 215.5 -37.5t169.5 -106.5l-148 -148q-45 47 -110.5 75t-133.5 28q-80 0 -113.5 -16.5t-33.5 -34.5q0 -8 5.5 -14.5t21.5 -13.5t45 -15t77 -20q6 -2 24.5 -6.5t39.5 -9.5
t40 -9.5t26 -5.5q131 -30 202 -95t71 -153z" />
    <glyph glyph-name="T" unicode="T" horiz-adv-x="821" 
d="M801 619h-291l11 -20v-599h-221v599l12 20h-292v191h781v-191z" />
    <glyph glyph-name="U" unicode="U" horiz-adv-x="983" 
d="M898 375q0 -90 -25 -161.5t-75.5 -121t-126.5 -76t-179 -26.5q-102 0 -178.5 26t-127.5 75.5t-76 121t-25 162.5v435h221v-434q0 -51 9.5 -87.5t31.5 -60.5t57.5 -35.5t87.5 -11.5q101 0 143 47t42 148v434h221v-435z" />
    <glyph glyph-name="V" unicode="V" horiz-adv-x="994" 
d="M979 810l-390 -810h-184l-390 810h245l208 -449l29 -90h2l27 90l210 449h243z" />
    <glyph glyph-name="W" unicode="W" horiz-adv-x="1207" 
d="M1182 810l-251 -810h-220l-91 301l-19 100h-2l-20 -100l-88 -301h-215l-251 810h233l109 -374l21 -102h2l19 102l112 374h166l110 -374l20 -102h2l20 102l112 374h231z" />
    <glyph glyph-name="X" unicode="X" horiz-adv-x="1001" 
d="M981 0h-279l-158 190l-42 73h-2l-43 -73l-158 -190h-279l342 405l-342 405h280l155 -186l46 -73h2l43 73l157 186h277l-340 -404z" />
    <glyph glyph-name="Y" unicode="Y" horiz-adv-x="1031" 
d="M1016 810l-389 -480v-330h-222v330l-390 480h277l176 -226l46 -79h2l46 79l178 226h276z" />
    <glyph glyph-name="Z" unicode="Z" horiz-adv-x="911" 
d="M851 0h-791v147l378 393l99 77v2h-467v191h776v-146l-380 -395l-93 -76v-2h478v-191z" />
    <glyph glyph-name="bracketleft" unicode="[" horiz-adv-x="379" 
d="M359 -190h-299v1097h299v-176h-111v-744h111v-177z" />
    <glyph glyph-name="backslash" unicode="\" horiz-adv-x="447" 
d="M477 -50h-201l-306 910h201z" />
    <glyph glyph-name="bracketright" unicode="]" horiz-adv-x="380" 
d="M320 -190h-300v177h112v744h-112v176h300v-1097z" />
    <glyph glyph-name="asciicircum" unicode="^" horiz-adv-x="854" 
d="M779 415h-241l-88 136l-22 51h-2l-22 -51l-87 -136h-242l280 395h144z" />
    <glyph glyph-name="underscore" unicode="_" horiz-adv-x="688" 
d="M698 -210h-708v155h708v-155z" />
    <glyph glyph-name="grave" unicode="`" horiz-adv-x="796" 
d="M530 770l-89 -89l-234 199l123 123z" />
    <glyph glyph-name="a" unicode="a" horiz-adv-x="796" 
d="M726 377v-379h-217v32q-28 -17 -72.5 -29t-91.5 -12q-44 0 -96.5 8.5t-97.5 31.5t-75.5 63.5t-30.5 104.5q0 47 21 80.5t56 57t80 37.5t92 21.5t93 10t84 2.5h56l-19 19q0 17 -24 30t-74 13q-48 0 -89.5 -10t-90.5 -36l-129 129q71 46 146.5 67t166.5 21
q155 0 233.5 -68.5t78.5 -193.5zM528 253h-22h-36.5t-42.5 -2q-23 -1 -47.5 -3t-46.5 -6q-24 -5 -38 -10t-21.5 -10.5t-9.5 -11t-2 -10.5t4.5 -11.5t16 -12.5t30 -10.5t46.5 -4.5h41t49 4t41.5 13.5t17.5 27.5v27z" />
    <glyph glyph-name="b" unicode="b" horiz-adv-x="829" 
d="M784 313q0 -72 -19 -131t-59 -102t-101 -66.5t-145 -23.5q-20 0 -42 3.5t-44 9.5t-42.5 14t-36.5 18h-2v-36h-218v841h218v-242h2q16 10 36.5 17.5t42.5 12.5t44.5 8t41.5 3q84 0 145.5 -23.5t101 -66.5t58.5 -103t19 -133zM566 313q0 72 -32.5 107.5t-108.5 35.5
t-108 -35t-32 -108q0 -71 32 -105.5t109 -34.5t108.5 34t31.5 106z" />
    <glyph glyph-name="c" unicode="c" horiz-adv-x="710" 
d="M685 102q-53 -54 -124.5 -83t-152.5 -29q-91 0 -159 25t-113.5 68.5t-68 102t-22.5 125.5q0 68 24.5 128t71 104.5t114.5 70.5t155 26t154.5 -29.5t116.5 -82.5l-129 -129q-24 29 -57 44.5t-84 15.5q-73 0 -110.5 -41t-37.5 -107q0 -63 34 -101.5t112 -38.5
q44 0 77.5 15.5t65.5 49.5z" />
    <glyph glyph-name="d" unicode="d" horiz-adv-x="829" 
d="M754 -1h-218v36h-2q-16 -10 -36.5 -18t-42.5 -14t-44.5 -9.5t-41.5 -3.5q-84 0 -145 23.5t-101 66.5t-59 102t-19 131q0 73 19 133t58.5 103t101 66.5t145.5 23.5q19 0 41.5 -3t44.5 -8t42.5 -12.5t36.5 -17.5h2v242h218v-841zM544 313q0 73 -32 108t-108 35
t-108.5 -35.5t-32.5 -107.5t32 -106t109 -34q76 0 108 34.5t32 105.5z" />
    <glyph glyph-name="e" unicode="e" 
d="M766 311q0 -14 -1 -28t-6 -37h-491l20 -20q18 -31 53 -48.5t84 -17.5q50 0 82.5 11t63.5 37l126 -125q-57 -48 -122 -70.5t-155 -22.5q-93 0 -163 25t-117 68.5t-71 102t-24 125.5q0 70 24.5 130t71 104.5t114 69.5t153.5 25q89 0 156 -26t112 -70.5t67.5 -104.5
t22.5 -128zM550 398l-23 19q-14 26 -46.5 42t-70.5 16t-72 -13.5t-50 -44.5l-21 -19h283z" />
    <glyph glyph-name="f" unicode="f" horiz-adv-x="539" 
d="M523 470l-196 -1l11 -20v-449h-218v450l12 20h-107v160l106 -1l-11 20q0 55 19 93t53.5 62t83.5 34.5t108 10.5q45 0 77.5 -5t61.5 -15v-157q-20 9 -46.5 13.5t-55.5 4.5q-47 0 -64.5 -11t-17.5 -30l-13 -19h197v-160z" />
    <glyph glyph-name="g" unicode="g" horiz-adv-x="829" 
d="M754 631v-555q0 -139 -89.5 -215t-258.5 -76q-98 0 -178.5 23t-154.5 69l129 132q42 -25 87 -36t107 -11q69 0 104 27t35 66v10h-2q-26 -14 -65.5 -24.5t-79.5 -10.5q-173 0 -258 81.5t-85 226.5q0 64 21.5 119t64.5 95.5t107.5 64t149.5 23.5q20 0 42 -3t42 -8.5
t36.5 -12.5t25.5 -14h2v29h218zM544 334q0 59 -33.5 91.5t-106.5 32.5q-75 0 -108 -33t-33 -91t34 -92t107 -34q40 0 66.5 9t43 25.5t23.5 40t7 51.5z" />
    <glyph glyph-name="h" unicode="h" horiz-adv-x="824" 
d="M754 380v-380h-218v357q0 21 -3.5 39t-15 31t-34 20t-60.5 7q-62 0 -96 -25.5t-34 -72.5v-356h-218v840h218v-242h2q35 20 78.5 31t86.5 11q74 0 129.5 -18.5t92 -53t54.5 -82.5t18 -106z" />
    <glyph glyph-name="i" unicode="i" horiz-adv-x="369" 
d="M298 764q0 -47 -31.5 -79t-82.5 -32t-82 32t-31 79q0 48 31 80t82 32q25 0 46 -8.5t36 -23.5t23.5 -35.5t8.5 -44.5zM293 0h-218v630h218v-630z" />
    <glyph glyph-name="j" unicode="j" horiz-adv-x="367" 
d="M296 764q0 -24 -8.5 -44.5t-23.5 -35.5t-35.5 -24t-45.5 -9q-51 0 -82 32.5t-31 80.5q0 47 31 79.5t82 32.5t82 -32t31 -80zM292 0q0 -105 -57.5 -161.5t-175.5 -56.5q-13 0 -29 1.5t-32.5 4t-31.5 5.5t-27 7v172q23 -10 41.5 -14t44.5 -4q23 0 36 11.5t13 34.5v630h218
v-630z" />
    <glyph glyph-name="k" unicode="k" horiz-adv-x="880" 
d="M880 0h-282l-295 322l287 307h273l-292 -306v-2zM293 0h-218v840h218v-840z" />
    <glyph glyph-name="l" unicode="l" horiz-adv-x="368" 
d="M293 0h-218v840h218v-840z" />
    <glyph glyph-name="m" unicode="m" horiz-adv-x="1101" 
d="M1031 365l-1 -365h-218v365q0 28 -3 46.5t-11 29t-21 14.5t-32 4q-39 0 -61 -24t-22 -66l1 -369h-220v365q0 28 -3 46.5t-10.5 29t-20 14.5t-32.5 4q-35 0 -59 -24t-24 -67v-368h-219v632h219v-39h2q12 9 29 17.5t35.5 15t38.5 10.5t38 4q50 0 84.5 -18t60.5 -50h2
q16 15 38.5 27.5t48 21.5t53 14t53.5 5q133 0 193.5 -66t60.5 -209z" />
    <glyph glyph-name="n" unicode="n" horiz-adv-x="824" 
d="M754 386v-386h-218v368q0 47 -25 69t-88 22t-96.5 -25t-33.5 -69v-365h-218v632h218v-40h2q38 23 86 35t94 12q73 0 125.5 -18.5t86.5 -51.5t50.5 -79.5t16.5 -103.5z" />
    <glyph glyph-name="o" unicode="o" 
d="M766 315q0 -68 -23 -127t-68.5 -103t-113 -69.5t-156.5 -25.5q-90 0 -157.5 25t-112.5 69t-67.5 103.5t-22.5 127.5t22.5 127.5t67.5 103.5t112.5 69t157.5 25t157.5 -25t112.5 -69t68 -103t23 -128zM549 315q0 68 -34.5 107.5t-109.5 39.5t-109 -39t-34 -108
q0 -68 34.5 -107.5t109.5 -39.5t109 39.5t34 107.5z" />
    <glyph glyph-name="p" unicode="p" horiz-adv-x="829" 
d="M784 315q0 -72 -19 -132t-58.5 -103t-101 -66.5t-145.5 -23.5q-19 0 -41.5 2.5t-44.5 8t-42.5 13t-36.5 17.5h-2v-242h-218v841h218v-37h2q16 10 36.5 18.5t42.5 14.5t44 9.5t42 3.5q84 0 145 -23.5t101 -66.5t59 -102.5t19 -131.5zM566 315q0 72 -31.5 106.5
t-108.5 34.5t-109 -34.5t-32 -106.5t32 -107.5t108 -35.5t108.5 35.5t32.5 107.5z" />
    <glyph glyph-name="q" unicode="q" horiz-adv-x="829" 
d="M754 -211h-218v242h-2q-16 -10 -36.5 -17.5t-42.5 -13t-44.5 -8t-41.5 -2.5q-84 0 -145.5 23.5t-101 66.5t-58.5 103t-19 132t19 131.5t59 102.5t101 66.5t145 23.5q19 0 41.5 -3.5t44.5 -9.5t42.5 -14.5t36.5 -18.5h2v37h218v-841zM544 315q0 72 -32 106.5t-108 34.5
q-77 0 -109 -34.5t-32 -106.5t32.5 -107.5t108.5 -35.5t108 35.5t32 107.5z" />
    <glyph glyph-name="r" unicode="r" horiz-adv-x="531" 
d="M515 461h-68q-84 0 -119 -34t-35 -107v-320h-218v630h218v-69h2q23 37 65.5 57t106.5 20h48v-177z" />
    <glyph glyph-name="s" unicode="s" horiz-adv-x="744" 
d="M699 197q0 -44 -21 -82t-61 -66t-99 -44t-135 -16q-102 0 -185 29t-153 87l132 131q44 -41 97 -60.5t107 -19.5q51 0 75 8.5t24 22.5q0 11 -12.5 17.5t-51.5 14.5q-5 1 -21 5t-34.5 8.5t-35 8.5t-21.5 5q-39 9 -81.5 23t-77.5 36t-57.5 55t-22.5 81q0 45 22 82t62 62.5
t97 39.5t126 14q92 0 170.5 -26.5t135.5 -77.5l-126 -125q-35 29 -82 45.5t-98 16.5q-43 0 -65.5 -8t-22.5 -21q0 -11 23.5 -18.5t68.5 -18.5l101 -23q51 -11 92 -26.5t70 -38t44.5 -52t15.5 -69.5z" />
    <glyph glyph-name="t" unicode="t" horiz-adv-x="572" 
d="M564 91q-19 -20 -42 -38t-51.5 -32t-62 -22.5t-73.5 -8.5q-53 0 -95.5 14t-72.5 43t-46.5 73t-16.5 103v226l11 20h-90v160h91l-12 21v54l218 113v-168l-11 -19l185 -1v-160h-185l11 -20v-226q0 -24 12 -38.5t34 -14.5q25 0 42.5 10t35.5 30z" />
    <glyph glyph-name="u" unicode="u" horiz-adv-x="816" 
d="M741 -2h-218v40h-2q-38 -23 -86 -35t-94 -12q-73 0 -124.5 18.5t-84 51.5t-47.5 79.5t-15 103.5v386h218v-368q0 -91 108 -91q63 0 95 25t32 69v365h218v-632z" />
    <glyph glyph-name="v" unicode="v" horiz-adv-x="806" 
d="M798 630l-304 -630h-183l-303 630h241l119 -269l32 -102h2l33 102l122 269h241z" />
    <glyph glyph-name="w" unicode="w" horiz-adv-x="1032" 
d="M1020 630l-210 -630h-199l-76 241l-19 107h-2l-19 -107l-75 -241h-199l-209 630h230l66 -249l20 -115h2l18 115l79 249h178l77 -249l20 -116h2l19 116l69 249h228z" />
    <glyph glyph-name="x" unicode="x" horiz-adv-x="829" 
d="M813 0h-273l-87 107l-39 77h-2l-39 -77l-85 -107h-272l264 316l-262 314h274l82 -105l39 -76h2l39 76l85 105h271l-261 -314z" />
    <glyph glyph-name="y" unicode="y" horiz-adv-x="836" 
d="M824 630l-316 -683q-36 -78 -95.5 -120t-144.5 -42q-48 0 -88 6.5t-80 21.5v187q47 -24 80 -33.5t62 -9.5q26 0 47 10.5t35 46.5l-312 616h240l136 -283l36 -109h2l36 109l123 283h239z" />
    <glyph glyph-name="z" unicode="z" horiz-adv-x="753" 
d="M703 0h-653v137l258 254l78 54v2h-329v182h642v-133l-259 -250l-83 -62v-2h346v-182z" />
    <glyph glyph-name="braceleft" unicode="{" horiz-adv-x="441" 
d="M431 -196h-83h-32t-29.5 0.5t-23 1t-13.5 1.5q-43 5 -70 23.5t-42 45t-20 57.5t-5 61v216q0 18 -2.5 32t-10.5 24t-22.5 16.5t-37.5 9.5v133q44 7 58.5 24t14.5 49v226q0 30 5 61t20 57.5t42 45t70 23.5q4 0 13.5 0.5t23 1t29.5 1t32 0.5h83v-171h-55q-27 0 -41.5 -2
t-21.5 -8.5t-8.5 -19t-1.5 -34.5v-179q0 -48 -10.5 -81t-44.5 -60q20 -14 31 -28.5t16.5 -31t6.5 -37t1 -45.5v-178q0 -22 1.5 -34.5t8.5 -19t22 -8.5t41 -2h55v-171z" />
    <glyph glyph-name="bar" unicode="|" horiz-adv-x="429" 
d="M314 -50h-199v910h199v-910z" />
    <glyph glyph-name="braceright" unicode="}" horiz-adv-x="441" 
d="M401 292q-23 -3 -37.5 -9.5t-22.5 -16.5t-10.5 -24t-2.5 -32v-216q0 -30 -5 -61t-20 -57.5t-41.5 -45t-69.5 -23.5q-8 -2 -37.5 -2.5t-61.5 -0.5h-83v171h55q26 0 41 2t22 8.5t8.5 19t1.5 34.5v178q0 25 1.5 45.5t6.5 37t16 31t31 28.5q-33 27 -44 60t-11 81v179
q0 22 -1.5 34.5t-8.5 19t-21.5 8.5t-41.5 2h-55v171h83q32 0 61.5 -1t37.5 -2q43 -5 69.5 -23.5t41.5 -45t20 -57.5t5 -61v-226q0 -32 14.5 -48.5t58.5 -24.5v-133z" />
    <glyph glyph-name="asciitilde" unicode="~" horiz-adv-x="687" 
d="M657 345q-24 -69 -80 -103t-128 -34q-36 0 -68.5 13.5t-59.5 27.5q-13 7 -25.5 13t-25.5 11q-21 10 -39 10q-24 0 -45 -20.5t-38 -74.5l-118 119q24 69 79.5 103t127.5 34q36 0 69 -13t60 -27q13 -7 25.5 -13.5t25.5 -11.5q21 -10 39 -10q24 0 45 20.5t38 74.5z" />
    <glyph glyph-name="DEL" horiz-adv-x="1000" 
 />
    <glyph glyph-name="Adieresis" unicode="&#xc4;" horiz-adv-x="1041" 
d="M752 994q0 -18 -6 -36t-18 -32.5t-29.5 -23t-40.5 -8.5t-40.5 9t-29.5 23t-18 32t-6 36t6 36t18 32t29.5 23t40.5 9t40.5 -9t29.5 -23t18 -32t6 -36zM479 994q0 -18 -6 -36t-18 -32.5t-29.5 -23t-40.5 -8.5t-40.5 9t-29.5 23t-18 32t-6 36t6 36t18 32t29.5 23t40.5 9
t40.5 -9t29.5 -23t18 -32t6 -36zM1026 0h-242l-85 167l13 20h-382l13 -20l-84 -167h-244l416 810h181zM612 359l-21 21l-46 91l-22 66h-2l-24 -66l-45 -91l-20 -21h180z" />
    <glyph glyph-name="Aring" unicode="&#xc5;" horiz-adv-x="1041" 
d="M660 1016q0 -29 -9 -55t-26 -45t-43 -30t-60 -11q-35 0 -60.5 11t-42.5 30t-25.5 44.5t-8.5 55.5t8.5 55.5t25.5 45t42.5 30.5t60.5 11q69 0 103.5 -41t34.5 -101zM1026 0h-242l-85 167l13 20h-382l13 -20l-84 -167h-244l416 810h181zM557 1016q0 39 -35 39
q-34 0 -34 -39q0 -38 34 -38q35 0 35 38zM612 359l-21 21l-46 91l-22 66h-2l-24 -66l-45 -91l-20 -21h180z" />
    <glyph glyph-name="Ccedilla" unicode="&#xc7;" horiz-adv-x="907" 
d="M877 667l-148 -147q-38 54 -90.5 80.5t-117.5 26.5q-62 0 -107.5 -16.5t-75.5 -46.5t-44.5 -71.5t-14.5 -91.5q0 -49 14 -89.5t43 -69.5t75 -45t109 -16q132 0 214 103l142 -142q-65 -69 -147.5 -108t-182.5 -44l13 -13q29 -29 30.5 -63t-30.5 -66l-114 -112l-86 86
l86 84q14 14 14 28t-11 25l-38 38q-87 13 -153 48t-111 87.5t-68 120.5t-23 148q0 90 30 167t88.5 132.5t144 87t195.5 31.5q117 0 204 -36.5t160 -115.5z" />
    <glyph glyph-name="Eacute" unicode="&#xc9;" horiz-adv-x="881" 
d="M631 1063l-234 -198l-89 89l200 232zM811 0h-721v810h721v-191h-520l20 -20v-78l-20 -20h472v-192h-472l20 -20v-78l-20 -20h520v-191z" />
    <glyph glyph-name="Ntilde" unicode="&#xd1;" horiz-adv-x="971" 
d="M754 1008q-9 -31 -27 -55.5t-40.5 -42t-49 -27t-53.5 -9.5q-29 0 -57.5 12.5t-52.5 27.5q-11 6 -21 11.5t-22 10.5q-24 8 -41 8q-26 0 -48 -19t-35 -58l-91 90q7 27 24 51t40 43t50.5 30t56.5 11q30 0 60 -12t53 -26q11 -7 21.5 -12.5t22.5 -10.5q11 -4 21 -6.5t17 -2.5
q34 0 53.5 16.5t31.5 55.5zM881 0h-181l-314 360l-73 106h-2v-466h-221v810h180l318 -360l70 -100h2v460h221v-810z" />
    <glyph glyph-name="Odieresis" unicode="&#xd6;" horiz-adv-x="995" 
d="M728 994q0 -18 -6 -36t-18 -32.5t-29.5 -23t-40.5 -8.5t-40.5 9t-29.5 23t-18 32t-6 36t6 36t18 32t29.5 23t40.5 9t40.5 -9t29.5 -23t18 -32t6 -36zM455 994q0 -18 -6 -36t-18 -32.5t-29.5 -23t-40.5 -8.5t-40.5 9t-29.5 23t-18 32t-6 36t6 36t18 32t29.5 23t40.5 9
t40.5 -9t29.5 -23t18 -32t6 -36zM940 401q0 -90 -29.5 -165.5t-85.5 -130t-139 -85t-189 -30.5q-108 0 -190.5 30.5t-138.5 85t-84.5 130t-28.5 165.5q0 89 28.5 165.5t84 133t138.5 88.5t191 32q109 0 192 -32t138.5 -88t84 -132.5t28.5 -166.5zM716 401q0 50 -12.5 92
t-38.5 72t-67.5 46.5t-99.5 16.5t-99.5 -16t-68 -46t-39 -72t-12.5 -93q0 -50 12.5 -90.5t38.5 -69t67.5 -44t100.5 -15.5q58 0 99.5 15.5t68 44t38.5 69t12 90.5z" />
    <glyph glyph-name="Udieresis" unicode="&#xdc;" horiz-adv-x="983" 
d="M717 994q0 -18 -6 -36t-18 -32.5t-29.5 -23t-40.5 -8.5t-40.5 9t-29.5 23t-18 32t-6 36t6 36t18 32t29.5 23t40.5 9t40.5 -9t29.5 -23t18 -32t6 -36zM444 994q0 -18 -6 -36t-18 -32.5t-29.5 -23t-40.5 -8.5t-40.5 9t-29.5 23t-18 32t-6 36t6 36t18 32t29.5 23t40.5 9
t40.5 -9t29.5 -23t18 -32t6 -36zM898 375q0 -90 -25 -161.5t-75.5 -121t-126.5 -76t-179 -26.5q-102 0 -178.5 26t-127.5 75.5t-76 121t-25 162.5v435h221v-434q0 -51 9.5 -87.5t31.5 -60.5t57.5 -35.5t87.5 -11.5q101 0 143 47t42 148v434h221v-435z" />
    <glyph glyph-name="aacute" unicode="&#xe1;" horiz-adv-x="796" 
d="M583 880l-234 -199l-89 89l199 233zM726 377v-379h-217v32q-28 -17 -72.5 -29t-91.5 -12q-44 0 -96.5 8.5t-97.5 31.5t-75.5 63.5t-30.5 104.5q0 47 21 80.5t56 57t80 37.5t92 21.5t93 10t84 2.5h56l-19 19q0 17 -24 30t-74 13q-48 0 -89.5 -10t-90.5 -36l-129 129
q71 46 146.5 67t166.5 21q155 0 233.5 -68t78.5 -194zM528 253h-22h-36.5t-42.5 -2q-23 -1 -47.5 -3t-46.5 -6q-24 -5 -38 -10t-21.5 -10.5t-9.5 -11t-2 -10.5t4.5 -11.5t16 -12.5t30 -10.5t46.5 -4.5h41t49 4t41.5 13.5t17.5 27.5v27z" />
    <glyph glyph-name="agrave" unicode="&#xe0;" horiz-adv-x="796" 
d="M530 770l-89 -89l-234 199l123 123zM726 377v-379h-217v32q-28 -17 -72.5 -29t-91.5 -12q-44 0 -96.5 8.5t-97.5 31.5t-75.5 63.5t-30.5 104.5q0 47 21 80.5t56 57t80 37.5t92 21.5t93 10t84 2.5h56l-19 19q0 17 -24 30t-74 13q-48 0 -89.5 -10t-90.5 -36l-129 129
q71 46 146.5 67t166.5 21q155 0 233.5 -68.5t78.5 -193.5zM528 253h-22h-36.5t-42.5 -2q-23 -1 -47.5 -3t-46.5 -6q-24 -5 -38 -10t-21.5 -10.5t-9.5 -11t-2 -10.5t4.5 -11.5t16 -12.5t30 -10.5t46.5 -4.5h41t49 4t41.5 13.5t17.5 27.5v27z" />
    <glyph glyph-name="acircumflex" unicode="&#xe2;" horiz-adv-x="796" 
d="M616 778l-86 -85l-138 112l-139 -112l-85 85l222 214h2zM726 377v-379h-217v32q-28 -17 -72.5 -29t-91.5 -12q-44 0 -96.5 8.5t-97.5 31.5t-75.5 63.5t-30.5 104.5q0 47 21 80.5t56 57t80 37.5t92 21.5t93 10t84 2.5h56l-19 19q0 17 -24 30t-74 13q-48 0 -89.5 -10
t-90.5 -36l-129 129q71 46 146.5 67t166.5 21q155 0 233.5 -68.5t78.5 -193.5zM528 253h-22h-36.5t-42.5 -2q-23 -1 -47.5 -3t-46.5 -6q-24 -5 -38 -10t-21.5 -10.5t-9.5 -11t-2 -10.5t4.5 -11.5t16 -12.5t30 -10.5t46.5 -4.5h41t49 4t41.5 13.5t17.5 27.5v27z" />
    <glyph glyph-name="adieresis" unicode="&#xe4;" horiz-adv-x="796" 
d="M621 795q0 -18 -6 -36t-18 -32t-29.5 -23t-40.5 -9t-40.5 9t-29.5 23t-18 32t-6 36t6 36t18 32t29.5 23t40.5 9t40.5 -8.5t29.5 -23t18 -32.5t6 -36zM348 795q0 -18 -6 -36t-18 -32t-29.5 -23t-40.5 -9t-40.5 9t-29.5 23t-18 32t-6 36t6 36t18 32t29.5 23t40.5 9
t40.5 -8.5t29.5 -23t18 -32.5t6 -36zM726 377v-379h-217v32q-28 -17 -72.5 -29t-91.5 -12q-44 0 -96.5 8.5t-97.5 31.5t-75.5 63.5t-30.5 104.5q0 47 21 80.5t56 57t80 37.5t92 21.5t93 10t84 2.5h56l-19 19q0 17 -24 30t-74 13q-48 0 -89.5 -10t-90.5 -36l-129 129
q71 46 146.5 67t166.5 21q155 0 233.5 -68t78.5 -194zM528 253h-22h-36.5t-42.5 -2q-23 -1 -47.5 -3t-46.5 -6q-24 -5 -38 -10t-21.5 -10.5t-9.5 -11t-2 -10.5t4.5 -11.5t16 -12.5t30 -10.5t46.5 -4.5h41t49 4t41.5 13.5t17.5 27.5v27z" />
    <glyph glyph-name="atilde" unicode="&#xe3;" horiz-adv-x="796" 
d="M658 846q-9 -31 -26.5 -55.5t-40.5 -42t-49.5 -27t-53.5 -9.5q-29 0 -57.5 12.5t-52.5 27.5q-11 6 -21 11.5t-22 10.5q-22 8 -41 8q-26 0 -48 -19t-35 -58l-91 90q7 27 24 51t40 43t51 30t57 11t59 -12t53 -26q11 -7 21.5 -12.5t22.5 -10.5q11 -4 21 -6.5t18 -2.5
q33 0 52.5 16.5t31.5 55.5zM726 377v-379h-217v32q-28 -17 -72.5 -29t-91.5 -12q-44 0 -96.5 8.5t-97.5 31.5t-75.5 63.5t-30.5 104.5q0 47 21 80.5t56 57t80 37.5t92 21.5t93 10t84 2.5h56l-19 19q0 17 -24 30t-74 13q-48 0 -89.5 -10t-90.5 -36l-129 129q71 46 146.5 67
t166.5 21q155 0 233.5 -68t78.5 -194zM528 253h-22h-36.5t-42.5 -2q-23 -1 -47.5 -3t-46.5 -6q-24 -5 -38 -10t-21.5 -10.5t-9.5 -11t-2 -10.5t4.5 -11.5t16 -12.5t30 -10.5t46.5 -4.5h41t49 4t41.5 13.5t17.5 27.5v27z" />
    <glyph glyph-name="aring" unicode="&#xe5;" horiz-adv-x="796" 
d="M544 837q0 -30 -9 -55.5t-26 -45t-43 -30.5t-60 -11q-69 0 -103 41t-34 101q0 29 8.5 55t25.5 45t42.5 30t60.5 11q34 0 60 -11t43.5 -30t26 -44.5t8.5 -55.5zM726 377v-379h-217v32q-28 -17 -72.5 -29t-91.5 -12q-44 0 -96.5 8.5t-97.5 31.5t-75.5 63.5t-30.5 104.5
q0 47 21 80.5t56 57t80 37.5t92 21.5t93 10t84 2.5h56l-19 19q0 17 -24 30t-74 13q-48 0 -89.5 -10t-90.5 -36l-129 129q71 46 146.5 67t166.5 21q155 0 233.5 -68.5t78.5 -193.5zM441 836q0 39 -35 39q-34 0 -34 -39q0 -38 34 -38q35 0 35 38zM528 253h-22h-36.5t-42.5 -2
q-23 -1 -47.5 -3t-46.5 -6q-24 -5 -38 -10t-21.5 -10.5t-9.5 -11t-2 -10.5t4.5 -11.5t16 -12.5t30 -10.5t46.5 -4.5h41t49 4t41.5 13.5t17.5 27.5v27z" />
    <glyph glyph-name="ccedilla" unicode="&#xe7;" horiz-adv-x="710" 
d="M685 102q-47 -48 -109 -76.5t-132 -34.5l14 -14q29 -30 30.5 -63.5t-30.5 -65.5l-114 -112l-86 86l86 84q14 14 14 28t-11 25l-40 40q-66 13 -115 42t-81.5 70.5t-49 92t-16.5 107.5q0 68 24.5 128t71 104.5t114.5 70.5t155 26q91 0 157 -27.5t114 -84.5l-129 -129
q-24 29 -57 44.5t-84 15.5q-73 0 -110.5 -41t-37.5 -107q0 -63 34 -101.5t112 -38.5q44 0 77.5 15.5t65.5 49.5z" />
    <glyph glyph-name="eacute" unicode="&#xe9;" 
d="M583 880l-234 -199l-89 89l199 233zM766 311q0 -14 -1 -28t-6 -37h-491l20 -20q18 -31 53 -48.5t84 -17.5q50 0 82.5 11t63.5 37l126 -125q-57 -48 -122 -70.5t-155 -22.5q-93 0 -163 25t-117 68.5t-71 102t-24 125.5q0 70 24.5 130t71 104.5t114 69.5t153.5 25
q89 0 156 -26t112 -70.5t67.5 -104.5t22.5 -128zM550 398l-23 19q-14 26 -46.5 42t-70.5 16t-72 -13.5t-50 -44.5l-21 -19h283z" />
    <glyph glyph-name="egrave" unicode="&#xe8;" 
d="M543 770l-89 -89l-234 199l123 123zM766 311q0 -14 -1 -28t-6 -37h-491l20 -20q18 -31 53 -48.5t84 -17.5q50 0 82.5 11t63.5 37l126 -125q-57 -48 -122 -70.5t-155 -22.5q-93 0 -163 25t-117 68.5t-71 102t-24 125.5q0 70 24.5 130t71 104.5t114 69.5t153.5 25
q89 0 156 -26t112 -70.5t67.5 -104.5t22.5 -128zM550 398l-23 19q-14 26 -46.5 42t-70.5 16t-72 -13.5t-50 -44.5l-21 -19h283z" />
    <glyph glyph-name="ecircumflex" unicode="&#xea;" 
d="M628 778l-86 -85l-138 112l-139 -112l-85 85l222 214h2zM766 311q0 -14 -1 -28t-6 -37h-491l20 -20q18 -31 53 -48.5t84 -17.5q50 0 82.5 11t63.5 37l126 -125q-57 -48 -122 -70.5t-155 -22.5q-93 0 -163 25t-117 68.5t-71 102t-24 125.5q0 70 24.5 130t71 104.5
t114 69.5t153.5 25q89 0 156 -26t112 -70.5t67.5 -104.5t22.5 -128zM550 398l-23 19q-14 26 -46.5 42t-70.5 16t-72 -13.5t-50 -44.5l-21 -19h283z" />
    <glyph glyph-name="edieresis" unicode="&#xeb;" 
d="M638 795q0 -18 -6 -36t-18 -32t-29.5 -23t-40.5 -9t-40.5 9t-29.5 23t-18 32t-6 36t6 36t18 32t29.5 23t40.5 9t40.5 -8.5t29.5 -23t18 -32.5t6 -36zM365 795q0 -18 -6 -36t-18 -32t-29.5 -23t-40.5 -9t-40.5 9t-29.5 23t-18 32t-6 36t6 36t18 32t29.5 23t40.5 9
t40.5 -8.5t29.5 -23t18 -32.5t6 -36zM766 311q0 -14 -1 -28t-6 -37h-491l20 -20q18 -31 53 -48.5t84 -17.5q50 0 82.5 11t63.5 37l126 -125q-57 -48 -122 -70.5t-155 -22.5q-93 0 -163 25t-117 68.5t-71 102t-24 125.5q0 70 24.5 130t71 104.5t114 69.5t153.5 25
q89 0 156 -26t112 -70.5t67.5 -104.5t22.5 -128zM550 398l-23 19q-14 26 -46.5 42t-70.5 16t-72 -13.5t-50 -44.5l-21 -19h283z" />
    <glyph glyph-name="iacute" unicode="&#xed;" horiz-adv-x="368" 
d="M359 880l-234 -199l-89 89l199 233zM293 0h-218v630h218v-630z" />
    <glyph glyph-name="igrave" unicode="&#xec;" horiz-adv-x="368" 
d="M330 770l-89 -89l-234 199l123 123zM293 0h-218v630h218v-630z" />
    <glyph glyph-name="icircumflex" unicode="&#xee;" horiz-adv-x="368" 
d="M406 778l-86 -85l-138 112l-139 -112l-85 85l222 214h2zM293 0h-218v630h218v-630z" />
    <glyph glyph-name="idieresis" unicode="&#xef;" horiz-adv-x="368" 
d="M413 795q0 -18 -6 -36t-18 -32t-29.5 -23t-40.5 -9t-40.5 9t-29.5 23t-18 32t-6 36t6 36t18 32t29.5 23t40.5 9t40.5 -8.5t29.5 -23t18 -32.5t6 -36zM140 795q0 -18 -6 -36t-18 -32t-29.5 -23t-40.5 -9t-40.5 9t-29.5 23t-18 32t-6 36t6 36t18 32t29.5 23t40.5 9
t40.5 -8.5t29.5 -23t18 -32.5t6 -36zM293 0h-218v630h218v-630z" />
    <glyph glyph-name="ntilde" unicode="&#xf1;" horiz-adv-x="824" 
d="M679 846q-9 -31 -26.5 -55.5t-40.5 -42t-49.5 -27t-53.5 -9.5q-29 0 -57.5 12.5t-52.5 27.5q-11 6 -21 11.5t-22 10.5q-22 8 -41 8q-26 0 -48 -19t-35 -58l-91 90q7 27 24 51t40 43t51 30t57 11t59 -12t53 -26q11 -7 21.5 -12.5t22.5 -10.5q11 -4 21 -6.5t18 -2.5
q33 0 52.5 16.5t31.5 55.5zM754 386v-386h-218v368q0 47 -25 69t-88 22t-96.5 -25t-33.5 -69v-365h-218v632h218v-40h2q38 23 86 35t94 12q73 0 125.5 -18.5t86.5 -51.5t50.5 -79.5t16.5 -103.5z" />
    <glyph glyph-name="oacute" unicode="&#xf3;" 
d="M583 880l-234 -199l-89 89l199 233zM766 315q0 -68 -23 -127t-68.5 -103t-113 -69.5t-156.5 -25.5q-90 0 -157.5 25t-112.5 69t-67.5 103.5t-22.5 127.5t22.5 127.5t67.5 103.5t112.5 69t157.5 25t157.5 -25t112.5 -69t68 -103t23 -128zM549 315q0 68 -34.5 107.5
t-109.5 39.5t-109 -39t-34 -108q0 -68 34.5 -107.5t109.5 -39.5t109 39.5t34 107.5z" />
    <glyph glyph-name="ograve" unicode="&#xf2;" 
d="M540 770l-89 -89l-234 199l123 123zM766 315q0 -68 -23 -127t-68.5 -103t-113 -69.5t-156.5 -25.5q-90 0 -157.5 25t-112.5 69t-67.5 103.5t-22.5 127.5t22.5 127.5t67.5 103.5t112.5 69t157.5 25t157.5 -25t112.5 -69t68 -103t23 -128zM549 315q0 68 -34.5 107.5
t-109.5 39.5t-109 -39t-34 -108q0 -68 34.5 -107.5t109.5 -39.5t109 39.5t34 107.5z" />
    <glyph glyph-name="ocircumflex" unicode="&#xf4;" 
d="M629 778l-86 -85l-138 112l-139 -112l-85 85l222 214h2zM766 315q0 -68 -23 -127t-68.5 -103t-113 -69.5t-156.5 -25.5q-90 0 -157.5 25t-112.5 69t-67.5 103.5t-22.5 127.5t22.5 127.5t67.5 103.5t112.5 69t157.5 25t157.5 -25t112.5 -69t68 -103t23 -128zM549 315
q0 68 -34.5 107.5t-109.5 39.5t-109 -39t-34 -108q0 -68 34.5 -107.5t109.5 -39.5t109 39.5t34 107.5z" />
    <glyph glyph-name="odieresis" unicode="&#xf6;" 
d="M636 795q0 -18 -6 -36t-18 -32t-29.5 -23t-40.5 -9t-40.5 9t-29.5 23t-18 32t-6 36t6 36t18 32t29.5 23t40.5 9t40.5 -8.5t29.5 -23t18 -32.5t6 -36zM363 795q0 -18 -6 -36t-18 -32t-29.5 -23t-40.5 -9t-40.5 9t-29.5 23t-18 32t-6 36t6 36t18 32t29.5 23t40.5 9
t40.5 -8.5t29.5 -23t18 -32.5t6 -36zM766 315q0 -68 -23 -127t-68.5 -103t-113 -69.5t-156.5 -25.5q-90 0 -157.5 25t-112.5 69t-67.5 103.5t-22.5 127.5t22.5 127.5t67.5 103.5t112.5 69t157.5 25t157.5 -25t112.5 -69t68 -103t23 -128zM549 315q0 68 -34.5 107.5
t-109.5 39.5t-109 -39t-34 -108q0 -68 34.5 -107.5t109.5 -39.5t109 39.5t34 107.5z" />
    <glyph glyph-name="otilde" unicode="&#xf5;" 
d="M668 846q-9 -31 -26.5 -55.5t-40.5 -42t-49.5 -27t-53.5 -9.5q-29 0 -57.5 12.5t-52.5 27.5q-11 6 -21 11.5t-22 10.5q-22 8 -41 8q-26 0 -48 -19t-35 -58l-91 90q7 27 24 51t40 43t51 30t57 11t59 -12t53 -26q11 -7 21.5 -12.5t22.5 -10.5q11 -4 21 -6.5t18 -2.5
q33 0 52.5 16.5t31.5 55.5zM766 315q0 -68 -23 -127t-68.5 -103t-113 -69.5t-156.5 -25.5q-90 0 -157.5 25t-112.5 69t-67.5 103.5t-22.5 127.5t22.5 127.5t67.5 103.5t112.5 69t157.5 25t157.5 -25t112.5 -69t68 -103t23 -128zM549 315q0 68 -34.5 107.5t-109.5 39.5
t-109 -39t-34 -108q0 -68 34.5 -107.5t109.5 -39.5t109 39.5t34 107.5z" />
    <glyph glyph-name="uacute" unicode="&#xfa;" horiz-adv-x="816" 
d="M588 880l-234 -199l-89 89l199 233zM741 -2h-218v40h-2q-38 -23 -86 -35t-94 -12q-73 0 -124.5 18.5t-84 51.5t-47.5 79.5t-15 103.5v386h218v-368q0 -91 108 -91q63 0 95 25t32 69v365h218v-632z" />
    <glyph glyph-name="ugrave" unicode="&#xf9;" horiz-adv-x="816" 
d="M540 770l-89 -89l-234 199l123 123zM741 -2h-218v40h-2q-38 -23 -86 -35t-94 -12q-73 0 -124.5 18.5t-84 51.5t-47.5 79.5t-15 103.5v386h218v-368q0 -91 108 -91q63 0 95 25t32 69v365h218v-632z" />
    <glyph glyph-name="ucircumflex" unicode="&#xfb;" horiz-adv-x="816" 
d="M626 778l-86 -85l-138 112l-139 -112l-85 85l222 214h2zM741 -2h-218v40h-2q-38 -23 -86 -35t-94 -12q-73 0 -124.5 18.5t-84 51.5t-47.5 79.5t-15 103.5v386h218v-368q0 -91 108 -91q63 0 95 25t32 69v365h218v-632z" />
    <glyph glyph-name="udieresis" unicode="&#xfc;" horiz-adv-x="816" 
d="M638 795q0 -18 -6 -36t-18 -32t-29.5 -23t-40.5 -9t-40.5 9t-29.5 23t-18 32t-6 36t6 36t18 32t29.5 23t40.5 9t40.5 -8.5t29.5 -23t18 -32.5t6 -36zM365 795q0 -18 -6 -36t-18 -32t-29.5 -23t-40.5 -9t-40.5 9t-29.5 23t-18 32t-6 36t6 36t18 32t29.5 23t40.5 9
t40.5 -8.5t29.5 -23t18 -32.5t6 -36zM741 -2h-218v40h-2q-38 -23 -86 -35t-94 -12q-73 0 -124.5 18.5t-84 51.5t-47.5 79.5t-15 103.5v386h218v-368q0 -91 108 -91q63 0 95 25t32 69v365h218v-632z" />
    <glyph glyph-name="dagger" unicode="&#x2020;" horiz-adv-x="695" 
d="M635 415l-198 14l14 -609h-207l14 609l-198 -14v201l195 -11l-14 205h212l-14 -205l196 11v-201z" />
    <glyph glyph-name="degree" unicode="&#xb0;" horiz-adv-x="472" 
d="M417 622q0 -40 -12 -76t-36.5 -63t-61 -42.5t-84.5 -15.5q-49 0 -85 15.5t-60 42.5t-36 63t-12 76t12 76t36 63t60 42.5t85 15.5t85.5 -15.5t60.5 -42t36 -62.5t12 -77zM279 622q0 35 -14 50.5t-42 15.5t-41.5 -15.5t-13.5 -50.5q0 -65 55 -65q56 0 56 65z" />
    <glyph glyph-name="cent" unicode="&#xa2;" horiz-adv-x="724" 
d="M699 195q-69 -59 -139.5 -88.5t-152.5 -29.5h-12l7 -20l-15 -67h-183l21 93l16 18q-47 18 -83.5 48.5t-61.5 69.5t-38 85.5t-13 96.5q0 70 24.5 129.5t68 104t104 71t132.5 31.5l-8 19l14 64h184l-18 -81l-14 -17q86 -25 163 -100l-142 -136q-32 36 -59 49l4 -23
l-49 -226l-16 -22q16 2 30.5 6t29.5 12t31 19.5t36 28.5zM333 541q-21 -9 -36.5 -25t-25.5 -35.5t-15 -40t-5 -37.5q0 -23 6.5 -46.5t22.5 -43.5l-1 29l37 173z" />
    <glyph glyph-name="sterling" unicode="&#xa3;" horiz-adv-x="823" 
d="M753 692l-145 -145q-33 47 -73 69t-91 22q-57 0 -82 -20t-25 -46q0 -18 1.5 -28t4.5 -24l-10 -20h245v-190h-203l14 -20q4 -27 -6 -52t-34 -45v-2h396v-191h-690v157q27 9 50.5 20t40 27t24 36.5t1.5 49.5l9 20h-108v190h60l-12 20q-3 13 -4.5 23.5t-1.5 25.5
q0 129 84 190t243 61q94 0 170.5 -31t141.5 -97z" />
    <glyph glyph-name="section" unicode="&#xa7;" horiz-adv-x="769" 
d="M724 291q0 -56 -25.5 -98.5t-60.5 -74.5q16 -22 25 -47.5t9 -59.5q0 -58 -25 -98.5t-64.5 -65.5t-87.5 -36.5t-94 -11.5q-100 0 -180.5 35t-152.5 105l142 139q53 -57 101 -76.5t90 -19.5q29 0 36.5 8t7.5 15q0 5 -5 13.5t-11 13.5q-15 13 -30.5 22.5t-44.5 24.5
q-29 16 -60.5 31t-61.5 31q-29 15 -60.5 35.5t-57.5 46.5t-43 59.5t-17 75.5q0 30 8.5 55t22 47t31 40t35.5 33q-11 18 -19 40t-8 47q0 54 26 91.5t66 61.5t89 35t96 11q88 0 165.5 -35t148.5 -118l-126 -120q-17 25 -39.5 43.5t-46.5 31.5t-48 19.5t-45 6.5q-38 0 -49 -9
t-11 -17q0 -4 4.5 -11.5t25.5 -21.5q6 -4 12.5 -7t13.5 -7l30 -15q17 -8 34 -16.5t34 -16.5q31 -15 69.5 -36t72 -49.5t56 -65.5t22.5 -84zM504 277q0 7 -3.5 13t-13.5 14q-9 8 -24 16q-8 5 -15 8.5t-14 7.5l-133 71q-28 -15 -28 -40q0 -8 12 -21.5t49 -33.5l145 -75
q14 11 19.5 20.5t5.5 19.5z" />
    <glyph glyph-name="bullet" unicode="&#x2022;" horiz-adv-x="503" 
d="M413 405q0 -43 -16.5 -80.5t-44.5 -65.5t-65.5 -44.5t-80.5 -16.5t-80.5 16.5t-65.5 44.5t-44 65.5t-16 80.5q0 42 16 79.5t44 65.5t65.5 44.5t80.5 16.5t80.5 -16.5t65.5 -44.5t44.5 -65.5t16.5 -79.5z" />
    <glyph glyph-name="paragraph" unicode="&#xb6;" horiz-adv-x="862" 
d="M792 632h-90l12 -20v-793h-195v793l13 20h-88l14 -20v-793h-196v439q-54 8 -101.5 31.5t-83 59t-56.5 82t-21 101.5q0 61 25.5 112t69 88t99.5 57.5t118 20.5h480v-178z" />
    <glyph glyph-name="germandbls" unicode="&#xdf;" horiz-adv-x="757" 
d="M727 264q0 -61 -23.5 -111.5t-64.5 -87t-97.5 -56.5t-122.5 -20q-24 0 -41 1.5t-30 4t-24 4.5t-21 2v200q28 -12 52 -17.5t55 -5.5q49 0 74.5 22.5t25.5 62.5q0 39 -27 64t-78 25h-102v188l65 -2q47 -1 64 15t17 42q0 24 -25 43t-78 19q-44 0 -59 -19t-15 -58v-580h-217
v612q0 66 25 110.5t65.5 71.5t93 39t108.5 12q69 0 128 -16.5t101.5 -48t66.5 -77.5t24 -104q0 -17 -5.5 -36t-15 -37t-22 -34t-26.5 -26v-2q57 -24 93 -76t36 -124z" />
    <glyph glyph-name="registered" unicode="&#xae;" horiz-adv-x="1014" 
d="M969 401q0 -96 -36.5 -180.5t-99 -147t-146.5 -99t-180 -36.5t-180 36.5t-146.5 99t-99 147t-36.5 180.5t36.5 180t99 146.5t146.5 98.5t180 36t180 -36t146.5 -98.5t99 -146.5t36.5 -180zM844 401q0 69 -27 132t-72.5 110.5t-107 75.5t-130.5 28t-130.5 -28
t-107.5 -75.5t-72.5 -110.5t-26.5 -132q0 -70 26.5 -133t72 -110.5t107 -75.5t131.5 -28t131 28t107 75.5t72.5 110.5t26.5 133zM732 150h-145l-53 134q-5 11 -8.5 18t-8.5 11.5t-13.5 6t-22.5 1.5h-46v-171h-131v500h218q33 0 65 -10t56.5 -30t40 -51.5t15.5 -73.5
q0 -17 -6.5 -33.5t-17.5 -32t-24.5 -28t-27.5 -20.5q26 -16 40 -50zM567 485q0 17 -9 25.5t-36 8.5h-87v-67h82q31 0 40.5 11t9.5 22z" />
    <glyph glyph-name="copyright" unicode="&#xa9;" horiz-adv-x="1014" 
d="M969 401q0 -96 -36.5 -180.5t-99 -147t-146.5 -99t-180 -36.5t-180 36.5t-146.5 99t-99 147t-36.5 180.5t36.5 180t99 146.5t146.5 98.5t180 36t180 -36t146.5 -98.5t99 -146.5t36.5 -180zM844 401q0 69 -26.5 132t-72.5 110.5t-107.5 75.5t-130.5 28t-130.5 -28
t-107.5 -75.5t-72.5 -110.5t-26.5 -132q0 -70 26.5 -133t72 -110.5t107 -75.5t131.5 -28t131 28t107 75.5t72.5 110.5t26.5 133zM725 219q-55 -59 -108.5 -82.5t-114.5 -23.5q-66 0 -115 22.5t-81.5 61t-48 90t-15.5 110.5q0 60 17 112.5t50.5 92t82 62.5t111.5 23
q65 0 116 -22t100 -76l-95 -98q-32 35 -60 48.5t-60 12.5q-63 0 -95 -43.5t-32 -112.5q0 -66 29.5 -107t95.5 -41q16 0 31 3t30 10.5t31 20.5t35 34z" />
    <glyph glyph-name="trademark" unicode="&#x2122;" horiz-adv-x="877" 
d="M882 403h-108v184l-19 -41l-92 -147h-9l-92 146l-18 40v-182h-109v406h91l110 -180l23 -64l23 64l114 180h86v-406zM403 712h-147l7 -20v-288h-108v288l7 20h-147v97h388v-97z" />
    <glyph glyph-name="acute" unicode="&#xb4;" horiz-adv-x="796" 
d="M583 880l-234 -199l-89 89l199 233z" />
    <glyph glyph-name="dieresis" unicode="&#xa8;" 
d="M638 795q0 -18 -6 -36t-18 -32t-29.5 -23t-40.5 -9t-40.5 9t-29.5 23t-18 32t-6 36t6 36t18 32t29.5 23t40.5 9t40.5 -8.5t29.5 -23t18 -32.5t6 -36zM365 795q0 -18 -6 -36t-18 -32t-29.5 -23t-40.5 -9t-40.5 9t-29.5 23t-18 32t-6 36t6 36t18 32t29.5 23t40.5 9
t40.5 -8.5t29.5 -23t18 -32.5t6 -36z" />
    <glyph glyph-name="AE" unicode="&#xc6;" horiz-adv-x="1225" 
d="M1155 0h-600l-1 156l11 20h-245l14 -23l-77 -153h-242l414 810h726v-190h-391l11 -21v-78l-11 -21h343v-190h-343l11 -21v-78l-11 -21h391v-190zM567 367l-12 20l-1 189l9 19h-26l9 -18l-95 -192l-20 -18h136z" />
    <glyph glyph-name="Oslash" unicode="&#xd8;" horiz-adv-x="994" 
d="M939 400q0 -91 -29 -167.5t-85.5 -131.5t-139 -85.5t-188.5 -30.5q-43 0 -91.5 6.5t-90.5 20.5l6 -20l-49 -81l-142 80l46 78l19 9q-70 62 -105 144.5t-35 177.5q0 90 28.5 167.5t84 134t138.5 89t191 32.5q35 0 74 -5t71 -13v20l33 50l140 -82l-23 -38l-18 -10
q46 -32 77.5 -70.5t51 -82.5t28 -92t8.5 -100zM716 400q0 56 -12.5 96.5t-41.5 73.5l-2 -28l-208 -338l-21 -16q14 -3 33.5 -5t34.5 -2q59 0 100 15.5t67 44.5t38 69t12 90zM536 629q-8 2 -20.5 2h-18.5q-56 0 -97.5 -16.5t-68.5 -47t-40 -73t-13 -94.5q0 -35 8.5 -70.5
t25.5 -64.5l5 30l196 317z" />
    <glyph glyph-name="plusminus" unicode="&#xb1;" horiz-adv-x="751" 
d="M661 453h-199l5 -13v-200h-183v200l5 13h-199v184h199l-5 13v201h183v-201l-5 -13h199v-184zM661 1h-571v185h571v-185z" />
    <glyph glyph-name="yen" unicode="&#xa5;" horiz-adv-x="1051" 
d="M1026 810l-256 -316l-26 -21l107 2v-155l-214 -1v-70h214v-144h-214v-105h-14h-38h-120h-38h-12v105h-213v144h213v71h-213v154h105l-25 20l-257 316h277l176 -226l46 -88h2l46 88l178 226h276z" />
    <glyph glyph-name="mu" unicode="&#xb5;" horiz-adv-x="770" 
d="M695 -7h-205v40h-2q-20 -19 -50 -31.5t-62 -12.5q-24 0 -49.5 10.5t-43.5 28.5h-2v-237h-206v839h206v-383q0 -48 26.5 -71.5t69.5 -23.5q55 0 84 25t29 73v380h205v-637z" />
    <glyph glyph-name="ordfeminine" unicode="&#xaa;" horiz-adv-x="505" 
d="M450 658v-265h-127v19h-2q-8 -5 -21.5 -9.5t-29 -8t-32 -5.5t-31.5 -2q-30 0 -61 6.5t-57 22.5t-42.5 43.5t-16.5 69.5q0 51 30.5 80.5t75.5 44.5t95 19t89 4h15l-11 10q-5 11 -22 18.5t-50 7.5q-67 0 -123 -40l-83 82q46 33 94 49t108 16q34 0 70 -7.5t65 -26t48 -49.5
t19 -79zM335 568h-12h-28t-31 -1q-15 -1 -30.5 -2.5t-29.5 -4.5q-30 -6 -39 -14.5t-9 -16.5q0 -11 17 -20t54 -9h30q17 0 32 3q34 8 34 26v25z" />
    <glyph glyph-name="ordmasculine" unicode="&#xba;" horiz-adv-x="531" 
d="M476 604q0 -45 -14 -85t-42 -69t-70 -46t-97 -17q-56 0 -98 17t-69.5 46t-41.5 69t-14 85t14 84.5t41.5 68.5t69.5 46t98 17t98 -16.5t69.5 -46t41.5 -69t14 -84.5zM350 604q0 48 -23 75.5t-74 27.5t-73.5 -27t-22.5 -76t23 -76.5t73 -27.5q51 0 74 27.5t23 76.5z" />
    <glyph glyph-name="ae" unicode="&#xe6;" horiz-adv-x="1242" 
d="M1197 311q0 -14 -1 -28t-6 -37h-491l20 -20q18 -31 53 -48.5t84 -17.5q50 0 82.5 11t63.5 37l126 -125q-57 -48 -122 -70.5t-155 -22.5q-88 0 -150 22t-110 62q-13 -13 -32 -26t-40 -22q-31 -14 -79 -25.5t-95 -11.5q-44 0 -96.5 8.5t-97.5 31.5t-75.5 63.5t-30.5 104.5
q0 47 21 80.5t56 57t80 37.5t92 21.5t93 10t84 2.5h56l-19 19q0 17 -24 30t-74 13q-48 0 -89.5 -10t-90.5 -36l-129 129q71 46 146.5 67t166.5 21q132 0 212 -52q43 26 96 39.5t117 13.5q89 0 156 -26t112 -70.5t67.5 -104.5t22.5 -128zM981 398l-23 19q-14 26 -46.5 42
t-70.5 16t-72 -13.5t-50 -44.5l-21 -19h283zM528 253h-22h-36.5t-42.5 -2q-23 -1 -47.5 -3t-46.5 -6q-24 -5 -38 -10t-21.5 -10.5t-9.5 -11t-2 -10.5t4.5 -11.5t16 -12.5t30 -10.5t46.5 -4.5h41t49 4t41.5 13.5t17.5 27.5v27z" />
    <glyph glyph-name="oslash" unicode="&#xf8;" 
d="M766 313q0 -72 -25 -131.5t-72 -102t-114 -66t-151 -23.5q-13 0 -29.5 1t-34.5 3t-35 5t-31 7l7 -21l-42 -65l-125 72l34 57l19 8q-33 23 -56 53.5t-38 64.5t-21.5 69.5t-6.5 69.5q0 73 24.5 133t70.5 102.5t112 66t150 23.5q28 0 64 -2t65 -13l-2 28l36 54l129 -69
l-32 -48l-23 -13q70 -52 98.5 -118.5t28.5 -144.5zM552 316q0 27 -6.5 47.5t-16.5 40.5l-6 -35l-111 -178l-31 -22q2 0 11 -0.5t11 -0.5q149 1 149 148zM423 461q-43 3 -74 -6.5t-51 -29.5t-29.5 -48.5t-9.5 -63.5q0 -6 1.5 -16.5t4.5 -21.5t7 -22t9 -20l6 35l107 172
q8 6 15 10q5 4 10 7.5t4 3.5z" />
    <glyph glyph-name="questiondown" unicode="&#xbf;" horiz-adv-x="762" 
d="M547 709q0 -50 -28.5 -82t-82.5 -32q-55 0 -83.5 31.5t-28.5 82.5q0 49 29 81t83 32t82.5 -31.5t28.5 -81.5zM707 122q-39 -37 -77 -62.5t-78.5 -41.5t-84.5 -23.5t-94 -7.5q-52 0 -108 11.5t-102.5 38.5t-77 70.5t-30.5 107.5q0 48 17 81.5t45.5 58t65 42t76.5 34.5
q20 8 33.5 16t22 18.5t12.5 25t4 35.5v32h210v-45q0 -51 -12 -88.5t-31.5 -63.5t-44 -44t-50.5 -30q-25 -11 -48.5 -19.5t-41.5 -17.5q-19 -8 -26.5 -17t-7.5 -19q0 -18 20.5 -30t65.5 -12q56 0 106 24.5t91 70.5z" />
    <glyph glyph-name="exclamdown" unicode="&#xa1;" horiz-adv-x="388" 
d="M305 712q0 -50 -28.5 -82t-82.5 -32t-83 32t-29 82q0 49 29 81t83 32t82.5 -31.5t28.5 -81.5zM318 0h-248l36 561h176z" />
    <glyph glyph-name="logicalnot" unicode="&#xac;" horiz-adv-x="583" 
d="M553 50h-184v152l-339 -1v169h523v-320z" />
    <glyph glyph-name="florin" unicode="&#x192;" horiz-adv-x="527" 
d="M497 470l-197 -1l12 -20v-363q0 -158 -62.5 -229.5t-200.5 -71.5q-34 0 -68.5 7.5t-80.5 24.5v197q26 -11 52.5 -20t41.5 -13q12 -3 22.5 -4t20.5 -1q22 0 32.5 9t15.5 21t7 33q1 9 1 18.5v19.5v373l11 20h-106v160l107 -1l-11 20q0 55 19 93t53.5 62t83.5 34.5t108 10.5
q45 0 77.5 -5t61.5 -15v-157q-20 9 -46.5 13.5t-55.5 4.5q-47 0 -64.5 -11t-17.5 -30l-13 -19h197v-160z" />
    <glyph glyph-name="guillemotleft" unicode="&#xab;" horiz-adv-x="886" 
d="M831 118l-126 -128l-269 265l269 265l126 -128l-108 -109l-40 -29q7 -5 14 -9.5t13 -8.5q7 -4 13 -9zM449 118l-126 -128l-268 265l268 265l126 -128l-108 -109l-40 -29q7 -5 14 -9.5t13 -8.5q7 -4 13 -9z" />
    <glyph glyph-name="guillemotright" unicode="&#xbb;" horiz-adv-x="886" 
d="M831 255l-269 -265l-126 128l109 109q6 5 13 9q5 4 12 8.5t14 9.5l-40 29l-107 109l125 128zM449 255l-268 -265l-126 128l108 109q6 5 13 9q6 4 12.5 8.5t14.5 9.5l-40 29l-108 109l126 128z" />
    <glyph glyph-name="ellipsis" unicode="&#x2026;" horiz-adv-x="943" 
d="M873 99q0 -49 -27.5 -82t-79.5 -33q-53 0 -79.5 33t-26.5 82q0 48 26.5 81t79.5 33q54 0 80.5 -33t26.5 -81zM573 99q0 -49 -27.5 -82t-79.5 -33q-53 0 -79.5 33t-26.5 82q0 48 26.5 81t79.5 33q54 0 80.5 -33t26.5 -81zM273 99q0 -49 -27.5 -82t-79.5 -33
q-53 0 -79.5 33t-26.5 82q0 48 26.5 81t79.5 33q54 0 80.5 -33t26.5 -81z" />
    <glyph glyph-name="uni00A0" unicode="&#xa0;" horiz-adv-x="310" 
 />
    <glyph glyph-name="Agrave" unicode="&#xc0;" horiz-adv-x="1041" 
d="M665 959l-89 -89l-234 198l123 123zM1026 0h-242l-85 167l13 20h-382l13 -20l-84 -167h-244l416 810h181zM612 359l-21 21l-46 91l-22 66h-2l-24 -66l-45 -91l-20 -21h180z" />
    <glyph glyph-name="Atilde" unicode="&#xc3;" horiz-adv-x="1041" 
d="M779 1008q-9 -31 -27 -55.5t-40.5 -42t-49 -27t-53.5 -9.5q-29 0 -57.5 12.5t-52.5 27.5q-11 6 -21 11.5t-22 10.5q-24 8 -41 8q-26 0 -48 -19t-35 -58l-91 90q7 27 24 51t40 43t50.5 30t56.5 11q30 0 60 -12t53 -26q11 -7 21.5 -12.5t22.5 -10.5q11 -4 21 -6.5t17 -2.5
q34 0 53.5 16.5t31.5 55.5zM1026 0h-242l-85 167l13 20h-382l13 -20l-84 -167h-244l416 810h181zM612 359l-21 21l-46 91l-22 66h-2l-24 -66l-45 -91l-20 -21h180z" />
    <glyph glyph-name="Otilde" unicode="&#xd5;" horiz-adv-x="995" 
d="M754 1008q-9 -31 -27 -55.5t-40.5 -42t-49 -27t-53.5 -9.5q-29 0 -57.5 12.5t-52.5 27.5q-11 6 -21 11.5t-22 10.5q-24 8 -41 8q-26 0 -48 -19t-35 -58l-91 90q7 27 24 51t40 43t50.5 30t56.5 11q30 0 60 -12t53 -26q11 -7 21.5 -12.5t22.5 -10.5q11 -4 21 -6.5t17 -2.5
q34 0 53.5 16.5t31.5 55.5zM940 401q0 -90 -29.5 -165.5t-85.5 -130t-139 -85t-189 -30.5q-108 0 -190.5 30.5t-138.5 85t-84.5 130t-28.5 165.5q0 89 28.5 165.5t84 133t138.5 88.5t191 32q109 0 192 -32t138.5 -88t84 -132.5t28.5 -166.5zM716 401q0 50 -12.5 92t-38.5 72
t-67.5 46.5t-99.5 16.5t-99.5 -16t-68 -46t-39 -72t-12.5 -93q0 -50 12.5 -90.5t38.5 -69t67.5 -44t100.5 -15.5q58 0 99.5 15.5t68 44t38.5 69t12 90.5z" />
    <glyph glyph-name="OE" unicode="&#x152;" horiz-adv-x="1217" 
d="M1147 -1h-585v40q-29 -23 -65.5 -36t-74.5 -13q-95 0 -164 32t-114 88t-67 130.5t-22 160.5q0 84 22 160t67 133.5t114 91.5t164 34q18 0 37 -3.5t38 -9.5t35.5 -14.5t29.5 -18.5v37h585v-191h-370l6 -19l-1 -80l-6 -21h333v-190h-332l5 -20v-80l-5 -20h370v-191z
M572 401q0 113 -40.5 170.5t-106.5 57.5t-106.5 -56t-40.5 -172q0 -112 40.5 -166t106.5 -54q67 0 107 53.5t40 166.5z" />
    <glyph glyph-name="oe" unicode="&#x153;" horiz-adv-x="1227" 
d="M1182 311q0 -14 -1 -33t-6 -42h-474l25 -20q49 -55 125 -55q44 0 80 12.5t74 41.5l120 -123q-59 -52 -124.5 -77t-149.5 -25q-75 0 -134.5 23t-102.5 63q-41 -39 -98.5 -62.5t-128.5 -23.5q-85 0 -149 25.5t-107 69.5t-64.5 103t-21.5 127t21.5 127t64.5 103t107 69.5
t149 25.5q72 0 130 -25t98 -63q42 39 98.5 63.5t125.5 24.5q85 0 149 -26t107 -70.5t65 -104.5t22 -128zM970 403l-20 20q-18 26 -44.5 38t-67.5 12q-42 0 -68 -12.5t-44 -37.5l-21 -20h265zM521 315q0 69 -31.5 107t-102.5 38t-102 -38t-31 -107t32 -107.5t102 -38.5
t101.5 38.5t31.5 107.5z" />
    <glyph glyph-name="endash" unicode="&#x2013;" horiz-adv-x="733" 
d="M703 244h-673v182h673v-182z" />
    <glyph glyph-name="emdash" unicode="&#x2014;" horiz-adv-x="1009" 
d="M979 244h-949v182h949v-182z" />
    <glyph glyph-name="quotedblleft" unicode="&#x201c;" horiz-adv-x="512" 
d="M276 576q0 16 4.5 32.5t9.5 29.5l91 191l82 -36l-47 -102l-26 -18q20 -3 34.5 -12.5t24 -23t14 -29.5t4.5 -32q0 -42 -25.5 -70t-70.5 -28t-70 28t-25 70zM45 576q0 16 4.5 32.5t10.5 29.5l91 191l81 -36l-47 -102l-25 -18q19 -3 33.5 -12.5t24 -23t14 -29.5t4.5 -32
q0 -42 -25 -70t-70 -28q-46 0 -71 28t-25 70z" />
    <glyph glyph-name="quotedblright" unicode="&#x201d;" horiz-adv-x="512" 
d="M236 722q0 -16 -4.5 -33t-10.5 -29l-91 -191l-81 36l46 102l26 18q-20 3 -34 12.5t-23.5 23t-14 29.5t-4.5 32q0 42 25 70t70 28q46 0 71 -28t25 -70zM467 722q0 -16 -4.5 -33t-10.5 -29l-91 -191l-81 36l46 102l26 18q-20 3 -34 12.5t-23.5 23t-14 29.5t-4.5 32
q0 42 25 70t70 28q46 0 71 -28t25 -70z" />
    <glyph glyph-name="quoteleft" unicode="&#x2018;" horiz-adv-x="281" 
d="M45 576q0 16 4.5 32.5t10.5 29.5l91 191l81 -36l-47 -102l-25 -18q19 -3 33.5 -12.5t24 -23t14 -29.5t4.5 -32q0 -42 -25 -70t-70 -28q-46 0 -71 28t-25 70z" />
    <glyph glyph-name="quoteright" unicode="&#x2019;" horiz-adv-x="281" 
d="M236 722q0 -16 -4.5 -33t-10.5 -29l-91 -191l-81 36l46 102l26 18q-20 3 -34 12.5t-23.5 23t-14 29.5t-4.5 32q0 42 25 70t70 28q46 0 71 -28t25 -70z" />
    <glyph glyph-name="divide" unicode="&#xf7;" horiz-adv-x="751" 
d="M482 679q0 -48 -27 -81t-80 -33t-79.5 33t-26.5 81q0 49 27 82t79 33q54 0 80.5 -33t26.5 -82zM661 313h-571v185h571v-185zM482 130q0 -48 -27 -81t-80 -33t-79.5 33t-26.5 81q0 49 27 82t79 33q54 0 80.5 -33t26.5 -82z" />
    <glyph glyph-name="ydieresis" unicode="&#xff;" horiz-adv-x="836" 
d="M647 795q0 -18 -6 -36t-18 -32t-29.5 -23t-40.5 -9t-40.5 9t-29.5 23t-18 32t-6 36t6 36t18 32t29.5 23t40.5 9t40.5 -8.5t29.5 -23t18 -32.5t6 -36zM374 795q0 -18 -6 -36t-18 -32t-29.5 -23t-40.5 -9t-40.5 9t-29.5 23t-18 32t-6 36t6 36t18 32t29.5 23t40.5 9
t40.5 -8.5t29.5 -23t18 -32.5t6 -36zM824 630l-316 -683q-36 -78 -95.5 -120t-144.5 -42q-48 0 -88 6.5t-80 21.5v187q47 -24 80 -33.5t62 -9.5q26 0 47 10.5t35 46.5l-312 616h240l136 -283l36 -109h2l36 109l123 283h239z" />
    <glyph glyph-name="Ydieresis" unicode="&#x178;" horiz-adv-x="1031" 
d="M742 994q0 -18 -6 -36t-18 -32.5t-29.5 -23t-40.5 -8.5t-40.5 9t-29.5 23t-18 32t-6 36t6 36t18 32t29.5 23t40.5 9t40.5 -9t29.5 -23t18 -32t6 -36zM469 994q0 -18 -6 -36t-18 -32.5t-29.5 -23t-40.5 -8.5t-40.5 9t-29.5 23t-18 32t-6 36t6 36t18 32t29.5 23t40.5 9
t40.5 -9t29.5 -23t18 -32t6 -36zM1016 810l-389 -480v-330h-222v330l-390 480h277l176 -226l46 -79h2l46 79l178 226h276z" />
    <glyph glyph-name="Euro" unicode="&#x20ac;" horiz-adv-x="778" 
d="M728 123q-30 -36 -60.5 -61.5t-64 -41.5t-72.5 -23t-85 -7q-64 0 -118 18t-97.5 49.5t-74.5 75t-48 94.5l14 20h-82v139h67l-16 11v16l16 11h-67v139h83l-12 20q19 53 51 96.5t74.5 75t95 48.5t114.5 17q100 0 164.5 -34t113.5 -104l-131 -131q-26 45 -57.5 64.5
t-77.5 19.5q-85 0 -110 -52l-21 -20h199v-139h-241l16 -10v-16l-16 -12h241v-139h-206l22 -19q15 -24 43.5 -38t66.5 -14q80 0 138 85z" />
    <glyph glyph-name="guilsinglleft" unicode="&#x2039;" horiz-adv-x="504" 
d="M449 118l-126 -128l-268 265l268 265l126 -128l-108 -109l-40 -29q7 -5 14 -9.5t13 -8.5q7 -4 13 -9z" />
    <glyph glyph-name="guilsinglright" unicode="&#x203a;" horiz-adv-x="504" 
d="M449 255l-268 -265l-126 128l108 109q6 5 13 9q6 4 12.5 8.5t14.5 9.5l-40 29l-108 109l126 128z" />
    <glyph glyph-name="daggerdbl" unicode="&#x2021;" horiz-adv-x="696" 
d="M636 415l-200 13v-227l199 14v-201l-195 11l14 -204h-212l14 204l-196 -11v201l200 -14v227l-199 -13v201l195 -11l-14 204h212l-14 -204l196 11v-201z" />
    <glyph glyph-name="periodcentered" unicode="&#xb7;" horiz-adv-x="343" 
d="M273 406q0 -49 -27.5 -82t-79.5 -33q-53 0 -79.5 33t-26.5 82q0 48 26.5 81t79.5 33q54 0 80.5 -33t26.5 -81z" />
    <glyph glyph-name="quotesinglbase" unicode="&#x201a;" horiz-adv-x="281" 
d="M236 87q0 -16 -4.5 -33t-10.5 -29l-91 -191l-81 36l46 102l26 18q-20 3 -34 12.5t-23.5 23t-14 29.5t-4.5 32q0 42 25 70t70 28q46 0 71 -28t25 -70z" />
    <glyph glyph-name="quotedblbase" unicode="&#x201e;" horiz-adv-x="512" 
d="M236 87q0 -16 -4.5 -33t-10.5 -29l-91 -191l-81 36l46 102l26 18q-20 3 -34 12.5t-23.5 23t-14 29.5t-4.5 32q0 42 25 70t70 28q46 0 71 -28t25 -70zM467 87q0 -16 -4.5 -33t-10.5 -29l-91 -191l-81 36l46 102l26 18q-20 3 -34 12.5t-23.5 23t-14 29.5t-4.5 32
q0 42 25 70t70 28q46 0 71 -28t25 -70z" />
    <glyph glyph-name="perthousand" unicode="&#x2030;" horiz-adv-x="1563" 
d="M1533 221q0 -46 -12.5 -87.5t-39 -73.5t-67 -51t-96.5 -19t-96.5 19t-67 51t-39 73.5t-12.5 87.5q0 45 13 87.5t39.5 75t67 52.5t95.5 20q56 0 96.5 -19.5t67 -52.5t39 -75.5t12.5 -87.5zM1063 221q0 -46 -12.5 -87.5t-39 -73.5t-67 -51t-96.5 -19t-96.5 19t-67 51
t-39 73.5t-12.5 87.5q0 45 13 87.5t39.5 75t67 52.5t95.5 20q56 0 96.5 -19.5t67 -52.5t39 -75.5t12.5 -87.5zM780 820l-301 -830h-165l300 830h166zM460 586q0 -46 -12.5 -87.5t-39 -73.5t-67 -51t-96.5 -19t-96.5 19t-67 51t-39 73.5t-12.5 87.5q0 45 13 87.5t39.5 75
t67 52.5t95.5 20q56 0 96.5 -20t67 -52.5t39 -75t12.5 -87.5zM1370 221q0 28 -4 46t-11 28t-16.5 13.5t-20.5 3.5t-20 -3.5t-16.5 -13.5t-11.5 -28t-4 -46q0 -27 4 -44t11.5 -26.5t16.5 -13t20 -3.5t20.5 3t16.5 12.5t11 26.5t4 45zM900 221q0 28 -4 46t-11 28t-16.5 13.5
t-20.5 3.5t-20 -3.5t-16.5 -13.5t-11.5 -28t-4 -46q0 -27 4 -44t11.5 -26.5t16.5 -13t20 -3.5t20.5 3t16.5 12.5t11 26.5t4 45zM297 586q0 28 -4 46t-11 28t-16.5 13.5t-20.5 3.5t-20.5 -3.5t-16.5 -13.5t-11 -28t-4 -46q0 -27 4 -44.5t11.5 -27t16.5 -13t20 -3.5t20.5 3.5
t16.5 13t11 26.5t4 45z" />
    <glyph glyph-name="Acircumflex" unicode="&#xc2;" horiz-adv-x="1041" 
d="M744 958l-86 -85l-139 112l-138 -112l-86 85l223 214h2zM1026 0h-242l-85 167l13 20h-382l13 -20l-84 -167h-244l416 810h181zM612 359l-21 21l-46 91l-22 66h-2l-24 -66l-45 -91l-20 -21h180z" />
    <glyph glyph-name="Ecircumflex" unicode="&#xca;" horiz-adv-x="881" 
d="M696 958l-86 -85l-139 112l-138 -112l-86 85l223 214h2zM811 0h-721v810h721v-191h-520l20 -20v-78l-20 -20h472v-192h-472l20 -20v-78l-20 -20h520v-191z" />
    <glyph glyph-name="Aacute" unicode="&#xc1;" horiz-adv-x="1041" 
d="M701 1063l-234 -198l-89 89l200 232zM1026 0h-242l-85 167l13 20h-382l13 -20l-84 -167h-244l416 810h181zM612 359l-21 21l-46 91l-22 66h-2l-24 -66l-45 -91l-20 -21h180z" />
    <glyph glyph-name="Edieresis" unicode="&#xcb;" horiz-adv-x="881" 
d="M686 994q0 -18 -6 -36t-18 -32.5t-29.5 -23t-40.5 -8.5t-40.5 9t-29.5 23t-18 32t-6 36t6 36t18 32t29.5 23t40.5 9t40.5 -9t29.5 -23t18 -32t6 -36zM413 994q0 -18 -6 -36t-18 -32.5t-29.5 -23t-40.5 -8.5t-40.5 9t-29.5 23t-18 32t-6 36t6 36t18 32t29.5 23t40.5 9
t40.5 -9t29.5 -23t18 -32t6 -36zM811 0h-721v810h721v-191h-520l20 -20v-78l-20 -20h472v-192h-472l20 -20v-78l-20 -20h520v-191z" />
    <glyph glyph-name="Egrave" unicode="&#xc8;" horiz-adv-x="881" 
d="M605 954l-89 -89l-234 198l123 123zM811 0h-721v810h721v-191h-520l20 -20v-78l-20 -20h472v-192h-472l20 -20v-78l-20 -20h520v-191z" />
    <glyph glyph-name="Iacute" unicode="&#xcd;" horiz-adv-x="411" 
d="M391 1063l-234 -198l-89 89l200 232zM316 0h-221v810h221v-810z" />
    <glyph glyph-name="Icircumflex" unicode="&#xce;" horiz-adv-x="411" 
d="M432 958l-86 -85l-139 112l-138 -112l-86 85l223 214h2zM316 0h-221v810h221v-810z" />
    <glyph glyph-name="Idieresis" unicode="&#xcf;" horiz-adv-x="411" 
d="M440 994q0 -18 -6 -36t-18 -32.5t-29.5 -23t-40.5 -8.5t-40.5 9t-29.5 23t-18 32t-6 36t6 36t18 32t29.5 23t40.5 9t40.5 -9t29.5 -23t18 -32t6 -36zM167 994q0 -18 -6 -36t-18 -32.5t-29.5 -23t-40.5 -8.5t-40.5 9t-29.5 23t-18 32t-6 36t6 36t18 32t29.5 23t40.5 9
t40.5 -9t29.5 -23t18 -32t6 -36zM316 0h-221v810h221v-810z" />
    <glyph glyph-name="Igrave" unicode="&#xcc;" horiz-adv-x="411" 
d="M362 954l-89 -89l-234 198l123 123zM316 0h-221v810h221v-810z" />
    <glyph glyph-name="Oacute" unicode="&#xd3;" horiz-adv-x="995" 
d="M661 1063l-234 -198l-89 89l200 232zM940 401q0 -90 -29.5 -165.5t-85.5 -130t-139 -85t-189 -30.5q-108 0 -190.5 30.5t-138.5 85t-84.5 130t-28.5 165.5q0 89 28.5 165.5t84 133t138.5 88.5t191 32q109 0 192 -32t138.5 -88t84 -132.5t28.5 -166.5zM716 401
q0 50 -12.5 92t-38.5 72t-67.5 46.5t-99.5 16.5t-99.5 -16t-68 -46t-39 -72t-12.5 -93q0 -50 12.5 -90.5t38.5 -69t67.5 -44t100.5 -15.5q58 0 99.5 15.5t68 44t38.5 69t12 90.5z" />
    <glyph glyph-name="Ocircumflex" unicode="&#xd4;" horiz-adv-x="995" 
d="M722 958l-86 -85l-139 112l-138 -112l-86 85l223 214h2zM940 401q0 -90 -29.5 -165.5t-85.5 -130t-139 -85t-189 -30.5q-108 0 -190.5 30.5t-138.5 85t-84.5 130t-28.5 165.5q0 89 28.5 165.5t84 133t138.5 88.5t191 32q109 0 192 -32t138.5 -88t84 -132.5t28.5 -166.5z
M716 401q0 50 -12.5 92t-38.5 72t-67.5 46.5t-99.5 16.5t-99.5 -16t-68 -46t-39 -72t-12.5 -93q0 -50 12.5 -90.5t38.5 -69t67.5 -44t100.5 -15.5q58 0 99.5 15.5t68 44t38.5 69t12 90.5z" />
    <glyph glyph-name="Ograve" unicode="&#xd2;" horiz-adv-x="995" 
d="M655 954l-89 -89l-234 198l123 123zM940 401q0 -90 -29.5 -165.5t-85.5 -130t-139 -85t-189 -30.5q-108 0 -190.5 30.5t-138.5 85t-84.5 130t-28.5 165.5q0 89 28.5 165.5t84 133t138.5 88.5t191 32q109 0 192 -32t138.5 -88t84 -132.5t28.5 -166.5zM716 401
q0 50 -12.5 92t-38.5 72t-67.5 46.5t-99.5 16.5t-99.5 -16t-68 -46t-39 -72t-12.5 -93q0 -50 12.5 -90.5t38.5 -69t67.5 -44t100.5 -15.5q58 0 99.5 15.5t68 44t38.5 69t12 90.5z" />
    <glyph glyph-name="Uacute" unicode="&#xda;" horiz-adv-x="983" 
d="M661 1063l-234 -198l-89 89l200 232zM898 375q0 -90 -25 -161.5t-75.5 -121t-126.5 -76t-179 -26.5q-102 0 -178.5 26t-127.5 75.5t-76 121t-25 162.5v435h221v-434q0 -51 9.5 -87.5t31.5 -60.5t57.5 -35.5t87.5 -11.5q101 0 143 47t42 148v434h221v-435z" />
    <glyph glyph-name="Ucircumflex" unicode="&#xdb;" horiz-adv-x="983" 
d="M716 958l-86 -85l-139 112l-138 -112l-86 85l223 214h2zM898 375q0 -90 -25 -161.5t-75.5 -121t-126.5 -76t-179 -26.5q-102 0 -178.5 26t-127.5 75.5t-76 121t-25 162.5v435h221v-434q0 -51 9.5 -87.5t31.5 -60.5t57.5 -35.5t87.5 -11.5q101 0 143 47t42 148v434h221
v-435z" />
    <glyph glyph-name="Ugrave" unicode="&#xd9;" horiz-adv-x="983" 
d="M640 954l-89 -89l-234 198l123 123zM898 375q0 -90 -25 -161.5t-75.5 -121t-126.5 -76t-179 -26.5q-102 0 -178.5 26t-127.5 75.5t-76 121t-25 162.5v435h221v-434q0 -51 9.5 -87.5t31.5 -60.5t57.5 -35.5t87.5 -11.5q101 0 143 47t42 148v434h221v-435z" />
    <glyph glyph-name="circumflex" unicode="&#x2c6;" horiz-adv-x="744" 
d="M596 778l-86 -85l-138 112l-139 -112l-85 85l222 214h2z" />
    <glyph glyph-name="tilde" unicode="&#x2dc;" horiz-adv-x="796" 
d="M658 846q-9 -31 -26.5 -55.5t-40.5 -42t-49.5 -27t-53.5 -9.5q-29 0 -57.5 12.5t-52.5 27.5q-11 6 -21 11.5t-22 10.5q-22 8 -41 8q-26 0 -48 -19t-35 -58l-91 90q7 27 24 51t40 43t51 30t57 11t59 -12t53 -26q11 -7 21.5 -12.5t22.5 -10.5q11 -4 21 -6.5t18 -2.5
q33 0 52.5 16.5t31.5 55.5z" />
    <glyph glyph-name="macron" unicode="&#xaf;" horiz-adv-x="795" 
d="M636 732h-419v137h419v-137z" />
    <glyph glyph-name="cedilla" unicode="&#xb8;" horiz-adv-x="907" 
d="M559 -23q29 -29 30.5 -63t-30.5 -66l-114 -112l-86 86l86 84q14 14 14 28t-11 25l-55 55h130z" />
    <glyph glyph-name="currency" unicode="&#xa4;" horiz-adv-x="685" 
d="M630 585l-73 -75q26 -54 26 -107q0 -56 -25 -108l70 -73l-105 -106l-74 72q-50 -24 -106 -24q-59 0 -108 25l-73 -72l-106 106l72 73q-25 50 -25 107t25 106l-73 76l107 105l73 -72q49 25 108 25q57 0 106 -25l74 71zM424 403q0 35 -24 59q-22 23 -57 23q-36 0 -57 -24
q-24 -23 -24 -58q0 -32 23 -57q23 -23 58 -23q36 0 58 23q23 23 23 57z" />
    <glyph glyph-name="AEacute" unicode="&#x1fc;" horiz-adv-x="1225" 
d="M841 1063l-234 -198l-89 89l200 232zM1155 0h-600l-1 156l11 20h-245l14 -23l-77 -153h-242l414 810h726v-190h-391l11 -21v-78l-11 -21h343v-190h-343l11 -21v-78l-11 -21h391v-190zM567 367l-12 20l-1 189l9 19h-26l9 -18l-95 -192l-20 -18h136z" />
    <glyph glyph-name="scedilla" unicode="&#x15f;" horiz-adv-x="744" 
d="M699 197q0 -39 -16.5 -73t-48 -61t-78 -45t-106.5 -25l16 -16q29 -30 30.5 -63.5t-30.5 -65.5l-114 -112l-86 86l86 84q14 14 14 28t-11 25l-33 33q-81 8 -149 36t-128 77l132 131q44 -41 97 -60.5t107 -19.5q51 0 75 8.5t24 22.5q0 11 -12.5 17.5t-51.5 14.5q-5 1 -21 5
t-34.5 8.5t-35 8.5t-21.5 5q-39 9 -81.5 23t-77.5 36t-57.5 55t-22.5 81q0 45 22 82t62 62.5t97 39.5t126 14q92 0 170.5 -26.5t135.5 -77.5l-126 -125q-35 29 -82 45.5t-98 16.5q-43 0 -65.5 -8t-22.5 -21q0 -11 23.5 -18.5t68.5 -18.5l101 -23q51 -11 92 -26.5t70 -38
t44.5 -52t15.5 -69.5z" />
    <glyph glyph-name="Tcedilla" unicode="&#x162;" horiz-adv-x="821" 
d="M801 619h-291l11 -20v-599h-49l23 -23q29 -29 30.5 -63t-30.5 -66l-114 -112l-86 86l86 84q14 14 14 28t-11 25l-41 41h-43v599l12 20h-292v191h781v-191z" />
    <glyph glyph-name="wcircumflex" unicode="&#x175;" horiz-adv-x="1032" 
d="M739 778l-86 -85l-138 112l-139 -112l-85 85l222 214h2zM1020 630l-210 -630h-199l-76 241l-19 107h-2l-19 -107l-75 -241h-199l-209 630h230l66 -249l20 -115h2l18 115l79 249h178l77 -249l20 -116h2l19 116l69 249h228z" />
    <glyph glyph-name="wgrave" unicode="&#x1e81;" horiz-adv-x="1032" 
d="M689 770l-89 -89l-234 199l123 123zM1020 630l-210 -630h-199l-76 241l-19 107h-2l-19 -107l-75 -241h-199l-209 630h230l66 -249l20 -115h2l18 115l79 249h178l77 -249l20 -116h2l19 116l69 249h228z" />
    <glyph glyph-name="softhyphen" unicode="&#xad;" horiz-adv-x="455" 
d="M425 244h-395v182h395v-182z" />
  </font>
</defs>
</svg>
